<svg width="798" height="700" viewBox="0 0 798 700" fill="none" xmlns="http://www.w3.org/2000/svg">
<path d="M765.383 415.105C354.983 299.105 88.7161 439.105 6.88273 523.605C-17.5 551 22.8827 626.405 254.883 635.605C544.883 647.105 686 586 744.383 530.605C811.253 467.157 810.383 428.605 765.383 415.105Z" fill="url(#paint0_linear_995_2841)"/>
<ellipse cx="100.541" cy="418.351" rx="22.5405" ry="56.3514" fill="url(#paint1_linear_995_2841)"/>
<rect x="98.0403" y="377.652" width="5.63514" height="123.347" rx="2.81757" fill="#DEDEE6"/>
<rect x="83.0095" y="397.291" width="5.63514" height="25.045" rx="2.81757" transform="rotate(-45 83.0095 397.291)" fill="#DDDDE5"/>
<rect x="83.0095" y="427.971" width="5.63514" height="25.045" rx="2.81757" transform="rotate(-45 83.0095 427.971)" fill="#DDDDE5"/>
<rect x="115.124" y="402.072" width="5.63514" height="25.045" rx="2.81757" transform="rotate(45 115.124 402.072)" fill="#DDDDE5"/>
<rect x="115.124" y="402.072" width="5.63514" height="25.045" rx="2.81757" transform="rotate(45 115.124 402.072)" fill="#DDDDE5"/>
<ellipse cx="231.325" cy="378.811" rx="12.3243" ry="30.8108" fill="url(#paint2_linear_995_2841)"/>
<rect x="229.958" y="356.559" width="3.08108" height="67.4414" rx="1.54054" fill="#DEDEE6"/>
<rect x="221.739" y="367.295" width="3.08108" height="13.6937" rx="1.54054" transform="rotate(-45 221.739 367.295)" fill="#DDDDE5"/>
<rect x="221.739" y="384.07" width="3.08108" height="13.6937" rx="1.54054" transform="rotate(-45 221.739 384.07)" fill="#DDDDE5"/>
<rect x="239.298" y="369.91" width="3.08108" height="13.6937" rx="1.54054" transform="rotate(45 239.298 369.91)" fill="#DDDDE5"/>
<rect x="239.298" y="369.91" width="3.08108" height="13.6937" rx="1.54054" transform="rotate(45 239.298 369.91)" fill="#DDDDE5"/>
<path d="M198.428 391.913C33.0005 225.411 207.501 5.0019 317.928 9.41283C319.098 22.0004 332.428 225.411 332.428 225.411L198.428 391.913Z" fill="#F4F5F9"/>
<path d="M199.093 391.504C41.0938 222 202.501 9.49609 318 9.5L291.094 0C85.0938 35.6 65.0938 306.5 170.594 385.5L199.093 391.504Z" fill="#CACED5"/>
<path d="M356.5 230.5L344 14L370 22L382.5 238L356.5 230.5Z" fill="#C6C6CE"/>
<path d="M223 398.5L356.5 230.5L382.5 238L249 406L223 398.5Z" fill="#D1D4DB"/>
<path d="M328 448.5C296.5 439 264.5 418 249 406L223 398.5C266.6 435.7 309.5 449 328 448.5Z" fill="#C5C5CD"/>
<path d="M382.5 238.077L249 406.077C415 540.477 559.483 367.082 572.5 275.077C602 66.5824 443.5 7.50251 370 22.0009C372 65.0059 382.5 238.077 382.5 238.077Z" fill="#F4F5F9"/>
<path d="M495.848 273.633V221.813C495.848 218.802 495.235 215.914 494.143 213.785C493.051 211.656 491.57 210.459 490.026 210.459H481.177V215.87C481.177 216.622 481.024 217.344 480.751 217.877C480.478 218.409 480.108 218.708 479.722 218.708C479.336 218.708 478.966 218.409 478.693 217.877C478.42 217.344 478.266 216.622 478.266 215.87V210.459H443.361V215.907C443.361 216.659 443.207 217.381 442.934 217.914C442.661 218.446 442.291 218.745 441.905 218.745C441.519 218.745 441.149 218.446 440.876 217.914C440.603 217.381 440.45 216.659 440.45 215.907V210.459H431.809C430.265 210.459 428.784 211.656 427.692 213.785C426.6 215.914 425.987 218.802 425.987 221.813V324C425.987 327.011 426.6 329.899 427.692 332.029C428.784 334.158 430.265 335.354 431.809 335.354H468.671C469.321 337.358 470.055 339.243 470.863 341H431.733C429.417 341 427.196 339.206 425.558 336.012C423.921 332.818 423 328.486 423 323.969V221.782C423 217.265 423.921 212.933 425.558 209.739C427.196 206.545 429.417 204.751 431.733 204.751H440.45V198.875C440.45 198.123 440.603 197.401 440.876 196.868C441.149 196.336 441.519 196.037 441.905 196.037C442.291 196.037 442.661 196.336 442.934 196.868C443.207 197.401 443.361 198.123 443.361 198.875V204.751H478.266V198.839C478.266 198.086 478.42 197.364 478.693 196.831C478.966 196.299 479.336 196 479.722 196C480.108 196 480.478 196.299 480.751 196.831C481.024 197.364 481.177 198.086 481.177 198.839V204.751H490.071C492.387 204.751 494.609 206.545 496.246 209.739C497.884 212.933 498.804 217.265 498.804 221.782V276.727C497.861 275.548 496.873 274.514 495.848 273.633Z" fill="#D8DDE3"/>
<path d="M462.373 238.844H488.571C488.957 238.844 489.327 239.143 489.6 239.675C489.873 240.207 490.026 240.929 490.026 241.682C490.026 242.435 489.873 243.157 489.6 243.689C489.327 244.222 488.957 244.521 488.571 244.521H462.373C461.987 244.521 461.617 244.222 461.344 243.689C461.071 243.157 460.917 242.435 460.917 241.682C460.917 240.929 461.071 240.207 461.344 239.675C461.617 239.143 461.987 238.844 462.373 238.844V238.844ZM462.373 261.552H488.571C488.957 261.552 489.327 261.851 489.6 262.383C489.873 262.916 490.026 263.638 490.026 264.39C490.026 265.143 489.873 265.865 489.6 266.398C489.327 266.93 488.957 267.229 488.571 267.229H462.373C461.987 267.229 461.617 266.93 461.344 266.398C461.071 265.865 460.917 265.143 460.917 264.39C460.917 263.638 461.071 262.916 461.344 262.383C461.617 261.851 461.987 261.552 462.373 261.552V261.552Z" fill="#D8DDE3"/>
<path d="M499 300.095V310.325L494.419 312.156C494.115 314.415 493.66 316.586 493.064 318.611L495.651 326.261L495.644 326.275L491.968 333.493L491.96 333.508L488.064 328.427C487.039 329.594 485.938 330.489 484.791 331.086L483.859 340.082H478.649L477.718 331.086C476.571 330.486 475.47 329.591 474.444 328.427L470.541 333.508L466.85 326.261L469.439 318.611C468.845 316.584 468.389 314.414 468.084 312.156L463.502 310.325V300.095L468.084 298.267C468.385 296.005 468.843 293.833 469.446 291.813L466.857 284.163L470.548 276.916L474.444 281.986C475.47 280.82 476.571 279.924 477.718 279.323L478.649 270.339H483.861L484.791 279.337C485.938 279.936 487.039 280.831 488.064 281.997L491.96 276.916L491.968 276.927L495.646 284.149L495.659 284.163L493.069 291.813C493.666 293.837 494.122 296.008 494.426 298.267L499 300.095V300.095ZM481.275 286.93C476.135 286.919 471.966 295.088 471.96 305.176C471.954 315.267 476.115 323.456 481.253 323.468C486.392 323.479 490.562 315.307 490.568 305.219C490.573 295.131 486.412 286.942 481.275 286.93V286.93ZM452.85 301.396C449.785 307.419 446.714 313.434 443.656 319.474C443.401 319.976 443.253 320.019 443.008 319.576L442.956 319.48L442.952 319.471C441.841 317.272 440.727 315.078 439.611 312.889C438.595 310.893 437.578 308.903 436.561 306.911C436.457 306.706 436.335 306.539 436.267 306.425L436.291 306.377L436.245 306.283L438.416 302.017L438.463 302.111L438.472 302.097L443.253 311.489L451.096 296.082C451.715 297.3 452.285 298.418 452.851 299.539C453.125 300.081 453.256 300.277 453.247 300.487L453.265 300.521L453.231 300.592C453.188 300.765 453.064 300.975 452.85 301.396V301.396ZM442.889 319.358C441.971 317.53 441.046 315.713 440.122 313.894C441.067 315.749 442.01 317.608 442.952 319.471C442.931 319.434 442.911 319.403 442.889 319.358ZM448.088 249.53L443.339 258.855L436.393 245.218L438.444 241.193L443.254 250.754L451.109 235.326L453.199 239.462C453.163 239.575 453.106 239.68 453.048 239.797C451.393 243.039 449.74 246.284 448.088 249.53V249.53ZM438.379 267.143L438.396 267.177C438.384 267.174 438.374 267.172 438.363 267.174L438.379 267.143ZM443.179 281.009L443.222 280.924L443.33 281.12L451.135 265.775L453.159 269.794C453.157 269.865 453.151 269.942 453.147 270.019L443.301 289.352L436.313 275.63L438.363 271.608H438.396L443.179 281.009V281.009Z" fill="#D8DDE3"/>
<path d="M370 21.9997L344 14.0008C386 8.00079 419.667 19.5 432 25C408.8 18.2 381.667 19.6664 370 21.9997Z" fill="#D4D7DE"/>
<path d="M213 229.153C213 230.039 213.266 230.889 213.74 231.515C214.213 232.141 214.855 232.493 215.524 232.493C216.194 232.493 216.835 232.141 217.309 231.515C217.782 230.889 218.048 230.039 218.048 229.153C218.048 222.067 220.175 215.272 223.961 210.261C227.748 205.251 232.883 202.436 238.237 202.436C241.099 202.448 243.926 203.268 246.53 204.84C246.924 202.623 247.484 200.505 248.196 198.475C244.358 196.293 240.17 195.407 236.009 195.895C231.848 196.383 227.844 198.231 224.355 201.271C220.867 204.312 218.003 208.451 216.021 213.318C214.04 218.184 213.002 223.625 213 229.153V229.153ZM238.237 149C234.221 149 230.37 151.111 227.53 154.869C224.691 158.627 223.095 163.724 223.095 169.038C223.095 174.353 224.691 179.45 227.53 183.208C230.37 186.966 234.221 189.077 238.237 189.077C242.253 189.077 246.105 186.966 248.944 183.208C251.784 179.45 253.38 174.353 253.38 169.038C253.38 163.724 251.784 158.627 248.944 154.869C246.105 151.111 242.253 149 238.237 149V149ZM238.237 182.424C235.554 182.424 232.981 181.013 231.083 178.502C229.186 175.992 228.12 172.586 228.12 169.035C228.12 165.484 229.186 162.079 231.083 159.568C232.981 157.057 235.554 155.646 238.237 155.646C240.921 155.646 243.494 157.057 245.392 159.568C247.289 162.079 248.355 165.484 248.355 169.035C248.355 172.586 247.289 175.992 245.392 178.502C243.494 181.013 240.921 182.424 238.237 182.424V182.424ZM290.811 206.931C290.594 205.314 289.902 204.279 289.059 204.299H288.883C285.991 204.299 283.634 201 283.634 196.938C283.634 195.609 284.088 194.133 284.088 194.126C284.306 193.432 284.346 192.662 284.202 191.935C284.058 191.207 283.738 190.562 283.29 190.099L283.24 190.045L278.192 186.118L278.142 186.084C277.66 185.817 277.128 185.75 276.616 185.893C276.105 186.037 275.639 186.383 275.28 186.886C274.664 187.774 272.721 190.085 271.156 190.085C269.572 190.085 267.618 187.721 266.997 186.819C266.751 186.477 266.455 186.205 266.127 186.019C265.799 185.833 265.446 185.737 265.089 185.737C264.761 185.737 264.437 185.826 264.135 185.998L264.08 186.038L258.851 190.052L258.8 190.105C258.353 190.567 258.032 191.21 257.887 191.937C257.742 192.663 257.781 193.432 257.998 194.126C258.003 194.14 258.457 195.616 258.457 196.945C258.457 201 256.1 204.306 253.208 204.306H253.031C252.188 204.272 251.497 205.314 251.28 206.931C251.26 207.065 250.856 210.09 250.856 212.475C250.856 214.859 251.26 217.899 251.28 218.025C251.497 219.622 252.168 220.657 252.996 220.657H253.208C256.1 220.657 258.457 223.957 258.457 228.018C258.457 229.354 258.003 230.817 258.003 230.83C257.785 231.524 257.745 232.293 257.888 233.02C258.031 233.747 258.35 234.392 258.795 234.858L258.846 234.904L263.797 238.785L263.848 238.819C264.332 239.096 264.869 239.164 265.384 239.013C265.899 238.861 266.365 238.499 266.715 237.977C267.295 237.095 269.319 234.57 270.934 234.57C272.565 234.57 274.558 237.075 275.184 238.044C275.423 238.403 275.718 238.691 276.048 238.888C276.377 239.085 276.735 239.187 277.097 239.186C277.426 239.187 277.751 239.096 278.051 238.919L278.102 238.885L283.24 234.904L283.29 234.858C283.738 234.396 284.059 233.753 284.204 233.026C284.349 232.3 284.31 231.531 284.093 230.837C284.088 230.817 283.634 229.354 283.634 228.018C283.634 223.964 285.991 220.657 288.883 220.657H289.059C289.902 220.677 290.594 219.649 290.811 218.025C290.831 217.892 291.235 214.859 291.235 212.475C291.235 210.09 290.831 207.058 290.811 206.931V206.931ZM285.203 216.436C281.943 216.67 279.338 220.484 279.338 225.139C279.338 226.689 279.767 228.178 279.863 228.492L275.972 231.518H275.967C275.922 231.515 275.879 231.499 275.84 231.471C275.401 230.812 274.918 230.207 274.397 229.661C273.185 228.399 272.03 227.751 270.965 227.751C269.915 227.751 268.769 228.385 267.563 229.621C266.755 230.456 266.195 231.291 266.124 231.398C266.09 231.428 266.049 231.444 266.008 231.445H265.998L262.243 228.492C262.334 228.192 262.768 226.695 262.768 225.132C262.768 220.49 260.163 216.67 256.903 216.436C256.852 216.068 256.595 214.018 256.595 212.475C256.595 210.932 256.852 208.881 256.903 208.514C260.163 208.28 262.768 204.466 262.768 199.811C262.768 198.261 262.344 196.771 262.243 196.458L266.21 193.392H266.225C266.291 193.392 266.351 193.432 266.371 193.445C266.437 193.545 266.992 194.353 267.795 195.155C268.981 196.351 270.107 196.958 271.141 196.958C272.156 196.958 273.276 196.357 274.452 195.195C275.25 194.4 275.81 193.612 275.871 193.519C275.915 193.483 275.965 193.465 276.017 193.465H276.032L279.863 196.458C279.542 197.526 279.364 198.661 279.338 199.811C279.338 204.46 281.943 208.28 285.203 208.514C285.254 208.881 285.511 210.932 285.511 212.475C285.511 214.018 285.249 216.068 285.203 216.436V216.436Z" fill="#D8DDE3"/>
<path d="M265.347 212.454C265.347 214.489 265.947 216.442 267.016 217.881C268.085 219.32 269.534 220.129 271.045 220.129C272.557 220.129 274.006 219.32 275.075 217.881C276.144 216.442 276.744 214.489 276.744 212.454C276.744 210.419 276.144 208.466 275.075 207.027C274.006 205.588 272.557 204.779 271.045 204.779C269.534 204.779 268.085 205.588 267.016 207.027C265.947 208.466 265.347 210.419 265.347 212.454V212.454Z" fill="#D8DDE3"/>
<path d="M162.937 303.5C164.537 291.9 158.77 288.333 155.937 288L141.937 316L140.937 320L146.937 328L160.937 316V307L162.937 303.5Z" fill="#FDD4B8"/>
<path d="M157.625 282.068C156.425 276.468 150.458 275.734 147.625 276.068C143.225 276.467 135.458 285.568 132.125 290.068C130.458 294.068 127.625 303.168 129.625 307.568C132.125 313.068 139.125 318.068 147.625 318.568C154.425 318.968 155.458 316.068 155.125 314.568C153.958 313.235 152.425 309.968 155.625 307.568C158.825 305.168 158.291 300.568 157.625 298.568C158.125 295.401 158.825 287.668 157.625 282.068Z" fill="#2F3650"/>
<path d="M183.937 285.148C183.537 286.748 177.103 298.481 173.937 304.148C175.27 307.481 177.837 314.848 177.437 317.648C176.937 321.148 182.937 320.648 183.937 320.148C184.937 319.648 187.937 312.148 188.437 311.648C188.937 311.148 192.437 291.148 193.937 289.148C198.937 282.148 198.937 266.148 199.437 262.648C199.937 259.148 202.437 255.648 208.437 251.148C214.437 246.648 209.937 239.648 206.937 237.648C203.937 235.648 198.437 238.648 197.437 241.648C196.637 244.048 194.77 248.314 193.937 250.148C194.103 251.648 194.037 255.448 192.437 258.648C184.937 270.648 184.437 283.148 183.937 285.148Z" fill="#FCD4BA"/>
<path d="M123.629 246.727C119.129 250.727 119.629 261.727 119.629 262.227C120.13 264.227 121.129 267.727 120.129 269.227C119.329 270.427 115.796 279.06 114.129 283.227C112.629 287.06 109.329 296.227 108.129 302.227C106.929 308.227 114.437 324.5 116.937 331.5L120.129 323.727C121.296 323.06 123.729 321.227 124.129 319.227C124.629 316.727 122.629 311.727 122.129 310.227C121.629 308.727 117.629 303.227 118.629 299.727C119.629 296.227 126.129 275.227 126.629 271.227C127.129 267.227 128.129 266.727 130.629 262.727C135.629 254.727 132.629 249.727 131.629 248.227C130.629 246.727 128.129 242.727 123.629 246.727Z" fill="#FDDDC6"/>
<path d="M159.493 543C154.693 542.6 153.493 540.5 153.493 539.5C147.493 539.333 135.393 539 134.993 539C134.493 539 130.493 545 132.493 548C134.493 551 146.493 553.5 157.493 554C168.493 554.5 170.993 549 172.993 543C174.993 537 165.493 543.5 159.493 543Z" fill="#2E3E60"/>
<path d="M175.401 557.811C165.664 557.143 163.005 550.058 163.179 547.558L181.505 545.475C186.054 545.425 193.046 546.303 193.437 551C193.937 557 185.437 558.5 175.401 557.811Z" fill="#2E3D5E"/>
<path d="M150.283 397C143.883 397 132.283 400.333 127.283 402C118.783 436 125.283 460 125.783 465C126.283 470 129.783 493 127.283 502C124.783 511 128.283 523.5 127.283 531C126.283 538.5 130.283 539 129.783 541C129.283 543 127.783 544.5 129.783 545.5C145.283 552 154.283 540 154.783 538.5C155.283 537 152.283 531 151.783 524.5C151.283 518 146.783 512.5 145.783 508.5C144.783 504.5 144.783 496.5 145.783 494C146.783 491.5 148.283 487 147.283 484C146.283 481 146.783 481 147.783 478C149.783 470.8 151.616 447.333 152.283 436.5C153.116 434.333 154.883 431.8 155.283 439C155.683 446.2 158.116 456.667 159.283 461C164.283 471 160.783 475.929 162.283 480C165.783 489.5 162.283 503.5 160.783 509C159.283 514.5 160.783 538 160.783 543C160.783 548 157.283 549.5 158.783 550C172.283 555.5 175.283 551.5 181.283 547C186.083 543.4 184.95 541.5 183.783 541C182.95 540.833 181.683 537.5 183.283 525.5C185.283 510.5 183.283 502.5 182.283 494.5C181.283 486.5 182.783 464.5 183.283 462C186.083 455.6 186.116 450.333 185.783 448.5C184.616 443.833 182.483 432.6 183.283 425C184.083 417.4 180.283 401.833 178.283 395C176.783 397 158.283 397 150.283 397Z" fill="#247BCA"/>
<path d="M175.052 300.61C173.852 301.81 167.219 305.777 164.052 307.61C163.552 308.61 161.552 311.609 160.052 312.609C158.852 313.409 156.552 315.609 155.552 316.609C152.719 321.443 146.837 329.4 146.437 325C146.037 320.6 143.052 319.443 141.552 319.109C140.052 319.276 136.452 319.209 134.052 317.609C131.052 315.609 127.052 311.109 123.052 312.109C119.052 313.109 113.552 331.109 117.052 334.109C125.552 342.609 120.052 343.609 123.052 349.609C132.552 373.609 130.052 384.109 128.052 387.109C126.052 390.109 124.552 408.109 128.052 403.109C131.552 398.109 175.052 399.109 177.552 396.609C180.052 394.109 186.552 393.109 189.552 389.609C192.552 386.109 186.052 371.609 184.552 366.609C183.052 361.609 179.552 329.109 182.052 327.109C184.052 325.509 184.552 323.443 184.552 322.609C184.052 319.443 182.652 311.81 181.052 306.61C179.052 300.11 176.552 299.11 175.052 300.61Z" fill="#439CEC"/>
<path d="M270.75 658.164H278.063C278.125 655.367 278.172 652.117 278.204 648.414H282C281.954 652.148 281.891 655.398 281.813 658.164H296.766C296.485 669.102 296.172 678.32 295.829 685.82C295.485 690.727 293.266 693.227 289.172 693.32C286.454 693.352 283.454 693.289 280.172 693.133C279.954 691.695 279.704 690.289 279.422 688.914C282.672 689.289 285.641 689.461 288.329 689.43C290.672 689.367 291.922 687.945 292.079 685.164C292.485 677.82 292.75 670.023 292.875 661.773H281.719C281.657 664.242 281.579 666.148 281.485 667.492C280.891 679.836 275.907 688.789 266.532 694.352C265.844 693.383 264.938 692.32 263.813 691.164C272.563 686.289 277.204 678.305 277.735 667.211C277.829 665.758 277.907 663.945 277.969 661.773H270.75V658.164ZM252.61 681.836C255.297 681.242 257.891 680.656 260.391 680.078V656.992H253.266V653.336H272.063V656.992H264.188V679.164C266.891 678.492 269.469 677.82 271.922 677.148C271.985 678.773 272.094 680.023 272.25 680.898C266.719 682.273 260.532 683.914 253.688 685.82L252.61 681.836ZM307.125 693.695H303.469V666.039H322.5V688.211C322.5 691.586 320.938 693.273 317.813 693.273C316.438 693.305 314.672 693.32 312.516 693.32C312.36 692.352 312.125 691.164 311.813 689.758C313.782 689.914 315.36 689.992 316.547 689.992C318.079 689.992 318.844 689.195 318.844 687.602V683.711H307.125V693.695ZM327.047 671.102H330.704V678.836C335.141 677.18 339.782 675.008 344.625 672.32L346.735 675.555C341.625 678.242 336.282 680.625 330.704 682.703V686.758C330.704 688.727 331.469 689.711 333 689.711H339.891C341.485 689.711 342.407 688.945 342.657 687.414C342.875 686.039 343.063 683.992 343.219 681.273C344.407 681.742 345.625 682.18 346.875 682.586C346.625 685.336 346.36 687.414 346.079 688.82C345.672 691.57 343.719 692.945 340.219 692.945H332.391C328.829 692.945 327.047 691.117 327.047 687.461V671.102ZM327.141 648.227H330.797V656.266C335.094 654.562 339.36 652.508 343.594 650.102L345.704 653.336C340.829 655.805 335.86 658.062 330.797 660.109V662.805C330.797 664.898 331.625 665.945 333.282 665.945H339.235C341.204 665.945 342.313 665.133 342.563 663.508C342.782 662.164 342.969 660.211 343.125 657.648C344.313 658.117 345.532 658.57 346.782 659.008C346.532 661.508 346.266 663.539 345.985 665.102C345.516 667.82 343.407 669.18 339.657 669.18H332.813C329.032 669.18 327.141 667.305 327.141 663.555V648.227ZM318.469 652.211C321.313 655.898 323.782 659.445 325.875 662.852C324.688 663.664 323.61 664.383 322.641 665.008C322.032 663.93 321.383 662.828 320.696 661.703C313.055 662.266 306.938 662.773 302.344 663.227L300.844 659.289C302.219 658.539 303.735 657.133 305.391 655.07C307.11 652.82 308.797 650.305 310.454 647.523L314.157 648.883C311.563 652.633 308.829 656.18 305.954 659.523C310.641 659.227 314.899 658.922 318.727 658.609C317.743 657.125 316.688 655.602 315.563 654.039L318.469 652.211ZM307.125 680.898H318.844V676.352H307.125V680.898ZM318.844 669.039H307.125V673.539H318.844V669.039ZM363.563 680.43H375.563V676.352H365.157V673.539H375.563V669.461H365.813V666.648H375.563V662.57H363.375V659.664H375.563V655.586H365.813V652.773H375.563V648.18H379.032V652.773H389.907V659.664H394.829V662.57H389.907V670.727H386.532V669.461H379.032V673.539H390.844V676.352H379.032V680.43H393V683.242H379.032V688.07H375.563V683.242H363.563V680.43ZM352.5 672.508C353.438 676.32 354.75 679.453 356.438 681.906C358.11 678.469 359.157 674.508 359.579 670.023H350.204V666.602L358.829 655.961H349.266V652.773H363.141V655.961L354.329 666.836H363.094V669.602C362.516 675.398 361.102 680.422 358.852 684.672C362.258 687.625 367.547 689.117 374.719 689.148C380.657 689.273 387.547 689.195 395.391 688.914C394.86 690.195 394.344 691.43 393.844 692.617C386.688 692.586 379.766 692.555 373.079 692.523C366.11 692.523 360.766 690.898 357.047 687.648C355.282 690.211 353.141 692.445 350.625 694.352C350.125 693.445 349.485 692.43 348.704 691.305C351.047 689.523 353.016 687.445 354.61 685.07C352.516 682.414 350.782 678.617 349.407 673.68L352.5 672.508ZM379.032 666.648H386.532V662.57H379.032V666.648ZM386.532 655.586H379.032V659.664H386.532V655.586ZM412.735 672.133V668.898H438.282V672.133C435.813 677.555 432.766 681.805 429.141 684.883C433.125 687.508 437.922 689.336 443.532 690.367C442.438 691.773 441.485 693.039 440.672 694.164C435.094 692.555 430.235 690.219 426.094 687.156C421.844 690.031 416.469 692.492 409.969 694.539C409.157 693.383 408.344 692.258 407.532 691.164C413.735 689.492 418.922 687.359 423.094 684.766C419.469 681.266 416.836 677.055 415.196 672.133H412.735ZM432.422 653.852H420.704V655.211C420.704 660.961 418.079 665.242 412.829 668.055C411.985 667.023 411.079 666.055 410.11 665.148C414.735 662.773 417.047 659.492 417.047 655.305V650.383H436.079V659.945C436.079 661.352 436.797 662.055 438.235 662.055H443.391C443.235 663.336 443.11 664.492 443.016 665.523H436.829C433.891 665.523 432.422 663.898 432.422 660.648V653.852ZM412.875 680.289C412.938 681.758 413.047 683.148 413.204 684.461C408.922 687.242 405.735 689.477 403.641 691.164L401.391 688.07C402.454 687.039 402.985 685.633 402.985 683.852V667.164H397.032V663.789H406.547V684.602C408.579 683.258 410.688 681.82 412.875 680.289ZM403.407 649.539C405.813 651.914 408.11 654.32 410.297 656.758L407.016 659.477C404.735 656.539 402.594 654.039 400.594 651.977L403.407 649.539ZM418.735 672.133C420.313 676.117 422.79 679.625 426.165 682.656C429.477 680.094 432.125 676.586 434.11 672.133H418.735ZM447.938 658.211H465.985V647.992H470.016V658.211H488.25V679.586H484.407V677.055H470.016V694.492H465.985V677.055H451.782V679.586H447.938V658.211ZM484.407 661.68H470.016V673.586H484.407V661.68ZM451.782 673.586H465.985V661.68H451.782V673.586ZM494.79 672.156C494.79 671.328 495.086 670.625 495.68 670.047C496.274 669.453 496.985 669.156 497.813 669.156C498.641 669.156 499.352 669.445 499.946 670.023C500.555 670.602 500.86 671.312 500.86 672.156C500.86 672.969 500.563 673.672 499.969 674.266C499.391 674.859 498.665 675.156 497.79 675.156C496.93 675.156 496.211 674.859 495.633 674.266C495.071 673.672 494.79 672.969 494.79 672.156ZM506.368 672.156C506.368 671.328 506.665 670.625 507.258 670.047C507.852 669.453 508.563 669.156 509.391 669.156C510.219 669.156 510.93 669.445 511.524 670.023C512.133 670.602 512.438 671.312 512.438 672.156C512.438 672.969 512.141 673.672 511.547 674.266C510.969 674.859 510.243 675.156 509.368 675.156C508.508 675.156 507.79 674.859 507.211 674.266C506.649 673.672 506.368 672.969 506.368 672.156ZM517.946 672.156C517.946 671.328 518.243 670.625 518.836 670.047C519.43 669.453 520.141 669.156 520.969 669.156C521.797 669.156 522.508 669.445 523.102 670.023C523.711 670.602 524.016 671.312 524.016 672.156C524.016 672.969 523.719 673.672 523.125 674.266C522.547 674.859 521.821 675.156 520.946 675.156C520.086 675.156 519.368 674.859 518.79 674.266C518.227 673.672 517.946 672.969 517.946 672.156ZM529.524 672.156C529.524 671.328 529.821 670.625 530.415 670.047C531.008 669.453 531.719 669.156 532.547 669.156C533.375 669.156 534.086 669.445 534.68 670.023C535.29 670.602 535.594 671.312 535.594 672.156C535.594 672.969 535.297 673.672 534.704 674.266C534.125 674.859 533.399 675.156 532.524 675.156C531.665 675.156 530.946 674.859 530.368 674.266C529.805 673.672 529.524 672.969 529.524 672.156ZM541.102 672.156C541.102 671.328 541.399 670.625 541.993 670.047C542.586 669.453 543.297 669.156 544.125 669.156C544.954 669.156 545.665 669.445 546.258 670.023C546.868 670.602 547.172 671.312 547.172 672.156C547.172 672.969 546.875 673.672 546.282 674.266C545.704 674.859 544.977 675.156 544.102 675.156C543.243 675.156 542.524 674.859 541.946 674.266C541.383 673.672 541.102 672.969 541.102 672.156Z" fill="black" fill-opacity="0.45"/>
<ellipse cx="703" cy="350" rx="36" ry="90" fill="url(#paint3_linear_995_2841)"/>
<rect x="699.007" y="285" width="9" height="197" rx="4.5" fill="#DEDEE6"/>
<rect x="675" y="316.363" width="9" height="40" rx="4.5" transform="rotate(-45 675 316.363)" fill="#DDDDE5"/>
<rect x="675" y="365.363" width="9" height="40" rx="4.5" transform="rotate(-45 675 365.363)" fill="#DDDDE5"/>
<rect x="726.291" y="324" width="9" height="40" rx="4.5" transform="rotate(45 726.291 324)" fill="#DDDDE5"/>
<rect x="726.291" y="324" width="9" height="40" rx="4.5" transform="rotate(45 726.291 324)" fill="#DDDDE5"/>
<ellipse cx="591.541" cy="378.351" rx="22.5405" ry="56.3514" fill="url(#paint4_linear_995_2841)"/>
<rect x="589.04" y="337.652" width="5.63514" height="123.347" rx="2.81757" fill="#DEDEE6"/>
<rect x="574.01" y="357.291" width="5.63514" height="25.045" rx="2.81757" transform="rotate(-45 574.01 357.291)" fill="#DDDDE5"/>
<rect x="574.01" y="387.971" width="5.63514" height="25.045" rx="2.81757" transform="rotate(-45 574.01 387.971)" fill="#DDDDE5"/>
<rect x="606.124" y="362.072" width="5.63514" height="25.045" rx="2.81757" transform="rotate(45 606.124 362.072)" fill="#DDDDE5"/>
<rect x="606.124" y="362.072" width="5.63514" height="25.045" rx="2.81757" transform="rotate(45 606.124 362.072)" fill="#DDDDE5"/>
<defs>
<linearGradient id="paint0_linear_995_2841" x1="404.285" y1="371" x2="404.285" y2="636.641" gradientUnits="userSpaceOnUse">
<stop stop-color="#E1E1E9"/>
<stop offset="1" stop-color="#F8F8FA" stop-opacity="0"/>
</linearGradient>
<linearGradient id="paint1_linear_995_2841" x1="100.541" y1="362" x2="100.541" y2="474.703" gradientUnits="userSpaceOnUse">
<stop stop-color="#DEDEE6"/>
<stop offset="1" stop-color="#FCFCFE"/>
</linearGradient>
<linearGradient id="paint2_linear_995_2841" x1="231.325" y1="348" x2="231.325" y2="409.622" gradientUnits="userSpaceOnUse">
<stop stop-color="#DEDEE6"/>
<stop offset="1" stop-color="#FCFCFE"/>
</linearGradient>
<linearGradient id="paint3_linear_995_2841" x1="703" y1="260" x2="703" y2="440" gradientUnits="userSpaceOnUse">
<stop stop-color="#DEDEE6"/>
<stop offset="1" stop-color="#FCFCFE"/>
</linearGradient>
<linearGradient id="paint4_linear_995_2841" x1="591.541" y1="322" x2="591.541" y2="434.703" gradientUnits="userSpaceOnUse">
<stop stop-color="#DEDEE6"/>
<stop offset="1" stop-color="#FCFCFE"/>
</linearGradient>
</defs>
</svg>
