<svg width="30" height="32" viewBox="0 0 30 32" fill="none" xmlns="http://www.w3.org/2000/svg">
<path d="M19.7026 27.0779L26.8019 17.6641L30 20.0757L22.9013 29.4896L19.7026 27.0779V27.0779ZM19.1446 31.4125L19.1371 27.837L22.3353 30.2431L19.1446 31.4125Z" fill="#109AF9"/>
<path d="M21.8528 20.1039H16.1277V20.1188H4.13343L0 24.1246V31.6075H17.0481V27.8359H3.77165V25.7237L5.66525 23.8905H17.0481V23.8755H19.1453L21.8528 20.1039V20.1039ZM13.721 18.7383C8.65666 18.7383 4.55126 14.6348 4.54814 9.57044C4.54565 4.50609 8.6467 0.398188 13.7111 0.392584C18.7748 0.38698 22.8852 4.48616 22.8939 9.54989C22.8958 11.9846 21.9306 14.3203 20.2107 16.0433C19.3591 16.8968 18.3476 17.5742 17.234 18.0366C16.1205 18.499 14.9268 18.7375 13.721 18.7383ZM13.721 4.17232C10.7383 4.17232 8.31979 6.59086 8.31979 9.57355C8.31979 12.5562 10.7377 14.9748 13.721 14.9748C16.7037 14.9748 19.1223 12.5569 19.1223 9.57355C19.1241 8.86302 18.9858 8.1591 18.7152 7.50208C18.4447 6.84507 18.0472 6.24785 17.5456 5.74462C17.0439 5.24144 16.4478 4.84223 15.7915 4.56986C15.1352 4.29748 14.4316 4.15731 13.721 4.15738V4.17232V4.17232Z" fill="#109AF9"/>
<path d="M13.7209 2.27344C11.7881 2.27344 9.93498 3.04122 8.56817 4.4074C7.89151 5.08407 7.35478 5.8874 6.98864 6.77152C6.62249 7.65565 6.43409 8.60324 6.4342 9.56018H21.0077C21.0077 7.62797 20.2399 5.77421 18.8737 4.4074C17.5069 3.04118 15.6535 2.27361 13.7209 2.27344V2.27344Z" fill="#109AF9"/>
<path d="M0.572876 6.91211H19.1372V10.6838H0.572876V6.91211Z" fill="#109AF9"/>
</svg>
