<svg width="25" height="30" viewBox="0 0 25 30" fill="none" xmlns="http://www.w3.org/2000/svg">
<path d="M23.6355 3.84415L12.5562 0.0684708C12.4226 0.0228236 12.2432 0 12.0639 0C11.8846 0 11.7052 0.0228236 11.5716 0.0684708L0.492338 3.84415C0.221715 3.93544 0 4.24845 0 4.53538V20.2641C0 20.551 0.18585 20.9292 0.410825 21.1086L11.6498 29.8663C11.7639 29.9544 11.9107 30 12.0606 30C12.2106 30 12.3606 29.9544 12.4715 29.8663L23.7105 21.1086C23.9354 20.9325 24.1213 20.5543 24.1213 20.2641V4.53538C24.1278 4.24845 23.9061 3.9387 23.6355 3.84415ZM21.7802 19.6381L12.0639 27.209L2.34757 19.6381V5.69612L12.0639 2.38344L21.7802 5.69612V19.6381Z" fill="white"/>
<path d="M9.40659 8.67297H7.90676C7.85133 8.67297 7.79916 8.68602 7.75025 8.7121C7.59375 8.79687 7.53506 8.99576 7.61983 9.15553L10.4891 14.4082H9.01533C8.836 14.4082 8.68928 14.5549 8.68928 14.7343V15.4288C8.68928 15.6081 8.836 15.7548 9.01533 15.7548H11.0727V16.7232H9.01533C8.836 16.7232 8.68928 16.8699 8.68928 17.0492V17.7437C8.68928 17.9231 8.836 18.0698 9.01533 18.0698H11.0727V19.7587C11.0727 19.9381 11.2194 20.0848 11.3988 20.0848H12.7454C12.9247 20.0848 13.0714 19.9381 13.0714 19.7587V18.0698H15.1386C15.3179 18.0698 15.4646 17.9231 15.4646 17.7437V17.0492C15.4646 16.8699 15.3179 16.7232 15.1386 16.7232H13.0714V15.7548H15.1386C15.3179 15.7548 15.4646 15.6081 15.4646 15.4288V14.7343C15.4646 14.5549 15.3179 14.4082 15.1386 14.4082H13.6485L16.508 9.15553C16.5341 9.10662 16.5471 9.05445 16.5471 8.99903C16.5471 8.8197 16.4004 8.67297 16.2211 8.67297H14.7538C14.6299 8.67297 14.5191 8.74144 14.4637 8.8523L12.077 13.5572L9.70004 8.8523C9.64461 8.74144 9.53049 8.67297 9.40659 8.67297Z" fill="white"/>
</svg>
