<svg width="30" height="30" viewBox="0 0 30 30" fill="none" xmlns="http://www.w3.org/2000/svg">
<path d="M27.4219 10.957V7.93945C27.4219 5.75514 25.6512 3.98438 23.4668 3.98438H23.0273V6.03516H23.4668C24.5186 6.03516 25.3711 6.88772 25.3711 7.93945V10.957H23.877L26.3965 14.4727L28.916 10.957H27.4219Z" fill="#109AF9"/>
<path d="M2.57812 9.02344H6.09375V10.5469H2.57812V9.02344ZM10.7227 25.2539H14.2383V26.7773H10.7227V25.2539ZM6.97266 9.02344H10.4883V10.5469H6.97266V9.02344ZM15.1172 25.2539H18.6328V26.7773H15.1172V25.2539ZM11.3672 9.02344H14.8828V10.5469H11.3672V9.02344ZM19.5117 25.2539H23.0273V26.7773H19.5117V25.2539ZM15.7617 9.02344H19.2773V10.5469H15.7617V9.02344ZM23.9062 25.2539H27.4219V26.7773H23.9062V25.2539Z" fill="#109AF9"/>
<path d="M20.332 3.36914V1.52344H1.52344V3.36914H20.332ZM20.332 6.35742H1.52344V12.2461H20.332V6.35742ZM0.996094 0H20.8594C21.4095 0 21.8555 0.445957 21.8555 0.996094V12.7734C21.8555 13.3236 21.4095 13.7695 20.8594 13.7695H0.996094C0.445957 13.7695 0 13.3236 0 12.7734V0.996094C0 0.445957 0.445957 0 0.996094 0ZM28.4766 19.5996V17.7539H9.66797V19.5996H28.4766ZM28.4766 22.5879H9.66797V28.4766H28.4766V22.5879ZM9.14062 16.2305H29.0039C29.554 16.2305 30 16.6764 30 17.2266V29.0039C30 29.554 29.554 30 29.0039 30H9.14062C8.59049 30 8.14453 29.554 8.14453 29.0039V17.2266C8.14453 16.6764 8.59049 16.2305 9.14062 16.2305ZM4.62891 19.043H6.12305L3.60352 15.5273L1.08398 19.043H2.57812V22.0605C2.57812 24.2449 4.34889 26.0156 6.5332 26.0156H6.97269V23.9648H6.5332C5.48147 23.9648 4.62891 23.1123 4.62891 22.0605V19.043Z" fill="#109AF9"/>
</svg>
