<svg width="29" height="30" viewBox="0 0 29 30" fill="none" xmlns="http://www.w3.org/2000/svg">
<path d="M6.44543 5.05589H20.0697C20.7237 5.05589 21.2585 5.5899 21.2585 6.24465C21.2585 6.89872 20.7244 7.43342 20.0697 7.43342H6.44543C6.13037 7.43269 5.82842 7.30721 5.60565 7.08443C5.38287 6.86165 5.25739 6.55971 5.25666 6.24465C5.25739 5.9296 5.38287 5.62765 5.60565 5.40487C5.82842 5.18209 6.13037 5.05661 6.44543 5.05589ZM6.44543 16.4496H13.7919C14.446 16.4496 14.9807 16.9836 14.9807 17.6383C14.9807 18.2924 14.446 18.8271 13.7919 18.8271H6.44543C6.13037 18.8264 5.82842 18.7009 5.60565 18.4781C5.38287 18.2553 5.25739 17.9534 5.25666 17.6383C5.25721 17.3232 5.3826 17.021 5.6054 16.7981C5.8282 16.5752 6.13025 16.4496 6.44543 16.4489V16.4496ZM6.44543 22.1264H9.6778C10.3319 22.1264 10.8666 22.6604 10.8666 23.3152C10.8666 23.9692 10.3319 24.5039 9.6778 24.5039H6.44543C6.13037 24.5032 5.82842 24.3777 5.60565 24.1549C5.38287 23.9322 5.25739 23.6302 5.25666 23.3152C5.25847 23.0004 5.3843 22.6991 5.60684 22.4766C5.82939 22.254 6.1307 22.1282 6.44543 22.1264ZM6.44543 11.2398H20.0697C20.7237 11.2398 21.2585 11.7745 21.2585 12.4286C21.2585 13.0833 20.7244 13.6174 20.0697 13.6174H6.44543C6.13037 13.6166 5.82842 13.4912 5.60565 13.2684C5.38287 13.0456 5.25739 12.7436 5.25666 12.4286C5.25739 12.1135 5.38287 11.8116 5.60565 11.5888C5.82842 11.366 6.13037 11.2406 6.44543 11.2398ZM2.47137 30H14.3998C14.6679 29.9931 14.9227 29.8817 15.1099 29.6896C15.2971 29.4975 15.4018 29.2399 15.4018 28.9716C15.4018 28.7034 15.2971 28.4458 15.1099 28.2537C14.9227 28.0616 14.6679 27.9502 14.3998 27.9433H2.47137C2.24369 27.9433 2.0574 27.7563 2.0574 27.5293V2.46378C2.0574 2.23748 2.24369 2.04981 2.47137 2.04981H24.05C24.2776 2.04981 24.4639 2.23748 24.4639 2.46378V11.9677C24.4639 12.2405 24.5723 12.5022 24.7652 12.6951C24.9581 12.888 25.2198 12.9964 25.4926 12.9964C25.7654 12.9964 26.0271 12.888 26.22 12.6951C26.4129 12.5022 26.5213 12.2405 26.5213 11.9677V2.46447C26.5195 1.81141 26.2593 1.18562 25.7975 0.723837C25.3357 0.262054 24.7099 0.00182063 24.0569 0H2.47137C1.11563 0 0 1.10873 0 2.46378V27.5348C0 28.8906 1.11563 29.9993 2.47137 29.9993V30ZM26.1005 29.3259L21.8994 24.0762L20.3567 25.5457L16.3495 21.3047L20.5837 17.2644L24.5909 21.5048L23.1213 22.9074L27.9302 27.5824C28.1597 27.8268 28.2836 28.1518 28.2748 28.4869C28.266 28.8221 28.1253 29.1402 27.8833 29.3722C27.7634 29.4866 27.6221 29.5762 27.4674 29.6358C27.3128 29.6955 27.1479 29.7239 26.9823 29.7196C26.8166 29.7153 26.6534 29.6784 26.5021 29.6108C26.3507 29.5432 26.2143 29.4464 26.1005 29.3259ZM25.3125 20.029L22.1002 16.5765C22.0285 16.5007 21.9725 16.4115 21.9353 16.314C21.8982 16.2165 21.8806 16.1127 21.8837 16.0084C21.8868 15.9041 21.9104 15.8014 21.9532 15.7063C21.9961 15.6112 22.0573 15.5254 22.1333 15.454C22.208 15.3819 22.2963 15.3254 22.393 15.2877C22.4897 15.2501 22.593 15.2319 22.6967 15.2344C22.8005 15.2369 22.9027 15.26 22.9975 15.3023C23.0923 15.3446 23.1778 15.4053 23.2489 15.4809L26.4613 18.934C26.5328 19.0099 26.5887 19.0991 26.6258 19.1965C26.6628 19.294 26.6802 19.3978 26.6771 19.502C26.674 19.6062 26.6503 19.7087 26.6075 19.8038C26.5646 19.8988 26.5035 19.9845 26.4275 20.0559C26.2759 20.1998 26.0734 20.2778 25.8645 20.2728C25.6555 20.2677 25.457 20.1801 25.3125 20.029ZM15.6216 22.7874L18.8409 26.2398C18.9126 26.3157 18.9685 26.4049 19.0056 26.5024C19.0427 26.5999 19.0602 26.7038 19.057 26.8081C19.0539 26.9124 19.0302 27.015 18.9873 27.1101C18.9444 27.2053 18.8832 27.291 18.8071 27.3624C18.6555 27.5063 18.453 27.5843 18.2441 27.5793C18.0351 27.5742 17.8366 27.4865 17.6922 27.3354L14.4729 23.8823C14.4013 23.8065 14.3454 23.7174 14.3083 23.6199C14.2712 23.5225 14.2537 23.4187 14.2567 23.3145C14.2598 23.2103 14.2834 23.1077 14.3262 23.0127C14.369 22.9176 14.4301 22.8319 14.506 22.7605C14.5807 22.6884 14.669 22.6319 14.7657 22.5942C14.8624 22.5565 14.9657 22.5384 15.0694 22.5409C15.1732 22.5434 15.2755 22.5665 15.3702 22.6088C15.465 22.6511 15.5505 22.7118 15.6216 22.7874Z" fill="#109AF9"/>
</svg>
