<svg width="30" height="32" viewBox="0 0 30 32" fill="none" xmlns="http://www.w3.org/2000/svg">
<path d="M5.72135 3.24957C5.83393 2.42342 6.24217 1.66609 6.87042 1.11792C7.49868 0.569746 8.30434 0.267898 9.13813 0.268311H18.8136C19.6473 0.268039 20.4528 0.569951 21.081 1.11811C21.7091 1.66627 22.1172 2.42352 22.2298 3.24957H24.5045C25.4181 3.24895 26.2944 3.61122 26.9409 4.25669C27.5874 4.90216 27.951 5.77798 27.9517 6.69152V16.3459C27.9517 16.6564 27.8284 16.9542 27.6088 17.1738C27.3893 17.3933 27.0915 17.5167 26.781 17.5167C26.4705 17.5167 26.1727 17.3933 25.9532 17.1738C25.7336 16.9542 25.6103 16.6564 25.6103 16.3459V6.6921C25.6103 6.08625 25.1174 5.59162 24.5045 5.59162H22.1795C22.0086 6.35695 21.5821 7.04119 20.97 7.53146C20.358 8.02172 19.5972 8.28871 18.813 8.28839H9.13754C8.3534 8.28855 7.59262 8.02141 6.98073 7.53104C6.36883 7.04067 5.94237 6.35637 5.77169 5.59103H3.44663C3.15419 5.59056 2.87352 5.70621 2.66629 5.91256C2.45907 6.1189 2.34223 6.39908 2.34146 6.69152V27.7043C2.34146 28.3102 2.83433 28.8054 3.44721 28.8054H14.7805C15.091 28.8054 15.3887 28.9288 15.6083 29.1483C15.8278 29.3679 15.9512 29.6656 15.9512 29.9761C15.9512 30.2866 15.8278 30.5844 15.6083 30.804C15.3887 31.0235 15.091 31.1469 14.7805 31.1469H3.44721C2.99482 31.1472 2.54681 31.0584 2.12874 30.8855C1.71067 30.7127 1.33074 30.4592 1.01063 30.1396C0.690531 29.8199 0.436526 29.4403 0.263121 29.0225C0.0897159 28.6046 0.00030738 28.1567 0 27.7043V6.69152C0 4.78791 1.54536 3.24957 3.44721 3.24957H5.72194H5.72135ZM9.13813 2.60977C8.84558 2.60915 8.56477 2.72472 8.35742 2.93109C8.15006 3.13745 8.03315 3.41771 8.03237 3.71025V4.84586C8.03237 5.45171 8.52525 5.94693 9.13871 5.94693H18.813C19.1056 5.94755 19.3864 5.83198 19.5937 5.62561C19.8011 5.41925 19.918 5.13899 19.9188 4.84645V3.71084C19.9188 3.10499 19.4259 2.60977 18.8124 2.60977H9.13871H9.13813ZM4.26789 11.519C4.26789 11.2085 4.39124 10.9107 4.61079 10.6912C4.83035 10.4716 5.12813 10.3483 5.43862 10.3483H22.3697C22.6802 10.3483 22.978 10.4716 23.1975 10.6912C23.4171 10.9107 23.5404 11.2085 23.5404 11.519C23.5404 11.8295 23.4171 12.1273 23.1975 12.3468C22.978 12.5664 22.6802 12.6897 22.3697 12.6897H5.43921C5.12871 12.6897 4.83093 12.5664 4.61138 12.3468C4.39182 12.1273 4.26848 11.8295 4.26848 11.519H4.26789ZM4.26789 17.1982C4.26789 16.8877 4.39124 16.5899 4.61079 16.3704C4.83035 16.1508 5.12813 16.0275 5.43862 16.0275H15.6825C15.993 16.0275 16.2908 16.1508 16.5103 16.3704C16.7299 16.5899 16.8532 16.8877 16.8532 17.1982C16.8532 17.5087 16.7299 17.8065 16.5103 18.0261C16.2908 18.2456 15.993 18.369 15.6825 18.369H5.43862C5.12813 18.369 4.83035 18.2456 4.61079 18.0261C4.39124 17.8065 4.26789 17.5087 4.26789 17.1982V17.1982ZM21.9459 18.712L21.6228 19.5578C21.5603 19.7214 21.4619 19.869 21.3349 19.9895C21.2079 20.1101 21.0554 20.2006 20.8887 20.2544C20.5328 20.3695 20.1941 20.5324 19.8819 20.7385C19.736 20.8349 19.5704 20.8974 19.3972 20.9214C19.2239 20.9454 19.0475 20.9303 18.8809 20.8772L18.0111 20.5998C17.9145 20.711 17.8226 20.8257 17.7348 20.9446L18.1961 21.7219C18.2855 21.873 18.3398 22.0422 18.355 22.2171C18.3702 22.392 18.3459 22.568 18.2839 22.7323C18.1525 23.0807 18.0694 23.4454 18.0368 23.8164C18.0214 23.9913 17.9669 24.1605 17.8772 24.3115C17.7875 24.4625 17.665 24.5913 17.5188 24.6885L16.7613 25.192C16.7883 25.336 16.8204 25.4776 16.8585 25.6175L17.7629 25.744C17.9359 25.7682 18.1013 25.8308 18.2469 25.9272C18.3926 26.0236 18.5148 26.1514 18.6046 26.3012C18.7972 26.622 19.032 26.9153 19.3024 27.1728C19.4294 27.2937 19.5276 27.4416 19.5898 27.6055C19.6521 27.7694 19.6766 27.9452 19.6618 28.12L19.5845 29.0232C19.7157 29.0928 19.8491 29.1572 19.9861 29.2163L20.6499 28.59C20.7767 28.4703 20.9287 28.3804 21.0946 28.3269C21.2606 28.2735 21.4365 28.2577 21.6093 28.2809C21.9819 28.3309 22.3595 28.3309 22.732 28.2809C22.9048 28.2577 23.0807 28.2733 23.2466 28.3267C23.4126 28.38 23.5646 28.4698 23.6915 28.5894L24.3553 29.2158C24.4922 29.1572 24.6257 29.0928 24.7568 29.0226L24.6796 28.1205C24.6645 27.9456 24.689 27.7696 24.7513 27.6055C24.8135 27.4413 24.9118 27.2933 25.039 27.1722C25.3088 26.9147 25.5441 26.622 25.7367 26.3012C25.8266 26.1514 25.9488 26.0236 26.0944 25.9272C26.2401 25.8308 26.4055 25.7682 26.5785 25.744L27.4829 25.6181C27.5203 25.4776 27.5531 25.336 27.58 25.1914L26.8226 24.688C26.6764 24.5908 26.554 24.462 26.4643 24.3112C26.3746 24.1603 26.32 23.9912 26.3045 23.8164C26.2718 23.4454 26.1885 23.0807 26.0569 22.7323C25.995 22.568 25.9707 22.3919 25.986 22.217C26.0013 22.0421 26.0558 21.8729 26.1453 21.7219L26.6066 20.9446C26.5189 20.826 26.4266 20.711 26.3297 20.5998L25.4598 20.8772C25.2934 20.9302 25.1172 20.9452 24.9442 20.9212C24.7712 20.8972 24.6058 20.8347 24.46 20.7385C24.1477 20.5323 23.8088 20.3695 23.4526 20.2544C23.286 20.2006 23.1335 20.1101 23.0065 19.9895C22.8794 19.869 22.781 19.7214 22.7186 19.5578L22.3949 18.712C22.2455 18.7061 22.0959 18.7061 21.9465 18.712H21.9459ZM20.9262 16.4642C21.7507 16.333 22.5907 16.333 23.4152 16.4642C23.6183 16.4965 23.8093 16.5817 23.969 16.7113C24.1286 16.8409 24.2514 17.0102 24.3248 17.2023L24.7176 18.2302C24.8997 18.3075 25.0776 18.393 25.2503 18.4866L26.3039 18.1506C26.4993 18.0884 26.7075 18.0786 26.9078 18.1222C27.1082 18.1657 27.2935 18.2611 27.4454 18.3988C28.064 18.9594 28.5892 19.615 29.0013 20.341C29.103 20.5205 29.1555 20.7237 29.1535 20.93C29.1514 21.1363 29.0949 21.3384 28.9896 21.5159L28.4288 22.4612C28.4809 22.6486 28.5242 22.8382 28.5588 23.0308L29.4772 23.6407C29.6486 23.7546 29.7869 23.9116 29.8783 24.096C29.9696 24.2804 30.0108 24.4856 29.9976 24.6909C29.9447 25.5244 29.7577 26.3439 29.4438 27.1178C29.3666 27.3082 29.2407 27.4749 29.0786 27.6011C28.9166 27.7274 28.7242 27.8088 28.5207 27.8372L27.4237 27.99C27.3084 28.1481 27.1861 28.3002 27.0579 28.4472L27.1515 29.543C27.169 29.748 27.1322 29.9539 27.0447 30.1401C26.9573 30.3263 26.8223 30.4862 26.6534 30.6037C25.967 31.0814 25.2085 31.446 24.4068 31.6837C24.2103 31.7417 24.002 31.7472 23.8027 31.6995C23.6034 31.6519 23.4201 31.5527 23.2712 31.412L22.4663 30.6528C22.2693 30.6617 22.072 30.6617 21.8751 30.6528L21.0708 31.412C20.9218 31.5527 20.7385 31.6519 20.5393 31.6995C20.34 31.7472 20.1317 31.7417 19.9352 31.6837C19.1332 31.446 18.3745 31.0814 17.688 30.6037C17.5192 30.4861 17.3843 30.3262 17.297 30.14C17.2096 29.9538 17.1729 29.7479 17.1904 29.543L17.2841 28.4472C17.1553 28.3008 17.0329 28.1486 16.9176 27.9906L15.8206 27.8372C15.6171 27.8088 15.4247 27.7273 15.2626 27.6009C15.1006 27.4745 14.9747 27.3077 14.8975 27.1172C14.5837 26.3435 14.3967 25.5242 14.3438 24.6909C14.3306 24.4856 14.3717 24.2804 14.4631 24.096C14.5545 23.9116 14.6928 23.7546 14.8642 23.6407L15.7826 23.0308C15.8177 22.8376 15.8605 22.648 15.912 22.4612L15.3512 21.5159C15.2459 21.3384 15.1893 21.1363 15.1873 20.93C15.1852 20.7237 15.2377 20.5205 15.3395 20.341C15.7518 19.615 16.2772 18.9594 16.896 18.3988C17.0478 18.2611 17.2332 18.1657 17.4335 18.1222C17.6338 18.0786 17.8421 18.0884 18.0374 18.1506L19.0911 18.4866C19.2638 18.393 19.4417 18.3075 19.6238 18.2302L20.016 17.2023C20.0894 17.0102 20.2121 16.8409 20.3718 16.7113C20.5315 16.5817 20.7225 16.4965 20.9256 16.4642H20.9262ZM22.269 22.5789C21.8639 22.5778 21.475 22.7376 21.1877 23.0233C20.9004 23.3089 20.7384 23.6969 20.7371 24.102C20.7385 24.507 20.9007 24.8949 21.1879 25.1804C21.4752 25.4659 21.864 25.6256 22.269 25.6245C22.674 25.6256 23.0629 25.4659 23.3501 25.1804C23.6374 24.8949 23.7995 24.507 23.8009 24.102C23.7997 23.6969 23.6376 23.3089 23.3503 23.0233C23.0631 22.7376 22.6741 22.5778 22.269 22.5789V22.5789ZM18.3957 24.102C18.3957 21.9637 20.1336 20.2374 22.269 20.2374C24.4044 20.2374 26.1424 21.9643 26.1424 24.102C26.1424 26.2398 24.4038 27.966 22.269 27.966C20.1336 27.966 18.3957 26.2398 18.3957 24.102V24.102ZM4.29306 22.8768C4.29306 22.5663 4.41641 22.2686 4.63596 22.049C4.85552 21.8295 5.1533 21.7061 5.46379 21.7061H12.7317C13.0422 21.7061 13.34 21.8295 13.5595 22.049C13.7791 22.2686 13.9024 22.5663 13.9024 22.8768C13.9024 23.1873 13.7791 23.4851 13.5595 23.7047C13.34 23.9242 13.0422 24.0476 12.7317 24.0476H5.46379C5.1533 24.0476 4.85552 23.9242 4.63596 23.7047C4.41641 23.4851 4.29306 23.1873 4.29306 22.8768V22.8768Z" fill="#109AF9"/>
</svg>
