<svg width="30" height="32" viewBox="0 0 30 32" fill="none" xmlns="http://www.w3.org/2000/svg">
<path d="M26.8781 20.2222L23.7536 23.3441H26.0957C26.0957 25.9284 23.9958 28.0283 21.4115 28.0283C20.6477 28.0309 19.8971 27.842 19.2264 27.4827L18.0873 28.6218C19.0801 29.2552 20.2351 29.5905 21.4142 29.5905C24.8634 29.5905 27.6579 26.796 27.6579 23.3441H30L26.8781 20.2222ZM16.7273 23.3441C16.7273 20.7598 18.8272 18.6599 21.4115 18.6599C22.1993 18.6599 22.9498 18.8542 23.5966 19.2055L24.7357 18.0664C23.7429 17.433 22.5879 17.0977 21.4088 17.0977C17.9569 17.0977 15.1624 19.8922 15.1624 23.3441H12.8203L15.9475 26.4686L19.0694 23.3468H16.7273V23.3441Z" fill="#109AF9"/>
<path d="M4.62402 3.05224V5.82573L2.77441 5.82665V28.9467H16.5401C16.8629 29.4193 17.2198 29.8947 17.6101 30.3709C17.9874 30.8324 18.3869 31.2837 18.805 31.7221L2.77441 31.7212C2.03859 31.7212 1.33291 31.4289 0.812606 30.9085C0.292303 30.3882 0 29.6826 0 28.9467V5.82665C0 5.09083 0.292303 4.38515 0.812606 3.86485C1.33291 3.34455 2.03859 3.05224 2.77441 3.05224H4.62402ZM13.8721 17.8491V20.6235H5.54882V17.8491H13.8721ZM21.2705 3.05224C22.0063 3.05224 22.712 3.34455 23.2323 3.86485C23.7526 4.38515 24.0449 5.09083 24.0449 5.82665V15.8867C23.1407 15.6478 22.2009 15.5739 21.2705 15.6684V5.82665H19.4209V3.05224H21.2705ZM18.4961 12.3003V15.0747H5.54882V12.3003H18.4961ZM14.7969 0.277832C15.5327 0.277832 16.2384 0.570136 16.7587 1.09044C17.279 1.61074 17.5713 2.31642 17.5713 3.05224V4.90185C17.5713 5.63767 17.279 6.34335 16.7587 6.86365C16.2384 7.38396 15.5327 7.67626 14.7969 7.67626H9.24803C8.51221 7.67626 7.80653 7.38396 7.28623 6.86365C6.76593 6.34335 6.47362 5.63767 6.47362 4.90185V3.05224C6.47362 2.31642 6.76593 1.61074 7.28623 1.09044C7.80653 0.570136 8.51221 0.277832 9.24803 0.277832H14.7969ZM14.7969 3.05224H9.24803V4.90185H14.7969V3.05224Z" fill="#109AF9"/>
</svg>
