<svg width="30" height="30" viewBox="0 0 30 30" fill="none" xmlns="http://www.w3.org/2000/svg">
<path d="M16.152 3.75059C16.0112 3.57172 15.8351 3.42782 15.636 3.32908C15.4369 3.23033 15.2198 3.17914 15 3.17914C14.7802 3.17914 14.5631 3.23033 14.364 3.32908C14.1649 3.42782 13.9888 3.57172 13.848 3.75059L10.7025 7.74935H19.2975L16.152 3.75059V3.75059ZM7.5105 10.928H7.4895C4.905 10.9328 3 12.9719 3 15.2415V22.5079C3 24.7806 4.908 26.8213 7.5 26.8213C7.697 26.8213 7.89208 26.8624 8.0741 26.9422C8.25611 27.0221 8.4215 27.1392 8.56081 27.2868C8.70012 27.4343 8.81063 27.6096 8.88603 27.8024C8.96142 27.9952 9.00023 28.2019 9.00023 28.4107C9.00023 28.6194 8.96142 28.8261 8.88603 29.0189C8.81063 29.2118 8.70012 29.387 8.56081 29.5346C8.4215 29.6822 8.25611 29.7992 8.0741 29.8791C7.89208 29.9589 7.697 30 7.5 30C3.465 30 3.51562e-08 26.7546 0 22.5079V15.2415C0 11.2538 3.0555 8.14827 6.7695 7.78431L11.5425 1.71624C11.9648 1.17909 12.4934 0.746914 13.0909 0.450327C13.6884 0.15374 14.3402 0 15 0C15.6598 0 16.3116 0.15374 16.9091 0.450327C17.5066 0.746914 18.0352 1.17909 18.4575 1.71624L23.2305 7.78431C26.9445 8.14986 30 11.2538 30 15.2415V22.5079C30 26.2158 27.357 29.1624 24 29.849L22.5 30H13.5C13.303 30 13.1079 29.9589 12.9259 29.8791C12.7439 29.7992 12.5785 29.6822 12.4392 29.5346C12.2999 29.387 12.1894 29.2118 12.114 29.0189C12.0386 28.8261 11.9998 28.6194 11.9998 28.4107C11.9998 28.2019 12.0386 27.9952 12.114 27.8024C12.1894 27.6096 12.2999 27.4343 12.4392 27.2868C12.5785 27.1392 12.7439 27.0221 12.9259 26.9422C13.1079 26.8624 13.303 26.8213 13.5 26.8213H22.5C25.092 26.8213 27 24.7806 27 22.5079V15.2415C27 12.9719 25.0965 10.9344 22.5105 10.928H7.5105V10.928ZM13.5 17.2853C13.303 17.2853 13.1079 17.3264 12.9259 17.4063C12.7439 17.4861 12.5785 17.6032 12.4392 17.7508C12.2999 17.8983 12.1894 18.0736 12.114 18.2664C12.0386 18.4593 11.9998 18.6659 11.9998 18.8747C11.9998 19.0834 12.0386 19.2901 12.114 19.4829C12.1894 19.6758 12.2999 19.851 12.4392 19.9986C12.5785 20.1462 12.7439 20.2632 12.9259 20.3431C13.1079 20.423 13.303 20.464 13.5 20.464H22.5C22.697 20.464 22.8921 20.423 23.0741 20.3431C23.2561 20.2632 23.4215 20.1462 23.5608 19.9986C23.7001 19.851 23.8106 19.6758 23.886 19.4829C23.9614 19.2901 24.0002 19.0834 24.0002 18.8747C24.0002 18.6659 23.9614 18.4593 23.886 18.2664C23.8106 18.0736 23.7001 17.8983 23.5608 17.7508C23.4215 17.6032 23.2561 17.4861 23.0741 17.4063C22.8921 17.3264 22.697 17.2853 22.5 17.2853H13.5V17.2853ZM8.25 21.2587C8.84674 21.2587 9.41903 21.0075 9.84099 20.5604C10.2629 20.1133 10.5 19.5069 10.5 18.8747C10.5 18.2424 10.2629 17.636 9.84099 17.1889C9.41903 16.7418 8.84674 16.4907 8.25 16.4907C7.65326 16.4907 7.08097 16.7418 6.65901 17.1889C6.23705 17.636 6 18.2424 6 18.8747C6 19.5069 6.23705 20.1133 6.65901 20.5604C7.08097 21.0075 7.65326 21.2587 8.25 21.2587Z" fill="#109AF9"/>
</svg>
