<svg width="30" height="30" viewBox="0 0 30 30" fill="none" xmlns="http://www.w3.org/2000/svg">
<path d="M12.6201 0C17.5466 0 21.5531 3.90215 21.5531 8.73184C21.5531 11.0061 20.6569 13.1346 19.1121 14.7305L19.0836 14.7597L23.0808 18.5028H19.5499L16.4616 15.6108C15.9224 15.1059 15.9612 14.2429 16.5337 13.7869L16.5512 13.7732L16.5692 13.7596C18.1795 12.5694 19.1397 10.7275 19.1397 8.73184C19.1397 5.2495 16.2278 2.41341 12.6201 2.41341C9.01244 2.41341 6.10056 5.2495 6.10056 8.73184C6.10056 10.7207 7.05412 12.557 8.65529 13.7479C9.25894 14.1969 9.30905 15.0828 8.75993 15.597L2.41341 21.5399V27.5866H17.4302V30H1.2067C0.546939 30 0.0108267 29.4705 0.000167506 28.8132L2.40002e-10 28.7933V21.0168C-3.29314e-06 20.8516 0.0338881 20.6882 0.0995761 20.5367C0.165264 20.3852 0.261351 20.2488 0.381888 20.1359L6.14065 14.7433L6.11289 14.7148C4.59593 13.1399 3.70897 11.0501 3.68755 8.8147L3.68715 8.73184C3.68715 3.90215 7.69361 0 12.6201 0Z" fill="white"/>
<path d="M11.2626 19.0056H13.9441V25.5084H11.2626V19.0056Z" fill="white"/>
<path d="M26.0271 29.9902L29.0598 24.7374L26.0271 19.4847H19.9618L16.9291 24.7374L19.9618 29.9902H26.0271V29.9902ZM26.5827 24.7374L24.7886 27.8449H21.2003L19.4062 24.7374L21.2003 21.6299H24.7886L26.5827 24.7374Z" fill="white"/>
<path d="M21.6536 24.7232C21.6536 25.1017 21.8037 25.4647 22.0709 25.7323C22.338 26 22.7004 26.1503 23.0782 26.1503C23.456 26.1503 23.8184 26 24.0855 25.7323C24.3527 25.4647 24.5028 25.1017 24.5028 24.7232C24.5028 24.3447 24.3527 23.9817 24.0855 23.7141C23.8184 23.4464 23.456 23.2961 23.0782 23.2961C22.7004 23.2961 22.338 23.4464 22.0709 23.7141C21.8037 23.9817 21.6536 24.3447 21.6536 24.7232V24.7232Z" fill="white"/>
</svg>
