<svg width="30" height="30" viewBox="0 0 30 30" fill="none" xmlns="http://www.w3.org/2000/svg">
<path d="M25.9159 13.6342L27.7459 14.664C27.567 7.7775 21.9292 2.25 15 2.25C7.95825 2.25 2.25 7.95825 2.25 15C2.25 22.0417 7.95825 27.75 15 27.75C19.308 27.75 23.2493 25.5986 25.6024 22.0845C25.6842 21.961 25.7897 21.8548 25.9127 21.7722C26.0357 21.6895 26.1739 21.632 26.3192 21.6029C26.4645 21.5738 26.6141 21.5737 26.7595 21.6026C26.9048 21.6315 27.0431 21.6888 27.1662 21.7713C27.2893 21.8538 27.3949 21.9598 27.477 22.0832C27.559 22.2066 27.6159 22.345 27.6443 22.4905C27.6727 22.6359 27.672 22.7855 27.6424 22.9308C27.6128 23.076 27.5548 23.2139 27.4718 23.3366C24.7054 27.4676 20.0666 30 15 30C6.71587 30 0 23.2841 0 15C0 6.71587 6.71587 0 15 0C23.2841 0 30 6.71587 30 15C30 15.3851 29.97 15.9266 29.9115 16.6358C29.8436 17.4529 28.9526 17.9254 28.2383 17.5234L24.8123 15.5951C24.6835 15.5227 24.5702 15.4255 24.479 15.3093C24.3877 15.1931 24.3203 15.06 24.2805 14.9177C24.2406 14.7754 24.2292 14.6267 24.2469 14.48C24.2646 14.3333 24.311 14.1915 24.3834 14.0627C24.4559 13.9339 24.553 13.8207 24.6693 13.7294C24.7855 13.6382 24.9185 13.5707 25.0608 13.5309C25.2031 13.4911 25.3519 13.4797 25.4986 13.4974C25.6453 13.515 25.7871 13.5614 25.9159 13.6339V13.6342ZM8.57962 19.8293L13.875 14.5346V8.25C13.875 7.95163 13.9935 7.66548 14.2045 7.4545C14.4155 7.24353 14.7016 7.125 15 7.125C15.2984 7.125 15.5845 7.24353 15.7955 7.4545C16.0065 7.66548 16.125 7.95163 16.125 8.25V15C16.1249 15.2983 16.0064 15.5844 15.7954 15.7954L10.1704 21.4204C10.0666 21.5278 9.94246 21.6135 9.8052 21.6725C9.66795 21.7314 9.52033 21.7625 9.37095 21.7638C9.22157 21.7651 9.07343 21.7366 8.93518 21.6801C8.79692 21.6235 8.67131 21.5399 8.56568 21.4343C8.46005 21.3287 8.37652 21.2031 8.31995 21.0648C8.26338 20.9266 8.23492 20.7784 8.23622 20.629C8.23752 20.4797 8.26855 20.3321 8.32751 20.1948C8.38647 20.0575 8.47218 19.9334 8.57962 19.8296V19.8293Z" fill="white"/>
</svg>
