<svg width="30" height="30" viewBox="0 0 30 30" fill="none" xmlns="http://www.w3.org/2000/svg">
<path d="M10.884 27.8571C10.8019 27.8571 10.7192 27.8477 10.6379 27.8283C9.14892 27.477 7.73263 26.8898 6.42749 26.0829C6.30395 26.0064 6.19724 25.9057 6.11383 25.7868C6.03043 25.6679 5.97208 25.5332 5.94233 25.391C5.91257 25.2489 5.91205 25.1021 5.94077 24.9597C5.96949 24.8173 6.02687 24.6823 6.10941 24.5628C6.66388 23.7595 6.56443 22.675 5.87336 21.9836C5.18196 21.2926 4.09747 21.1931 3.29423 21.7476C3.17471 21.8301 3.03965 21.8875 2.89726 21.9162C2.75487 21.9449 2.60812 21.9444 2.46595 21.9147C2.32377 21.8849 2.18912 21.8266 2.0702 21.7432C1.95127 21.6598 1.85055 21.553 1.77414 21.4295C0.967223 20.1247 0.379946 18.7081 0.0287188 17.2191C-0.00464009 17.0777 -0.0089013 16.931 0.0161941 16.7879C0.0412896 16.6449 0.0952177 16.5084 0.174701 16.3868C0.335415 16.141 0.58988 15.9719 0.87883 15.9193C1.83943 15.7439 2.53653 14.9065 2.53653 13.9285C2.53653 12.9505 1.83943 12.1131 0.87883 11.9376C0.735904 11.9116 0.599779 11.8567 0.478732 11.7763C0.357685 11.696 0.254245 11.5918 0.174701 11.4702C0.0951548 11.3487 0.0411895 11.2122 0.0160922 11.0691C-0.00900504 10.926 -0.00470892 10.7793 0.0287188 10.6379C0.379946 9.14892 0.967223 7.73229 1.77414 6.42749C1.85055 6.30395 1.95127 6.19723 2.0702 6.11383C2.18912 6.03043 2.32377 5.97208 2.46595 5.94233C2.60812 5.91257 2.75487 5.91204 2.89726 5.94077C3.03965 5.96949 3.17471 6.02687 3.29423 6.10941C4.09747 6.66388 5.18196 6.56443 5.87336 5.87336C6.56477 5.18196 6.66388 4.09747 6.10941 3.29423C6.02692 3.17467 5.96958 3.0396 5.94086 2.89721C5.91214 2.75482 5.91264 2.60807 5.94234 2.46588C6.0026 2.17861 6.17805 1.9285 6.42749 1.77414C7.73229 0.967223 9.14892 0.379946 10.6379 0.0287188C10.7793 -0.00470892 10.926 -0.00900504 11.0691 0.0160922C11.2122 0.0411895 11.3487 0.0951548 11.4702 0.174701C11.716 0.335415 11.8851 0.58988 11.9376 0.87883C12.1131 1.83943 12.9505 2.53653 13.9285 2.53653C14.9065 2.53653 15.7439 1.83943 15.9193 0.87883C15.9454 0.735904 16.0003 0.599779 16.0807 0.478732C16.161 0.357685 16.2652 0.254245 16.3868 0.174701C16.5083 0.0951548 16.6448 0.0411895 16.7879 0.0160922C16.931 -0.00900504 17.0777 -0.00470892 17.2191 0.0287188C18.7081 0.379946 20.1244 0.967223 21.4295 1.77414C21.553 1.85055 21.6598 1.95127 21.7432 2.0702C21.8266 2.18912 21.8849 2.32377 21.9147 2.46595C21.9444 2.60812 21.9449 2.75487 21.9162 2.89726C21.8875 3.03964 21.8301 3.17471 21.7476 3.29423C21.1931 4.09747 21.2926 5.18196 21.9836 5.87336C22.675 6.56477 23.7595 6.66388 24.5628 6.10941C24.6823 6.02687 24.8173 5.96949 24.9597 5.94077C25.1021 5.91204 25.2489 5.91257 25.391 5.94233C25.5332 5.97208 25.6679 6.03043 25.7868 6.11383C25.9057 6.19723 26.0064 6.30395 26.0829 6.42749C26.8898 7.73229 27.477 9.14892 27.8283 10.6379C27.8956 10.9238 27.843 11.2245 27.6823 11.4702C27.6028 11.5919 27.4994 11.696 27.3783 11.7764C27.2573 11.8567 27.1211 11.9116 26.9782 11.9376C26.0176 12.1131 25.3205 12.9505 25.3205 13.9285C25.3205 14.5201 24.8407 14.9999 24.249 14.9999C23.6574 14.9999 23.1776 14.5201 23.1776 13.9285C23.1776 12.3157 24.0994 10.8887 25.4835 10.1989C25.2836 9.57848 25.0334 8.97537 24.7355 8.39557C23.2693 8.88575 21.609 8.5285 20.4686 7.38843C19.3285 6.24836 18.9709 4.58798 19.4614 3.1218C18.8816 2.82404 18.2785 2.57388 17.6581 2.37381C16.9683 3.75796 15.5413 4.67972 13.9285 4.67972C12.3157 4.67972 10.8887 3.75796 10.1989 2.37381C9.57854 2.57388 8.97544 2.82404 8.39557 3.1218C8.88609 4.58798 8.5285 6.24836 7.38843 7.38876C6.58184 8.19535 5.51443 8.61019 4.43999 8.61019C3.99568 8.61019 3.55037 8.53921 3.12146 8.39591C2.8237 8.97577 2.57355 9.57887 2.37347 10.1993C3.75763 10.889 4.67939 12.316 4.67939 13.9288C4.67939 15.5417 3.75763 16.9687 2.37347 17.6584C2.57341 18.2788 2.82356 18.882 3.12146 19.4618C4.58765 18.9716 6.24803 19.3288 7.38843 20.4689C8.5285 21.609 8.88609 23.2697 8.39557 24.7359C8.97615 25.0339 9.57883 25.284 10.1989 25.4839C10.8887 24.0997 12.3157 23.1779 13.9285 23.1779C14.5201 23.1779 14.9999 23.6577 14.9999 24.2494C14.9999 24.841 14.5201 25.3208 13.9285 25.3208C12.9505 25.3208 12.1131 26.0179 11.9376 26.9785C11.9115 27.1214 11.8567 27.2575 11.7763 27.3786C11.6959 27.4996 11.5918 27.6031 11.4702 27.6826C11.2959 27.7964 11.0922 27.857 10.884 27.8571V27.8571Z" fill="white"/>
<path d="M13.9288 21.9371C11.7896 21.9371 9.77837 21.1041 8.26599 19.5913C6.75326 18.0786 5.92023 16.0677 5.92023 13.9285C5.92023 11.7893 6.75326 9.77804 8.26599 8.26565C9.77871 6.75293 11.7896 5.9199 13.9288 5.9199C16.068 5.9199 18.0793 6.75293 19.5917 8.26565C21.1044 9.77838 21.9374 11.7893 21.9374 13.9285C21.9374 14.5201 21.4576 14.9999 20.866 14.9999C20.2744 14.9999 19.7946 14.5201 19.7946 13.9285C19.7946 10.6941 17.1632 8.06275 13.9288 8.06275C10.6944 8.06275 8.06308 10.6941 8.06308 13.9285C8.06308 17.1629 10.6944 19.7942 13.9288 19.7942C14.5205 19.7942 15.0003 20.274 15.0003 20.8657C15.0003 21.4573 14.5205 21.9371 13.9288 21.9371Z" fill="white"/>
<path d="M13.9288 17.1136C12.1727 17.1136 10.7437 15.685 10.7437 13.9285C10.7437 12.172 12.1723 10.7433 13.9288 10.7433C15.6853 10.7433 17.114 12.172 17.114 13.9285C17.114 15.685 15.6849 17.1136 13.9288 17.1136ZM13.9288 12.8862C13.3543 12.8862 12.8865 13.3536 12.8865 13.9285C12.8865 14.5034 13.3539 14.9708 13.9288 14.9708C14.5037 14.9708 14.9711 14.5034 14.9711 13.9285C14.9711 13.3536 14.5034 12.8862 13.9288 12.8862Z" fill="white"/>
<path d="M12.8574 15.8253H15.0003V20.8643H12.8574V15.8253ZM15.0354 12.0519L19.3989 9.53249L20.4703 11.3882L16.1068 13.9076L15.0354 12.0519ZM7.38623 11.3888L8.45766 9.53306L12.8212 12.0524L11.7498 13.9081L7.38623 11.3888ZM24.1901 29.9999C24.0144 29.9999 23.8424 29.9487 23.6952 29.8526C23.5927 29.7855 23.5048 29.6983 23.437 29.5962C23.3692 29.494 23.3229 29.3792 23.3008 29.2586C23.2449 28.9536 22.9787 28.732 22.6677 28.732C22.3566 28.732 22.0905 28.9536 22.0345 29.2586C22.0125 29.3792 21.9661 29.4941 21.8983 29.5962C21.8305 29.6983 21.7426 29.7855 21.64 29.8526C21.5374 29.9197 21.4222 29.9652 21.3015 29.9864C21.1808 30.0076 21.057 30.004 20.9377 29.9758C20.1549 29.7913 19.4072 29.4812 18.7235 29.0577C18.6193 28.9933 18.5292 28.9083 18.4588 28.808C18.3884 28.7077 18.3392 28.5941 18.314 28.4741C18.2634 28.2317 18.3143 27.9789 18.455 27.7754C18.6311 27.5202 18.5996 27.1754 18.3796 26.9554C18.1596 26.7354 17.8148 26.7039 17.5596 26.8801C17.4588 26.9496 17.3448 26.998 17.2247 27.0222C17.1046 27.0465 16.9808 27.0461 16.8609 27.021C16.7409 26.9959 16.6274 26.9466 16.527 26.8762C16.4267 26.8058 16.3417 26.7158 16.2773 26.6115C15.8531 25.9252 15.544 25.1802 15.3592 24.3974C15.331 24.2781 15.3274 24.1543 15.3486 24.0335C15.3698 23.9128 15.4153 23.7976 15.4824 23.695C15.5495 23.5924 15.6367 23.5045 15.7388 23.4367C15.841 23.3689 15.9558 23.3225 16.0764 23.3005C16.3814 23.2446 16.6031 22.9784 16.6031 22.6673C16.6031 22.3563 16.3814 22.0901 16.0764 22.0342C15.9558 22.0121 15.841 21.9658 15.7388 21.898C15.6367 21.8302 15.5495 21.7423 15.4824 21.6397C15.4153 21.5371 15.3698 21.4219 15.3486 21.3012C15.3274 21.1804 15.331 21.0566 15.3592 20.9373C15.5438 20.1546 15.8538 19.4068 16.2773 18.7231C16.3417 18.6189 16.4267 18.5289 16.527 18.4585C16.6274 18.3881 16.7409 18.3388 16.8609 18.3137C16.9808 18.2885 17.1046 18.2881 17.2247 18.3123C17.3449 18.3366 17.4588 18.385 17.5596 18.4546C17.8148 18.6307 18.1596 18.5989 18.3796 18.3793C18.5996 18.1593 18.6311 17.8148 18.455 17.5593C18.3854 17.4584 18.337 17.3445 18.3128 17.2244C18.2886 17.1043 18.289 16.9805 18.314 16.8605C18.3392 16.7406 18.3884 16.627 18.4588 16.5267C18.5292 16.4264 18.6193 16.3414 18.7235 16.2769C19.4099 15.8527 20.1548 15.5437 20.9377 15.3589C21.057 15.3307 21.1808 15.327 21.3015 15.3482C21.4223 15.3694 21.5375 15.4149 21.6401 15.482C21.7427 15.5491 21.8306 15.6363 21.8984 15.7385C21.9662 15.8406 22.0125 15.9554 22.0345 16.076C22.0905 16.3811 22.3566 16.6027 22.6677 16.6027C22.9787 16.6027 23.2449 16.3811 23.3008 16.076C23.3229 15.9555 23.3692 15.8406 23.437 15.7385C23.5049 15.6364 23.5928 15.5491 23.6954 15.4821C23.798 15.415 23.9131 15.3695 24.0339 15.3483C24.1546 15.3271 24.2784 15.3307 24.3977 15.3589C25.1805 15.5434 25.9282 15.8535 26.6119 16.2769C26.7161 16.3414 26.8061 16.4264 26.8765 16.5267C26.9469 16.627 26.9962 16.7406 27.0214 16.8605C27.0719 17.1029 27.021 17.3557 26.8804 17.5593C26.7043 17.8144 26.7358 18.1593 26.9557 18.3793C27.1757 18.5993 27.5206 18.6311 27.7757 18.4546C27.8766 18.385 27.9905 18.3366 28.1106 18.3123C28.2308 18.2881 28.3546 18.2885 28.4745 18.3137C28.5945 18.3388 28.7081 18.388 28.8084 18.4584C28.9087 18.5288 28.9937 18.6189 29.0581 18.7231C29.4823 19.4095 29.7913 20.1545 29.9762 20.9373C30.0043 21.0566 30.0079 21.1804 29.9868 21.3012C29.9656 21.4219 29.9201 21.5371 29.853 21.6397C29.7859 21.7423 29.6986 21.8302 29.5965 21.898C29.4944 21.9658 29.3796 22.0121 29.259 22.0342C28.954 22.0901 28.7323 22.3563 28.7323 22.6673C28.7323 22.9784 28.954 23.2446 29.259 23.3005C29.3796 23.3225 29.4944 23.3689 29.5965 23.4367C29.6986 23.5045 29.7859 23.5924 29.853 23.695C29.9201 23.7976 29.9656 23.9128 29.9868 24.0335C30.0079 24.1543 30.0043 24.2781 29.9762 24.3974C29.7916 25.1801 29.4816 25.9278 29.0581 26.6115C28.9936 26.7158 28.9086 26.8058 28.8083 26.8762C28.708 26.9466 28.5944 26.9959 28.4745 27.021C28.3545 27.0461 28.2308 27.0465 28.1106 27.0223C27.9905 26.998 27.8766 26.9497 27.7757 26.8801C27.5206 26.7039 27.1757 26.7354 26.9557 26.9554C26.7358 27.1754 26.7043 27.5202 26.8804 27.7754C27.021 27.9793 27.0719 28.2317 27.0214 28.4741C26.9962 28.5941 26.9469 28.7077 26.8765 28.808C26.8061 28.9083 26.7161 28.9933 26.6119 29.0577C25.9255 29.482 25.1805 29.791 24.3977 29.9758C24.3291 29.9919 24.2594 29.9999 24.1901 29.9999ZM22.6677 26.9236C23.5017 26.9236 24.2514 27.3425 24.6964 27.997C24.7995 27.9579 24.9013 27.9153 25.0021 27.8701C24.8541 27.0927 25.0878 26.2667 25.6774 25.6767C26.267 25.0871 27.0934 24.8534 27.8705 25.0014C27.9157 24.9006 27.9579 24.7988 27.9974 24.6957C27.3431 24.2507 26.9239 23.501 26.9239 22.667C26.9239 21.833 27.3428 21.0833 27.9974 20.6383C27.9581 20.5352 27.9157 20.4333 27.8705 20.3326C27.093 20.4806 26.267 20.2469 25.6774 19.6573C25.0878 19.0677 24.8537 18.2413 25.0021 17.4642C24.9013 17.419 24.7995 17.3768 24.6964 17.3373C24.2514 17.9916 23.5017 18.4108 22.6677 18.4108C21.8336 18.4108 21.084 17.9919 20.639 17.3373C20.5359 17.3766 20.4339 17.4189 20.3333 17.4642C20.4813 18.2417 20.2476 19.0677 19.658 19.6573C19.0684 20.2469 18.242 20.4806 17.4649 20.3326C17.4196 20.4333 17.3773 20.5352 17.338 20.6383C17.9922 21.0833 18.4114 21.833 18.4114 22.667C18.4114 23.501 17.9926 24.2507 17.338 24.6957C17.3772 24.7988 17.4197 24.9006 17.4649 25.0014C18.242 24.8534 19.0684 25.0871 19.658 25.6767C20.2476 26.2663 20.4816 27.0927 20.3333 27.8701C20.4341 27.9153 20.5359 27.9575 20.639 27.997C21.084 27.3428 21.8336 26.9236 22.6677 26.9236V26.9236Z" fill="white"/>
<path d="M22.6676 26.7522C20.4153 26.7522 18.5828 24.9197 18.5828 22.6673C18.5828 20.415 20.4153 18.5825 22.6676 18.5825C24.92 18.5825 26.7525 20.415 26.7525 22.6673C26.7525 24.9197 24.92 26.7522 22.6676 26.7522ZM22.6676 20.2566C21.3384 20.2566 20.2569 21.3381 20.2569 22.6673C20.2569 23.9966 21.3384 25.078 22.6676 25.078C23.9969 25.078 25.0784 23.9966 25.0784 22.6673C25.0784 21.3381 23.9969 20.2566 22.6676 20.2566Z" fill="white"/>
<path d="M22.6677 24.5557C21.6264 24.5557 20.7793 23.7086 20.7793 22.6673C20.7793 21.626 21.6264 20.7789 22.6677 20.7789C23.709 20.7789 24.5561 21.626 24.5561 22.6673C24.5561 23.7086 23.709 24.5557 22.6677 24.5557ZM22.6677 22.453C22.5495 22.453 22.4534 22.5491 22.4534 22.6673C22.4534 22.7855 22.5495 22.8816 22.6677 22.8816C22.7859 22.8816 22.882 22.7855 22.882 22.6673C22.882 22.5491 22.7859 22.453 22.6677 22.453Z" fill="white"/>
<path d="M21.8306 23.6109H23.5048V26.1173H21.8306V23.6109ZM23.0657 21.4703L25.236 20.2173L26.073 21.6671L23.9027 22.9201L23.0657 21.4703ZM19.2609 21.6679L20.098 20.2181L22.2683 21.4711L21.4312 22.9209L19.2609 21.6679Z" fill="white"/>
</svg>
