<svg width="30" height="30" viewBox="0 0 30 30" fill="none" xmlns="http://www.w3.org/2000/svg">
<path d="M24.575 30H18.198C17.7371 30 17.36 29.6224 17.36 29.161V22.8681C17.36 21.6263 16.346 20.6111 15.1058 20.6111H14.9214C13.6812 20.6111 12.6673 21.6263 12.6673 22.8681V29.161C12.6673 29.6224 12.2902 30 11.8293 30H5.45221C4.48852 30 3.70082 29.2449 3.70082 28.3135V16.3739H1.72317C1.01926 16.3739 0.399155 15.9544 0.131 15.3C-0.137155 14.6455 0.0136824 13.9071 0.516474 13.4121L13.7985 0.49084C14.4689 -0.163613 15.5332 -0.163613 16.2036 0.49084L23.3181 7.41295C23.6532 7.73179 23.6616 8.26877 23.3348 8.596C23.2584 8.67489 23.1672 8.73792 23.0664 8.78147C22.9656 8.82502 22.8573 8.84824 22.7475 8.8498C22.6378 8.85136 22.5288 8.83123 22.4268 8.79056C22.3248 8.74988 22.2319 8.68947 22.1533 8.61278L15.0388 1.69067L1.68965 14.6119L1.72317 14.6958H4.53042C4.99131 14.6958 5.36841 15.0734 5.36841 15.5349V28.3135L10.9829 28.3219V22.8681C10.9829 20.695 12.7427 18.933 14.9131 18.933H15.0974C17.2678 18.933 19.0276 20.695 19.0276 22.8681V28.3219H24.5666L24.6421 15.5349C24.6421 15.0734 25.0192 14.6958 25.4801 14.6958H28.2789L28.899 14.0162L28.3124 14.6203L25.413 11.8095C25.3333 11.7336 25.2696 11.6424 25.2255 11.5414C25.1814 11.4405 25.1579 11.3317 25.1563 11.2215C25.1548 11.1114 25.1752 11.002 25.2164 10.8998C25.2576 10.7976 25.3187 10.7047 25.3963 10.6265C25.4721 10.5467 25.5632 10.4829 25.664 10.4387C25.7649 10.3946 25.8735 10.3711 25.9835 10.3695C26.0936 10.3679 26.2028 10.3884 26.3048 10.4296C26.4069 10.4709 26.4997 10.5321 26.5778 10.6097L29.4772 13.4205C29.98 13.9155 30.1392 14.6623 29.8711 15.3167C29.6029 15.9628 28.9828 16.3907 28.2789 16.3907H26.318V28.3303C26.3264 29.2365 25.5387 30 24.575 30Z" fill="white"/>
</svg>
