<svg width="30" height="30" viewBox="0 0 30 30" fill="none" xmlns="http://www.w3.org/2000/svg">
<path d="M12.9043 27.8571H4.28572C3.71739 27.8571 3.17235 27.6314 2.77049 27.2295C2.36862 26.8277 2.14286 26.2826 2.14286 25.7143V4.28572C2.14286 3.71739 2.36862 3.17235 2.77049 2.77049C3.17235 2.36862 3.71739 2.14286 4.28572 2.14286H23.5714C24.1398 2.14286 24.6848 2.36862 25.0867 2.77049C25.4885 3.17235 25.7143 3.71739 25.7143 4.28572V11.6186C26.4857 11.9571 27.1907 12.4029 27.8571 12.9064V4.28572C27.8571 3.72291 27.7463 3.16561 27.5309 2.64564C27.3155 2.12568 26.9999 1.65322 26.6019 1.25526C26.2039 0.857291 25.7315 0.541608 25.2115 0.326231C24.6915 0.110853 24.1342 0 23.5714 0H4.28572C3.72291 0 3.16561 0.110853 2.64564 0.326231C2.12568 0.541608 1.65322 0.857291 1.25526 1.25526C0.857291 1.65322 0.541608 2.12568 0.326231 2.64564C0.110853 3.16561 0 3.72291 0 4.28572V25.7143C0 26.2771 0.110853 26.8344 0.326231 27.3544C0.541608 27.8743 0.857291 28.3468 1.25526 28.7447C1.65322 29.1427 2.12568 29.4584 2.64564 29.6738C3.16561 29.8891 3.72291 30 4.28572 30H15.0579C14.2426 29.3908 13.5175 28.6694 12.9043 27.8571Z" fill="#109AF9"/>
<path d="M21.4285 12.8574C19.1553 12.8574 16.9751 13.7605 15.3676 15.3679C13.7602 16.9754 12.8571 19.1556 12.8571 21.4289C12.8571 23.7021 13.7602 25.8823 15.3676 27.4898C16.9751 29.0972 19.1553 30.0003 21.4285 30.0003C23.7018 30.0003 25.882 29.0972 27.4895 27.4898C29.0969 25.8823 30 23.7021 30 21.4289C30 19.1556 29.0969 16.9754 27.4895 15.3679C25.882 13.7605 23.7018 12.8574 21.4285 12.8574ZM21.4285 27.8531C19.7244 27.8531 18.0901 27.1762 16.8851 25.9712C15.6801 24.7662 15.0032 23.1319 15.0032 21.4278C15.0032 19.7237 15.6801 18.0894 16.8851 16.8844C18.0901 15.6794 19.7244 15.0024 21.4285 15.0024C23.1327 15.0024 24.767 15.6794 25.972 16.8844C27.1769 18.0894 27.8539 19.7237 27.8539 21.4278C27.8539 23.1319 27.1769 24.7662 25.972 25.9712C24.767 27.1762 23.1327 27.8531 21.4285 27.8531Z" fill="#109AF9"/>
<path d="M22.8407 19.8364L21.4286 17.1429L20.0164 19.8364L17.1429 20.4171L19.1443 22.6607L18.78 25.7143L21.4286 24.4093L24.0772 25.7143L23.7129 22.6607L25.7143 20.4171L22.8407 19.8364ZM21.4286 8.57143C21.4286 8.28727 21.3157 8.01475 21.1148 7.81381C20.9138 7.61288 20.6413 7.5 20.3572 7.5H7.50002C7.21586 7.5 6.94333 7.61288 6.7424 7.81381C6.54147 8.01475 6.42859 8.28727 6.42859 8.57143C6.42859 8.85559 6.54147 9.12811 6.7424 9.32904C6.94333 9.52997 7.21586 9.64286 7.50002 9.64286H20.3572C20.6413 9.64286 20.9138 9.52997 21.1148 9.32904C21.3157 9.12811 21.4286 8.85559 21.4286 8.57143ZM13.9286 13.9286C13.9286 13.7879 13.9009 13.6485 13.847 13.5186C13.7932 13.3886 13.7143 13.2704 13.6148 13.171C13.5153 13.0715 13.3972 12.9925 13.2672 12.9387C13.1372 12.8849 12.9979 12.8571 12.8572 12.8571H7.50002C7.21586 12.8571 6.94333 12.97 6.7424 13.171C6.54147 13.3719 6.42859 13.6444 6.42859 13.9286C6.42859 14.2127 6.54147 14.4853 6.7424 14.6862C6.94333 14.8871 7.21586 15 7.50002 15H12.8572C12.9979 15 13.1372 14.9723 13.2672 14.9184C13.3972 14.8646 13.5153 14.7857 13.6148 14.6862C13.7143 14.5867 13.7932 14.4686 13.847 14.3386C13.9009 14.2086 13.9286 14.0693 13.9286 13.9286ZM7.50002 18.2143C7.21586 18.2143 6.94333 18.3272 6.7424 18.5281C6.54147 18.729 6.42859 19.0016 6.42859 19.2857C6.42859 19.5699 6.54147 19.8424 6.7424 20.0433C6.94333 20.2443 7.21586 20.3571 7.50002 20.3571H9.64287C9.92704 20.3571 10.1996 20.2443 10.4005 20.0433C10.6014 19.8424 10.7143 19.5699 10.7143 19.2857C10.7143 19.0016 10.6014 18.729 10.4005 18.5281C10.1996 18.3272 9.92704 18.2143 9.64287 18.2143H7.50002Z" fill="#109AF9"/>
</svg>
