<svg width="30" height="30" viewBox="0 0 30 30" fill="none" xmlns="http://www.w3.org/2000/svg">
<path d="M24.4158 26H14.9988C13.5128 26 12.0726 25.7102 10.7174 25.1349C9.40789 24.5814 8.23132 23.7882 7.22033 22.7793C6.21153 21.7704 5.41843 20.5937 4.865 19.2819C4.29197 17.9265 4 16.4861 4 15C4 13.5139 4.28979 12.0735 4.865 10.7181C5.41843 9.40848 6.21153 8.23177 7.22033 7.22068C8.22914 6.21177 9.40572 5.41858 10.7174 4.8651C12.0726 4.28982 13.515 4 14.9988 4C16.4913 4 17.9424 4.29418 19.3064 4.87381C20.6268 5.43384 21.8099 6.23356 22.823 7.25337C23.8275 8.26228 24.6119 9.43681 25.1588 10.7399C25.7253 12.0931 26.0085 13.5269 25.9998 15.0065C25.9911 16.168 25.9802 17.6127 24.9235 19.7809L23.4026 19.04C24.2894 17.2183 24.3003 16.0372 24.3068 14.9956C24.3221 12.5311 23.3678 10.2038 21.6225 8.4475C19.8576 6.67155 17.5067 5.69315 14.9988 5.69315C9.86763 5.69315 5.69296 9.86826 5.69296 15C5.69296 20.1317 9.86763 24.309 15.001 24.309H22.3764L19.9165 21.851L21.1127 20.6547L25.0128 24.5553C25.2546 24.7971 25.3265 25.1611 25.1958 25.477C25.0673 25.7952 24.7579 26 24.4158 26Z" fill="white"/>
<path d="M18.9033 10.418L16.0664 15.2441H18.3018V16.3105H15.6973V17.7803H18.3018V18.8604H15.6973V21H14.3574V18.8604H11.6572V17.7803H14.3574V16.3105H11.6572V15.2441H13.9609L11.1514 10.418H12.6621C13.9746 12.8151 14.7721 14.335 15.0547 14.9775H15.082C15.1777 14.7132 15.4398 14.18 15.8682 13.3779L17.4746 10.418H18.9033Z" fill="white"/>
</svg>
