<svg width="30" height="22" viewBox="0 0 30 22" fill="none" xmlns="http://www.w3.org/2000/svg">
<path d="M29.6646 7.70095C29.143 6.73991 27.9827 5.66167 26.8606 4.6186C26.2101 4.01502 25.5977 3.4466 25.2315 3.0071C24.6279 2.28632 23.7723 1.87319 22.8816 1.87319C22.3601 1.87319 21.8473 2.01969 21.3991 2.29511L21.3727 2.31269L20.6314 2.84302C20.3091 2.66136 19.9018 2.35957 19.5326 2.08122C18.5833 1.37217 17.5989 0.636738 16.5704 0.636738H16.0782C14.5106 0.636738 13.6697 1.09675 12.9958 1.46593C12.5446 1.71204 12.2458 1.87612 11.7652 1.87612C11.4136 1.87612 10.98 1.79115 10.4497 1.61829C9.67323 1.36338 9.40953 1.24325 8.88506 1.00592C8.69461 0.918017 8.47486 0.818397 8.19065 0.695338C7.82147 0.534188 7.42885 0.449219 7.02452 0.449219C6.17482 0.449219 5.372 0.818398 4.81823 1.46593L4.80651 1.48058L0.681084 6.70182C-0.244794 7.80057 -0.224284 9.42671 0.727963 10.502L1.73002 11.715C1.87359 11.8879 1.89996 12.1282 1.79741 12.3274C1.56887 12.7845 1.36963 13.3119 1.36963 13.8598V14.1352C1.36963 14.8501 1.62747 15.4596 2.13436 15.9518C2.51233 16.321 2.95769 16.5437 3.28585 16.7077C3.37375 16.7517 3.48802 16.8103 3.54662 16.8455C3.66674 17.0007 3.7605 17.1502 3.85133 17.2937C4.30548 18.0145 4.74205 18.539 6.15431 18.6386C6.36527 18.9961 6.63776 19.3799 7.03331 19.6846C7.4728 20.0216 8.00313 20.2179 8.65652 20.2853C9.24838 21.1262 10.0776 21.551 11.1294 21.551C11.566 21.551 12.0055 21.3606 12.4333 21.1086C12.5417 21.0441 12.6501 20.9767 12.7585 20.9093C12.7614 20.9064 12.7644 20.9064 12.7673 20.9035C13.1365 21.0383 13.6932 21.2434 14.4081 21.2434H14.6835C16.6173 21.2434 20.7076 18.9873 21.4313 18.5419C21.7155 18.369 22.0788 18.1786 22.4626 17.9794C23.2889 17.5486 24.2265 17.0623 24.9942 16.4177C26.005 15.5738 26.5148 14.6099 26.5148 13.5521C26.5148 13.3822 26.5969 13.224 26.7346 13.1244C27.5315 12.553 28.5512 11.6271 29.1489 11.047C30.0484 10.1768 30.2593 8.79969 29.6646 7.70095ZM11.6041 18.8701C11.5338 19.1338 11.4488 19.377 11.3814 19.5528C11.2584 19.6202 11.1675 19.6612 11.106 19.6758C10.5991 19.67 10.3676 19.4707 10.1625 19.1572C9.88712 18.7353 9.42711 18.4628 8.93194 18.4276C8.25804 18.3778 8.05587 18.1874 7.70427 17.5604C7.44057 17.0916 6.96592 16.7986 6.4268 16.7781C5.92284 16.7576 5.75583 16.6814 5.70602 16.6521C5.64449 16.6111 5.56831 16.4968 5.44525 16.3005C5.32805 16.113 5.18155 15.8815 4.97059 15.6178C4.75084 15.3453 4.44905 15.1929 4.13261 15.0347C3.47044 14.7007 3.25069 14.5249 3.25069 14.1381V13.8627C3.25069 13.5492 3.57298 12.9896 3.76343 12.6526C3.80738 12.5735 3.85133 12.4973 3.89235 12.4241C3.93337 12.3508 3.96267 12.2747 3.98318 12.1985C4.24395 11.9172 4.73033 11.4982 5.20206 11.4982H5.21964C5.33391 11.5861 5.48041 12.0666 5.48627 12.4944C5.48334 12.8841 5.72067 13.2298 6.08399 13.3705C6.44731 13.5111 6.86044 13.4086 7.1212 13.1214C7.33802 12.8812 7.77166 12.6087 7.89765 12.6644C7.93867 12.7171 8.03243 12.9486 8.02657 13.4437C8.02071 13.8686 7.94746 14.2378 7.94746 14.2378C7.87421 14.5952 8.01192 14.9615 8.30492 15.1783C8.5862 15.3892 8.96417 15.4244 9.27768 15.2691C9.3187 15.2545 9.48571 15.2047 9.71132 15.3336C9.77578 15.3687 9.88419 15.4303 9.87247 15.7584C9.86075 16.0485 9.7582 16.3181 9.74648 16.3503C9.59705 16.6931 9.66737 17.0828 9.91935 17.3582C10.1743 17.6336 10.5698 17.7244 10.9214 17.5985C10.9214 17.5985 11.0269 17.5779 11.147 17.5809C11.358 17.5897 11.5396 17.6658 11.7066 17.8182C11.7184 17.868 11.7975 18.1464 11.6041 18.8701ZM24.6396 13.5521C24.6396 13.9975 24.3994 14.4018 24.0273 14.7681L19.4682 11.2052C19.307 11.0792 19.1166 11.0177 18.9261 11.0177C18.6654 11.0177 18.4075 11.1349 18.2317 11.3546C17.9329 11.7385 18.0003 12.2893 18.3841 12.5882L22.5212 15.82C22.2107 15.9928 21.8972 16.1569 21.5983 16.3122C21.443 16.3913 21.2906 16.4704 21.1441 16.5495L17.1887 13.4584C17.0275 13.3324 16.8371 13.2709 16.6466 13.2709C16.3858 13.2709 16.128 13.3881 15.9522 13.6078C15.6533 13.9916 15.7207 14.5425 16.1046 14.8413L19.4858 17.4813C19.099 17.6864 18.6683 17.9032 18.2229 18.1171L15.586 16.0602C15.4248 15.9342 15.2344 15.8727 15.0468 15.8727C14.7861 15.8727 14.5253 15.9899 14.3524 16.2096C14.0536 16.5935 14.121 17.1443 14.5048 17.4432L16.3888 18.917C15.6768 19.1865 15.0556 19.3682 14.6835 19.3682H14.4081C14.0477 19.3682 13.7371 19.2627 13.4617 19.1601C13.7518 17.9383 13.5965 17.0359 13.0046 16.4704C12.6003 16.0866 12.1579 15.8756 11.7389 15.776C11.7594 14.8472 11.3638 14.1118 10.6196 13.6957C10.3676 13.5551 10.1215 13.4672 9.89298 13.4203V13.3529C9.88419 12.2629 9.5531 11.5011 8.9085 11.088C8.35473 10.7335 7.7072 10.6837 7.04502 10.9386C6.68171 10.0977 6.02246 9.62009 5.1962 9.62009C4.63364 9.62009 4.12968 9.79589 3.70483 10.0332C3.33859 10.2383 2.87565 10.1563 2.60609 9.83105L2.1578 9.289L2.13143 9.2597C1.78569 8.8788 1.77983 8.29574 2.11385 7.90312L2.12557 7.88847L6.24221 2.66722C6.43852 2.44454 6.71687 2.31855 7.01279 2.31855C7.15343 2.31855 7.29407 2.34785 7.42299 2.40645C7.69548 2.52658 7.90644 2.62327 8.09396 2.70824C8.47193 2.88111 8.74735 3.00417 9.16341 3.15946C9.35972 3.23271 9.38316 3.49641 9.20443 3.60482C8.92901 3.77183 8.68582 3.99158 8.5276 4.31095C8.23753 4.89109 8.25511 5.87849 8.85283 6.64322C9.12825 6.99482 9.65272 7.45776 10.5874 7.64821C11.3609 7.80936 12.3219 7.76248 13.4383 7.51636C16.4093 6.85711 17.3703 7.2761 17.4817 7.33177C17.4875 7.3347 17.4904 7.33763 17.4934 7.34349L24.6396 12.8958V13.5521ZM27.845 9.6992C27.0774 10.4434 26.339 11.0704 25.838 11.4543L18.6771 5.88435C18.4808 5.71734 18.0735 5.47122 17.2853 5.34816C16.2218 5.18408 14.7949 5.29835 13.0398 5.68804C11.1206 6.11289 10.52 5.67925 10.3794 5.53861C10.2563 5.41262 10.2299 5.27198 10.227 5.18702C10.3588 5.11963 10.6167 5.03173 10.7954 4.97313C11.0533 4.88523 11.3433 4.78854 11.6393 4.65376C12.486 4.267 13.2068 3.62826 13.2859 3.55501C13.3562 3.49055 13.4148 3.4173 13.4617 3.34112C13.6141 3.26787 13.7547 3.18876 13.8924 3.11551C14.455 2.80786 14.9853 2.51779 16.0753 2.51779H16.5675C16.6349 2.51779 16.8371 2.54416 17.256 2.78735C17.6164 2.99831 18.0178 3.29717 18.4075 3.58724C19.1166 4.11757 19.7846 4.61567 20.4615 4.80026C20.5494 4.8237 20.6431 4.83542 20.7339 4.83542C20.9303 4.83542 21.1207 4.78268 21.2877 4.6772L21.3141 4.65962L22.407 3.87731C22.5535 3.79234 22.7146 3.74839 22.8816 3.74839C23.2127 3.74839 23.5526 3.92126 23.7958 4.21133C24.2382 4.73873 24.8945 5.34816 25.586 5.99276C26.55 6.88934 27.6458 7.90605 28.0179 8.59459C28.2113 8.95791 28.141 9.41206 27.845 9.6992Z" fill="#109AF9"/>
</svg>
