<svg width="30" height="34" viewBox="0 0 30 34" fill="none" xmlns="http://www.w3.org/2000/svg">
<path d="M25.7143 3.07145H23.5714V2.00002C23.5714 1.71586 23.4585 1.44333 23.2576 1.2424C23.0567 1.04147 22.7842 0.928589 22.5 0.928589C22.2158 0.928589 21.9433 1.04147 21.7424 1.2424C21.5415 1.44333 21.4286 1.71586 21.4286 2.00002V3.07145H8.57143V2.00002C8.57143 1.71586 8.45855 1.44333 8.25761 1.2424C8.05668 1.04147 7.78416 0.928589 7.5 0.928589C7.21584 0.928589 6.94332 1.04147 6.74239 1.2424C6.54145 1.44333 6.42857 1.71586 6.42857 2.00002V3.07145H4.28571C3.14907 3.07145 2.05898 3.52298 1.25526 4.3267C0.451529 5.13043 0 6.22052 0 7.35716V28.7857C0 29.9224 0.451529 31.0125 1.25526 31.8162C2.05898 32.6199 3.14907 33.0714 4.28571 33.0714H25.7143C26.8509 33.0714 27.941 32.6199 28.7447 31.8162C29.5485 31.0125 30 29.9224 30 28.7857V7.35716C30 6.22052 29.5485 5.13043 28.7447 4.3267C27.941 3.52298 26.8509 3.07145 25.7143 3.07145ZM27.8571 28.7857C27.8571 29.3541 27.6314 29.8991 27.2295 30.301C26.8276 30.7028 26.2826 30.9286 25.7143 30.9286H4.28571C3.71739 30.9286 3.17235 30.7028 2.77049 30.301C2.36862 29.8991 2.14286 29.3541 2.14286 28.7857V7.35716C2.14286 6.78884 2.36862 6.24379 2.77049 5.84193C3.17235 5.44007 3.71739 5.2143 4.28571 5.2143H6.42857V6.28573C6.42857 6.56989 6.54145 6.84241 6.74239 7.04335C6.94332 7.24428 7.21584 7.35716 7.5 7.35716C7.78416 7.35716 8.05668 7.24428 8.25761 7.04335C8.45855 6.84241 8.57143 6.56989 8.57143 6.28573V5.2143H21.4286V6.28573C21.4286 6.56989 21.5415 6.84241 21.7424 7.04335C21.9433 7.24428 22.2158 7.35716 22.5 7.35716C22.7842 7.35716 23.0567 7.24428 23.2576 7.04335C23.4585 6.84241 23.5714 6.56989 23.5714 6.28573V5.2143H25.7143C26.2826 5.2143 26.8276 5.44007 27.2295 5.84193C27.6314 6.24379 27.8571 6.78884 27.8571 7.35716V28.7857Z" fill="white"/>
<path d="M10.8556 11.9621L7.39494 15.4271L6.06208 14.0921C5.86343 13.9166 5.60532 13.8234 5.34036 13.8316C5.0754 13.8398 4.82353 13.9487 4.63608 14.1361C4.44864 14.3236 4.33973 14.5754 4.33155 14.8404C4.32337 15.1054 4.41655 15.3635 4.59208 15.5621L6.79493 17.7671C6.94196 17.9123 7.12879 18.0106 7.33174 18.0495C7.53469 18.0884 7.74463 18.0662 7.93493 17.9857C8.10629 17.933 8.26271 17.8405 8.39136 17.7157L12.4992 13.6057C12.7163 13.3873 12.8382 13.0918 12.8382 12.7839C12.8382 12.4759 12.7163 12.1805 12.4992 11.9621C12.2808 11.745 11.9854 11.6232 11.6774 11.6232C11.3695 11.6232 11.0741 11.745 10.8556 11.9621ZM16.0714 14.8571H13.9285C13.6443 14.8571 13.3718 14.97 13.1709 15.1709C12.97 15.3719 12.8571 15.6444 12.8571 15.9285C12.8571 16.2127 12.97 16.4852 13.1709 16.6862C13.3718 16.8871 13.6443 17 13.9285 17H16.0714C16.3555 17 16.628 16.8871 16.829 16.6862C17.0299 16.4852 17.1428 16.2127 17.1428 15.9285C17.1428 15.6444 17.0299 15.3719 16.829 15.1709C16.628 14.97 16.3555 14.8571 16.0714 14.8571ZM23.5714 14.8571H21.4285C21.1443 14.8571 20.8718 14.97 20.6709 15.1709C20.47 15.3719 20.3571 15.6444 20.3571 15.9285C20.3571 16.2127 20.47 16.4852 20.6709 16.6862C20.8718 16.8871 21.1443 17 21.4285 17H23.5714C23.8555 17 24.128 16.8871 24.329 16.6862C24.5299 16.4852 24.6428 16.2127 24.6428 15.9285C24.6428 15.6444 24.5299 15.3719 24.329 15.1709C24.128 14.97 23.8555 14.8571 23.5714 14.8571ZM16.0714 21.2857H13.9285C13.6443 21.2857 13.3718 21.3986 13.1709 21.5995C12.97 21.8004 12.8571 22.0729 12.8571 22.3571C12.8571 22.6413 12.97 22.9138 13.1709 23.1147C13.3718 23.3157 13.6443 23.4285 13.9285 23.4285H16.0714C16.3555 23.4285 16.628 23.3157 16.829 23.1147C17.0299 22.9138 17.1428 22.6413 17.1428 22.3571C17.1428 22.0729 17.0299 21.8004 16.829 21.5995C16.628 21.3986 16.3555 21.2857 16.0714 21.2857ZM23.5714 21.2857H21.4285C21.1443 21.2857 20.8718 21.3986 20.6709 21.5995C20.47 21.8004 20.3571 22.0729 20.3571 22.3571C20.3571 22.6413 20.47 22.9138 20.6709 23.1147C20.8718 23.3157 21.1443 23.4285 21.4285 23.4285H23.5714C23.8555 23.4285 24.128 23.3157 24.329 23.1147C24.5299 22.9138 24.6428 22.6413 24.6428 22.3571C24.6428 22.0729 24.5299 21.8004 24.329 21.5995C24.128 21.3986 23.8555 21.2857 23.5714 21.2857ZM8.57136 21.2857H6.42851C6.14435 21.2857 5.87182 21.3986 5.67089 21.5995C5.46996 21.8004 5.35708 22.0729 5.35708 22.3571C5.35708 22.6413 5.46996 22.9138 5.67089 23.1147C5.87182 23.3157 6.14435 23.4285 6.42851 23.4285H8.57136C8.85552 23.4285 9.12805 23.3157 9.32898 23.1147C9.52991 22.9138 9.64279 22.6413 9.64279 22.3571C9.64279 22.0729 9.52991 21.8004 9.32898 21.5995C9.12805 21.3986 8.85552 21.2857 8.57136 21.2857Z" fill="white"/>
</svg>
