<svg width="30" height="36" viewBox="0 0 30 36" fill="none" xmlns="http://www.w3.org/2000/svg">
<path d="M26.1039 24.1946V21.779H29.3766C29.7662 21.779 30 21.5452 30 21.1556V14.8439C30 14.6881 30 14.5322 29.9221 14.4543C29.8442 14.2985 29.6883 14.2985 29.4545 14.2985H26.1039V11.8829C26.1039 11.1037 25.4805 10.4803 24.7013 10.4803H16.0519V8.14263H16.1299C17.6883 7.6751 18.7792 6.19458 18.7792 4.48029C18.7792 3.4673 18.3896 2.45432 17.6104 1.83094C16.9091 1.12964 15.8961 0.662109 14.961 0.662109C12.8571 0.662109 11.1429 2.3764 11.1429 4.48029C11.1429 6.19458 12.3117 7.6751 13.9481 8.14263H14.026V10.4024H5.84416C5.06494 10.4024 4.44156 10.9478 4.44156 11.805V14.2985H0.623377C0.311688 14.2985 -3.6526e-08 14.5322 0 14.9218V21.2335C0 21.5452 0.233766 21.8569 0.623377 21.8569H4.44156V24.1946C4.44156 24.5842 4.5974 24.8959 4.90909 25.2076C5.22078 25.5193 5.53247 25.6751 5.92208 25.6751H14.1039V27.8569H14.026C12.3896 28.3244 11.2208 29.8829 11.2208 31.5193C11.2208 32.5322 11.6104 33.5452 12.3896 34.1686C13.0909 34.8699 14.1039 35.3374 15.039 35.3374C17.1429 35.3374 18.8571 33.6231 18.8571 31.5193C18.8571 29.805 17.7662 28.4024 16.2078 27.9348H16.1299V25.5972H24.7013C25.4805 25.5972 26.1039 24.9738 26.1039 24.1946ZM28.0519 16.0907V19.8309H21.1948V16.0907H28.0519ZM13.7143 5.72704C13.3247 5.33743 13.1688 4.8699 13.2468 4.40237C13.2468 3.4673 14.1039 2.61016 15.039 2.61016C16.0519 2.61016 16.8312 3.4673 16.8312 4.40237C16.8312 4.94782 16.5974 5.41536 16.2857 5.72704C15.974 6.03873 15.5065 6.19458 14.961 6.19458C14.4935 6.19458 14.026 6.03873 13.7143 5.72704V5.72704ZM2.02597 19.753V16.0128H8.96104V19.753H2.02597V19.753ZM16.8312 31.5193C16.8312 32.0647 16.5974 32.5322 16.2857 32.8439C15.974 33.1556 15.5065 33.3115 14.961 33.3115C14.4156 33.3115 13.9481 33.0777 13.6364 32.766C13.4026 32.5322 13.2468 32.0647 13.2468 31.5193C13.2468 30.5063 14.1039 29.727 15.039 29.727C16.0519 29.727 16.8312 30.5063 16.8312 31.5193V31.5193ZM24.0779 23.5712H6.46753V21.779H10.2078C10.5974 21.779 10.8312 21.5452 10.8312 21.1556V14.8439C10.8312 14.5322 10.5974 14.2206 10.2078 14.2206H6.38961V12.2725H24.1558V14.2206H19.9481C19.6364 14.2206 19.3247 14.4543 19.3247 14.8439V21.1556C19.3247 21.4673 19.5584 21.779 19.9481 21.779H24.1558V23.5712H24.0779Z" fill="white"/>
</svg>
