<svg width="30" height="30" viewBox="0 0 30 30" fill="none" xmlns="http://www.w3.org/2000/svg">
<path d="M29.605 4.01181C29.2194 3.12828 28.5722 2.37432 27.7447 1.84445C26.9171 1.31458 25.946 1.03238 24.9531 1.0332L23.6103 1.03414C23.469 1.03275 23.3288 1.05844 23.1978 1.10973C23.0668 1.16101 22.9476 1.23687 22.8472 1.33291C22.7467 1.42896 22.667 1.54328 22.6126 1.66927C22.5583 1.79526 22.5303 1.93041 22.5304 2.0669C22.5304 2.2034 22.5585 2.33852 22.613 2.46446C22.6675 2.5904 22.7473 2.70466 22.8479 2.80061C22.9484 2.89657 23.0676 2.97233 23.1987 3.0235C23.3297 3.07467 23.47 3.10023 23.6113 3.09872H24.9549C25.3368 3.09785 25.7151 3.17018 26.0679 3.31154C26.4207 3.4529 26.7408 3.66047 27.0099 3.92222C27.5586 4.45416 27.8588 5.16003 27.8588 5.91041V9.31431L2.14524 9.31338L2.14125 9.31233V5.91041C2.14195 5.16562 2.44864 4.45153 2.994 3.92486C3.53937 3.39818 4.27885 3.10195 5.05016 3.10118L6.42338 3.11087H6.43112C6.71506 3.11181 6.98775 3.00381 7.18921 2.81061C7.39067 2.61741 7.5044 2.35485 7.50538 2.08068C7.50636 1.80651 7.3945 1.5432 7.19443 1.34867C6.99435 1.15413 6.72243 1.04431 6.4385 1.04337L5.0608 1.03414H5.05342C4.39003 1.03391 3.73308 1.15986 3.12009 1.40479C2.5071 1.64972 1.95008 2.00884 1.48082 2.46165C1.01157 2.91445 0.639271 3.45207 0.385191 4.04381C0.131111 4.63555 0.000222833 5.26982 4.73712e-07 5.91041V25.1271C-0.000287018 25.7677 0.130286 26.402 0.384242 26.9938C0.638198 27.5856 1.01055 28.1232 1.47998 28.5759C1.9494 29.0285 2.50669 29.3873 3.11991 29.6317C3.73314 29.8761 4.39027 30.0013 5.05367 30.0001H24.9542C25.6172 30.0014 26.274 29.8762 26.8868 29.6317C27.4997 29.3873 28.0565 29.0284 28.5253 28.5756C28.9941 28.1228 29.3657 27.5851 29.6188 26.9933C29.8718 26.4016 30.0014 25.7673 30 25.1271V5.91041C30.002 5.25833 29.8677 4.61256 29.605 4.01181ZM27.0091 27.1117C26.7399 27.373 26.4196 27.5802 26.0669 27.7211C25.7141 27.862 25.3359 27.9339 24.9542 27.9326H5.05367C4.67132 27.9339 4.29249 27.8621 3.93909 27.7211C3.58569 27.5802 3.26474 27.373 2.9948 27.1115C2.44524 26.581 2.14113 25.8773 2.14113 25.127V11.3809H2.145L27.8588 11.3818V25.1271C27.8603 25.4957 27.7859 25.861 27.6401 26.2016C27.4942 26.5423 27.2797 26.8516 27.0091 27.1115V27.1117Z" fill="white"/>
<path d="M11.7883 4.13687C11.9289 4.13687 12.0681 4.11014 12.198 4.05819C12.3279 4.00623 12.4459 3.93009 12.5453 3.8341C12.6447 3.7381 12.7236 3.62414 12.7774 3.49872C12.8312 3.3733 12.8588 3.23888 12.8588 3.10312V1.03375C12.8588 0.759584 12.7461 0.496645 12.5453 0.302779C12.3445 0.108913 12.0722 0 11.7883 0C11.5044 0 11.2321 0.108913 11.0313 0.302779C10.8305 0.496645 10.7177 0.759584 10.7177 1.03375V3.10312C10.7177 3.23888 10.7454 3.3733 10.7992 3.49872C10.853 3.62414 10.9319 3.7381 11.0313 3.8341C11.1307 3.93009 11.2487 4.00623 11.3786 4.05819C11.5085 4.11014 11.6477 4.13687 11.7883 4.13687ZM18.2238 4.13687C18.3644 4.13687 18.5036 4.11014 18.6334 4.05819C18.7633 4.00623 18.8814 3.93009 18.9808 3.8341C19.0802 3.7381 19.159 3.62414 19.2128 3.49872C19.2666 3.3733 19.2943 3.23888 19.2943 3.10312V1.03375C19.2943 0.759584 19.1815 0.496645 18.9808 0.302779C18.78 0.108913 18.5077 0 18.2238 0C17.9398 0 17.6675 0.108913 17.4668 0.302779C17.266 0.496645 17.1532 0.759584 17.1532 1.03375V3.10312C17.1532 3.23888 17.1809 3.3733 17.2347 3.49872C17.2885 3.62414 17.3674 3.7381 17.4668 3.8341C17.5662 3.93009 17.6842 4.00623 17.8141 4.05819C17.944 4.11014 18.0832 4.13687 18.2238 4.13687ZM19.2943 13.4485H10.7177C10.4338 13.4485 10.1615 13.5574 9.96072 13.7512C9.75995 13.9451 9.64716 14.208 9.64716 14.4822C9.64716 14.7564 9.75995 15.0193 9.96072 15.2132C10.1615 15.4071 10.4338 15.516 10.7177 15.516H17.2756C16.9453 16.0274 16.574 16.6379 16.2017 17.3212C15.5505 18.5165 15.0303 19.6901 14.6556 20.8091C14.1763 22.2406 13.9333 23.5925 13.9333 24.8273C13.9333 24.9631 13.961 25.0975 14.0148 25.2229C14.0686 25.3483 14.1474 25.4623 14.2468 25.5583C14.3463 25.6543 14.4643 25.7304 14.5942 25.7824C14.724 25.8343 14.8633 25.8611 15.0038 25.8611C15.1444 25.8611 15.2836 25.8343 15.4135 25.7824C15.5434 25.7304 15.6614 25.6543 15.7608 25.5583C15.8603 25.4623 15.9391 25.3483 15.9929 25.2229C16.0467 25.0975 16.0744 24.9631 16.0744 24.8273C16.0744 23.8141 16.2801 22.6827 16.6865 21.4643C17.0206 20.4619 17.4892 19.4026 18.0791 18.316C19.0975 16.4399 20.1341 15.1236 20.144 15.1111C20.2655 14.958 20.3403 14.7751 20.3598 14.5831C20.3793 14.3912 20.3428 14.1977 20.2544 14.0248C20.166 13.8518 20.0292 13.7061 19.8595 13.6043C19.6899 13.5024 19.4941 13.4485 19.2943 13.4485Z" fill="white"/>
</svg>
