<svg width="30" height="30" viewBox="0 0 30 30" fill="none" xmlns="http://www.w3.org/2000/svg">
<path d="M22.0453 7.95476C24.0604 9.96988 25.7768 12.156 27.0997 14.3716C28.6793 17.017 29.6613 19.6441 29.9269 21.9772C30.2167 24.524 29.6491 26.6906 28.1699 28.1698C26.691 29.6488 24.5248 30.2164 21.9786 29.9269C19.646 29.6616 17.0195 28.6802 14.3744 27.1013C12.158 25.7782 9.97082 24.0612 7.95487 22.0452C6.97976 21.0701 6.07328 20.0537 5.24604 19.0106C5.17318 18.9187 5.1008 18.8265 5.02891 18.7338C4.58806 18.1658 4.69113 17.3479 5.25914 16.9071C5.82718 16.4662 6.64505 16.5693 7.0859 17.1373C7.15208 17.2226 7.21884 17.3076 7.28622 17.3926C8.05129 18.3573 8.89129 19.2992 9.79607 20.204C11.6624 22.0703 13.6801 23.6543 15.7091 24.8654C20.3886 27.6588 24.5279 28.1295 26.3287 26.3286C28.13 24.5274 27.6587 20.3869 24.8641 15.7064C23.653 13.6782 22.0696 11.6615 20.2041 9.796C18.6389 8.23078 16.9659 6.86273 15.265 5.74512C14.6641 5.35027 14.497 4.54299 14.8919 3.94208C15.2867 3.34116 16.0939 3.17408 16.6949 3.56893C18.5455 4.78494 20.3561 6.26546 22.0454 7.95476H22.0453ZM12.6793 2.7627C12.4205 3.43353 11.6668 3.76747 10.996 3.50857C7.66179 2.22182 5.01025 2.33259 3.67149 3.67138C1.9176 5.42528 2.31397 9.40328 4.93915 13.9578C5.29819 14.5807 5.08428 15.3768 4.4613 15.7359C3.83836 16.095 3.04226 15.881 2.68318 15.2581C1.19314 12.6729 0.281134 10.1201 0.0554284 7.85491C-0.191144 5.3804 0.384349 3.27606 1.83026 1.83015C2.97159 0.68882 4.53338 0.0849738 6.36737 0.00837637C8.04561 -0.0617475 9.93892 0.309558 11.9335 1.07933C12.6043 1.3382 12.9382 2.09188 12.6794 2.7627H12.6793Z" fill="#109AF9"/>
<path d="M22.0453 22.0453C21.0452 23.0455 20.0016 23.9734 18.9305 24.8176C18.3658 25.2627 17.5472 25.1657 17.102 24.601C16.657 24.0362 16.754 23.2176 17.3187 22.7725C18.3092 21.9919 19.2761 21.1321 20.2041 20.2041C22.5716 17.8366 24.4794 15.23 25.7444 12.6852C27.7589 8.63249 27.9043 5.24706 26.3287 3.67146C24.7557 2.09842 21.3784 2.2407 17.3331 4.24684C14.7827 5.51167 12.1694 7.42285 9.79611 9.7961C8.65051 10.9417 7.60946 12.146 6.69366 13.3794C6.41739 13.7513 6.15005 14.1297 5.89188 14.5143C2.46832 19.6182 1.70036 24.3576 3.67149 26.3287C5.4651 28.1223 9.57926 27.6633 14.2396 24.8962C14.8579 24.5291 15.6567 24.7327 16.0238 25.351C16.3909 25.9692 16.1873 26.768 15.569 27.1352C12.9332 28.7002 10.318 29.6709 7.99588 29.9299C5.46072 30.2127 3.30413 29.6438 1.83026 28.1699C0.233939 26.5736 -0.298337 24.1831 0.155967 21.3795C0.573673 18.8017 1.81912 15.9117 3.72943 13.0638C4.01074 12.6447 4.30204 12.2323 4.60307 11.8271C5.59522 10.4909 6.71969 9.19009 7.95487 7.95491C10.523 5.38672 13.3655 3.30803 16.1762 1.91409C18.5165 0.753519 20.7829 0.0939783 22.7903 0.00942453C24.9869 -0.0831217 26.8539 0.514215 28.1699 1.83026C29.4878 3.14811 30.085 5.01842 29.9904 7.21891C29.904 9.22994 29.2411 11.5004 28.0761 13.8442C26.6822 16.6485 24.6072 19.4834 22.0453 22.0453Z" fill="#109AF9"/>
<path d="M14.982 15.6228C16.5089 15.6228 19.5569 16.3762 19.5569 17.8717V18.9962H10.4072V17.8717C10.4072 16.3762 13.4552 15.6228 14.982 15.6228ZM14.8483 10.0273C16.178 10.0273 17.2561 11.1061 17.2561 12.4368C17.2561 13.7676 16.178 14.8464 14.8483 14.8464C13.5185 14.8464 12.4404 13.7676 12.4404 12.4368C12.4404 11.1061 13.5185 10.0273 14.8483 10.0273H14.8483Z" fill="#109AF9"/>
</svg>
