<svg width="30" height="30" viewBox="0 0 30 30" fill="none" xmlns="http://www.w3.org/2000/svg">
<path d="M4.4507 24.979H2.96569V23.5647H4.44855V24.979H4.4507ZM7.41642 23.5647H5.93356V24.979H7.41642V23.5647ZM10.3821 23.5647H8.89925V24.979H10.3821V23.5647ZM13.3478 23.5647H11.865V24.979H13.3478V23.5647ZM27.0343 19.3197V20.7404H30V27.9875H27.0343V29.3975H24.0664V27.9875H5.93356V29.3975H2.96572V27.9875H0V20.7404H2.96572V19.3197H0V12.2568H30V19.3218L27.0343 19.3197V19.3197ZM28.5193 17.9097V13.6669H1.48283V17.9097H28.5193ZM1.48286 22.1526V26.5733H28.5171V22.1526H1.48286V22.1526ZM24.0664 19.3197H5.93353V20.7404H24.0664V19.3197ZM2.96569 16.4954H4.44855V15.0854H2.96569V16.4954V16.4954ZM5.93356 16.4954H7.41642V15.0854H5.93356V16.4954V16.4954ZM8.89928 16.4954H10.3821V15.0854H8.89928V16.4954ZM11.865 16.4954H13.3479V15.0854H11.865V16.4954ZM25.5514 16.4954H27.0343V15.0854H25.5514V16.4954ZM22.5857 16.4954H24.0664V15.0854H22.5857V16.4954ZM24.0664 25.1525H23.9743V23.5647H27.0343V25.1525H24.0664H24.0664Z" fill="#109AF9"/>
<path d="M24.81 9.18188C24.4178 9.18091 24.1003 8.86277 24.1003 8.47044C24.1003 8.25253 24.1983 8.05751 24.3526 7.92703C25.2597 7.16052 25.8313 6.02338 25.8313 4.75275C25.8313 3.60684 25.3664 2.56954 24.6151 1.81905C24.4864 1.69004 24.4068 1.51206 24.4068 1.31542C24.4068 0.921711 24.726 0.602539 25.1197 0.602539C25.3168 0.602539 25.4952 0.682553 25.6243 0.811887C26.6318 1.81999 27.2548 3.21233 27.2548 4.75016C27.2548 6.45779 26.4865 7.98597 25.2769 9.00799C25.1463 9.1187 24.9865 9.18191 24.812 9.18191C24.8113 9.18191 24.8106 9.18191 24.8099 9.18191L24.81 9.18188ZM22.5472 8.24761C22.7143 8.24761 22.8686 8.1919 22.9929 8.09332C23.981 7.30534 24.6087 6.10157 24.6087 4.75116C24.6087 3.57874 24.1355 2.51681 23.3698 1.74592C23.2417 1.61603 23.0635 1.53545 22.8664 1.53545C22.6694 1.53545 22.4912 1.61603 22.3629 1.74604C22.234 1.87423 22.1544 2.05156 22.1544 2.24755C22.1544 2.4435 22.2341 2.62086 22.3628 2.74893C22.8733 3.26186 23.1889 3.96921 23.1889 4.75016C23.1889 5.65033 22.7697 6.45261 22.1158 6.97236C21.9449 7.10788 21.84 7.30855 21.84 7.53373C21.84 7.70138 21.8982 7.85543 21.9954 7.97679C22.1249 8.14073 22.325 8.24629 22.5498 8.24755L22.5472 8.24761ZM13.1572 9.18188C13.3693 9.18188 13.5643 9.09189 13.6993 8.92686C13.8044 8.80418 13.8684 8.64353 13.8684 8.46794C13.8684 8.25091 13.7706 8.05674 13.6168 7.927C12.7093 7.16544 12.1371 6.032 12.1371 4.76494C12.1371 4.76058 12.1371 4.75625 12.1372 4.75187C12.1372 3.64039 12.5679 2.59897 13.35 1.81896C13.4781 1.68969 13.5572 1.5118 13.5572 1.31537C13.5572 1.11897 13.4781 0.941075 13.35 0.811711C13.2208 0.68373 13.0428 0.604658 12.8464 0.604658C12.65 0.604658 12.4722 0.68373 12.3428 0.811858C11.2928 1.86181 10.7143 3.26109 10.7143 4.75249C10.7142 4.75758 10.7142 4.76358 10.7142 4.76958C10.7142 6.47083 11.4821 7.99277 12.69 9.0077C12.8197 9.11855 12.9785 9.18182 13.152 9.18182C13.1538 9.18182 13.1556 9.18182 13.1574 9.18179L13.1572 9.18188ZM15.4114 8.24761C15.413 8.24761 15.4148 8.24764 15.4167 8.24764C15.8084 8.24764 16.1259 7.93012 16.1259 7.53837C16.1259 7.31184 16.0197 7.11006 15.8543 6.98025C15.1952 6.45891 14.7771 5.66095 14.7771 4.76535C14.7771 4.76164 14.7771 4.75793 14.7771 4.75422C14.7771 3.99837 15.0707 3.28693 15.6043 2.75123C15.7331 2.62313 15.8128 2.44577 15.8128 2.24981C15.8128 2.05385 15.7331 1.87649 15.6043 1.74842C15.4759 1.61829 15.2977 1.53766 15.1007 1.53766C14.9036 1.53766 14.7254 1.61823 14.5972 1.74825C13.7935 2.54974 13.3542 3.6169 13.3542 4.75472C13.3542 4.76134 13.3542 4.7692 13.3542 4.77703C13.3542 6.12111 13.9842 7.31802 14.9651 8.08856C15.0932 8.19023 15.2457 8.24758 15.4115 8.24758L15.4114 8.24761ZM18.27 7.39904V13.4569H19.695V7.39904H18.27ZM17.1321 4.89403C17.1333 3.87242 17.9618 3.04474 18.9836 3.04474C20.0061 3.04474 20.835 3.87363 20.835 4.89615C20.835 4.89695 20.835 4.89765 20.835 4.89839C20.8338 5.91985 20.0053 6.74757 18.9836 6.74757C17.961 6.74757 17.1321 5.91868 17.1321 4.89615C17.1321 4.89536 17.1321 4.89465 17.1321 4.89392M18.9814 7.45477C20.3646 7.41351 21.4702 6.28237 21.4702 4.89298C21.4702 3.50358 20.3646 2.37244 18.9852 2.33127C17.6211 2.40145 16.5448 3.5215 16.5448 4.89298C16.5448 6.26445 17.6211 7.3845 18.9752 7.45448L18.9814 7.45477ZM18.9814 3.75404C19.5894 3.78123 20.072 4.28076 20.072 4.89298C20.072 5.50519 19.5894 6.00472 18.9838 6.03183C18.3524 6.03191 17.8425 5.52199 17.8425 4.89298C17.8425 4.26396 18.3524 3.75404 18.9814 3.75404H18.9814Z" fill="#109AF9"/>
</svg>
