<svg width="30" height="30" viewBox="0 0 30 30" fill="none" xmlns="http://www.w3.org/2000/svg">
<path d="M18 25.1417C15.8975 26.4442 13.4871 27.6459 12.513 28.1469L12.4615 28.1972L12.3588 28.1469C12.3076 28.0967 12.2052 28.0967 12.1537 28.0471C10.4615 27.1455 5.89754 24.7914 4.20508 23.1385C2.41039 21.3859 1.89739 19.5829 1.79515 19.2322L1.74369 5.20878L12.513 1.80305L23.2821 5.20878L23.2306 17.6302H24.9231L24.9745 4.00682L12.513 0L0 3.90608L0.0512309 19.232V19.3825C0.153923 19.8328 0.717923 22.0362 2.92315 24.2402C4.76931 26.0432 9.33323 28.3973 11.2821 29.4489L11.4872 29.5492C11.6924 29.6489 11.8463 29.7496 11.9488 29.7994L12.3588 30L12.8718 29.7496C13.5385 29.4489 15.7435 28.3471 17.9488 27.045V25.1417H18Z" fill="white"/>
<path d="M18.9743 21.5871V16.9796H6.76895V21.5871H8.51264V20.9359H17.2819V21.5871H18.9743ZM8.51264 19.834V18.1815H17.2819V19.834H8.51264ZM8.1538 6.76217C7.43587 8.46493 6.41033 9.96777 4.97449 11.3699L5.2821 12.3715L5.48749 13.1229C5.74364 12.8725 5.94903 12.6219 6.20518 12.3715C6.41056 12.1211 6.61549 11.9207 6.82064 11.6703V16.4285H8.46164V15.9273H19.9999V14.7754H14.6153V13.7237H19.3332V12.7221H14.6153V11.6703H19.3332V10.6187H14.6153V9.51678H19.7947V8.41467H15.0256C14.923 8.16449 14.7693 7.86384 14.6153 7.56318C14.4614 7.26297 14.2563 6.96231 14.1026 6.71191L12.3076 6.91228L12.7179 7.6637L13.0768 8.41489H9.17957L9.94849 6.96254L8.1538 6.76217ZM12.9743 14.7256H8.51264V13.6737H12.9743V14.7256ZM12.9743 12.6723H8.51264V11.6203H12.9743V12.6723ZM12.9743 9.56704V10.6189H8.51264V9.56704H12.9743ZM28.7176 19.6839L29.6407 21.3867C29.8463 21.7376 30 22.3385 30 22.739V28.2484C30 28.749 29.5385 29.1997 29.0255 29.1997H20.41C19.8462 29.1997 19.4359 28.749 19.4359 28.2484V27.8475C19.4359 27.6471 19.5896 27.5473 19.7433 27.5473C19.9484 27.5473 20.0511 27.6974 20.0511 27.8475V28.2484C20.0511 28.3985 20.2048 28.5486 20.359 28.5486H28.9228C29.1282 28.5486 29.2302 28.3985 29.2302 28.2484V22.5889H19.9994V22.9393C19.9994 23.1397 19.8457 23.24 19.692 23.24C19.4864 23.24 19.3842 23.0899 19.3842 22.9393V22.6889C19.3842 22.2887 19.5379 21.6878 19.7433 21.3367L20.6663 19.6842C20.8715 19.2839 21.4357 18.9332 21.9487 18.9332H27.4872C27.9487 18.933 28.5125 19.2834 28.7176 19.6839ZM20.2048 21.9876H29.1792C29.1282 21.8877 29.1282 21.7872 29.077 21.6873L28.1539 19.9841C28.0512 19.7836 27.7438 19.5836 27.4872 19.5836H21.9487C21.6923 19.5836 21.3845 19.784 21.282 19.9841L20.359 21.6371C20.3077 21.7376 20.2563 21.8375 20.2048 21.9876ZM23.6407 25.7442V26.0947C23.6407 26.1449 23.5897 26.1449 23.5897 26.1449L22.1534 27.5477C22.0781 27.6198 21.9769 27.6602 21.8714 27.6602C21.7659 27.6602 21.6647 27.6198 21.5894 27.5477C21.5156 27.4742 21.4742 27.3753 21.4742 27.2723C21.4742 27.1693 21.5156 27.0704 21.5894 26.9969L22.3071 26.2957H19.8974C19.692 26.2957 19.4869 26.0953 19.4869 25.8952C19.4869 25.6951 19.6925 25.4947 19.8974 25.4947H22.3071L21.5382 24.7433C21.4641 24.67 21.4225 24.5711 21.4225 24.4681C21.4225 24.3651 21.4641 24.2662 21.5382 24.1929C21.6133 24.1205 21.7145 24.0798 21.8201 24.0798C21.9256 24.0798 22.0269 24.1205 22.102 24.1929L23.538 25.5452C23.5897 25.5452 23.5897 25.595 23.5897 25.595V25.6953C23.6407 25.6939 23.6407 25.6939 23.6407 25.7442C23.6407 25.7442 23.6407 25.6939 23.6407 25.7442Z" fill="white"/>
</svg>
