<svg width="30" height="30" viewBox="0 0 30 30" fill="none" xmlns="http://www.w3.org/2000/svg">
<path d="M15.1653 9.38737C15.1653 9.12465 15.1444 8.88731 15.1011 8.63355C14.9229 7.65588 14.4076 6.77164 13.6447 6.13477C12.8818 5.4979 11.9198 5.14874 10.926 5.14807C8.89738 5.14807 7.18823 6.54077 6.75982 8.59026L6.71355 8.9097C6.61679 9.56706 6.5679 10.2306 6.56726 10.895C6.56726 18.5899 12.8277 24.8519 20.5241 24.8519C21.0003 24.8519 21.46 24.8205 21.7944 24.7772C21.9004 24.7772 22.0064 24.7742 22.1124 24.7608C22.3094 24.7519 22.499 24.7205 22.7274 24.6742C23.6633 24.457 24.4988 23.9307 25.0987 23.1801C25.6986 22.4296 26.028 21.4987 26.0337 20.5379C26.0337 18.4437 24.541 16.6837 22.4811 16.3449C22.2545 16.3034 22.0247 16.2824 21.7944 16.2822C20.3286 16.2822 18.9851 17.0345 18.2164 18.2421C17.5251 18.2865 16.8324 18.1835 16.184 17.9398C15.5356 17.6961 14.9464 17.3174 14.4555 16.8287C13.9645 16.3401 13.5831 15.7526 13.3364 15.1054C13.0898 14.4581 12.9835 13.7658 13.0247 13.0744C13.6743 12.7023 14.2142 12.1656 14.59 11.5182C14.9658 10.8709 15.1642 10.1359 15.1653 9.38737V9.38737ZM17.8969 20.4931C18.3224 20.4931 18.7373 20.4573 19.1269 20.3872C19.3085 20.3539 19.479 20.2764 19.6235 20.1616C19.768 20.0468 19.882 19.8982 19.9554 19.7289C20.3077 18.9124 21.2332 18.3929 22.0735 18.5481C22.5526 18.6157 22.991 18.8548 23.3072 19.2209C23.6234 19.5871 23.7961 20.0556 23.7932 20.5394C23.7932 21.4664 23.1379 22.2889 22.2437 22.4904C22.1019 22.5173 22.0019 22.5083 21.8496 22.5397L21.6511 22.5471C21.2765 22.5904 20.8997 22.6128 20.5226 22.6143C14.0622 22.6143 8.80484 17.3585 8.80484 10.8965C8.80484 10.3397 8.84514 9.78294 8.92873 9.23064L8.96008 8.9933C9.05371 8.5382 9.3024 8.12971 9.6637 7.83757C10.025 7.54543 10.4765 7.38775 10.9411 7.39145C11.4057 7.39515 11.8546 7.56 12.2112 7.85786C12.5678 8.15572 12.81 8.56811 12.8964 9.02464C12.9814 9.49227 12.8982 9.9749 12.6617 10.3871C12.4251 10.7994 12.0503 11.1146 11.6037 11.2771C11.4187 11.3442 11.2546 11.4589 11.128 11.6096C11.0014 11.7603 10.9168 11.9416 10.8827 12.1355C10.7033 13.1595 10.7501 14.2103 11.0197 15.2143C11.2894 16.2184 11.7754 17.1512 12.4437 17.9475C13.1121 18.7439 13.9465 19.3844 14.8885 19.8241C15.8305 20.2638 16.8573 20.4922 17.8969 20.4931V20.4931Z" fill="white"/>
<path d="M25.6426 0.072876H6.23734C5.149 0.0740613 4.10558 0.506927 3.33601 1.2765C2.56644 2.04607 2.13357 3.08949 2.13239 4.17783V6.79306C2.13239 7.08998 2.25034 7.37474 2.46029 7.58469C2.67024 7.79465 2.955 7.9126 3.25192 7.9126C3.54884 7.9126 3.8336 7.79465 4.04355 7.58469C4.2535 7.37474 4.37145 7.08998 4.37145 6.79306V4.17783C4.37145 3.14935 5.20886 2.31194 6.23734 2.31194H25.6426C26.6711 2.31194 27.5085 3.14935 27.5085 4.17783V25.8221C27.5085 26.8506 26.6711 27.688 25.6426 27.688H6.23734C5.20886 27.688 4.37145 26.8506 4.37145 25.8221V23.2159C4.37145 22.919 4.2535 22.6342 4.04355 22.4242C3.8336 22.2143 3.54884 22.0963 3.25192 22.0963C2.955 22.0963 2.67024 22.2143 2.46029 22.4242C2.25034 22.6342 2.13239 22.919 2.13239 23.2159V25.8221C2.13318 26.9106 2.56592 27.9543 3.33557 28.7239C4.10523 29.4936 5.14888 29.9263 6.23734 29.9271H25.6426C26.731 29.9263 27.7747 29.4936 28.5444 28.7239C29.314 27.9543 29.7468 26.9106 29.7475 25.8221V4.17783C29.746 3.08962 29.313 2.04642 28.5435 1.27693C27.774 0.507448 26.7308 0.0744554 25.6426 0.072876V0.072876Z" fill="white"/>
<path d="M1.13078 12.0683H1.15318L4.1386 12.0086C4.43541 12.0023 4.71761 11.8786 4.92329 11.6645C5.12897 11.4504 5.24134 11.1635 5.23574 10.8667C5.22081 10.2487 4.67896 9.70831 4.09382 9.76951L1.10839 9.82922C0.82143 9.84664 0.552127 9.97365 0.356144 10.184C0.160161 10.3943 0.0524795 10.6719 0.0553543 10.9594C0.0582291 11.2469 0.171441 11.5223 0.371591 11.7286C0.571741 11.935 0.84353 12.0566 1.13078 12.0683V12.0683ZM1.13078 16.1494H1.15318L4.1386 16.0897C4.43541 16.0834 4.71761 15.9596 4.92329 15.7456C5.12897 15.5315 5.24134 15.2446 5.23574 14.9477C5.22081 14.3283 4.67896 13.8924 4.09382 13.8506L1.10839 13.9103C0.811475 13.9133 0.527897 14.0341 0.320044 14.2461C0.11219 14.4582 -0.00291314 14.7441 5.60506e-05 15.041C0.00302524 15.3379 0.123823 15.6215 0.335876 15.8294C0.547929 16.0372 0.833866 16.1523 1.13078 16.1494V16.1494ZM5.23574 19.0288C5.22081 18.4108 4.67896 17.9511 4.09382 17.9317L1.10839 17.9914C0.82143 18.0088 0.552127 18.1358 0.356144 18.3461C0.160161 18.5565 0.0524795 18.8341 0.0553543 19.1215C0.0582291 19.409 0.171441 19.6844 0.371591 19.8908C0.571741 20.0972 0.84353 20.2188 1.13078 20.2304H1.15318L4.1386 20.1707C4.43541 20.1645 4.71761 20.0407 4.92329 19.8266C5.12897 19.6125 5.24134 19.3256 5.23574 19.0288V19.0288Z" fill="white"/>
</svg>
