<svg width="30" height="30" viewBox="0 0 30 30" fill="none" xmlns="http://www.w3.org/2000/svg">
<path d="M25.2 4.8H15C15 2.1489 12.8511 0 10.2 0H4.8C2.1489 0 0 2.1489 0 4.8V25.2C0 27.8511 2.1489 30 4.8 30H25.2C27.8511 30 30 27.8511 30 25.2V9.6C30 6.9489 27.8511 4.8 25.2 4.8ZM4.8 1.8H10.2C11.8542 1.8 13.2 3.1458 13.2 4.8H3C2.58692 4.79993 2.17831 4.88553 1.8 5.0514V4.8C1.8 3.1458 3.1458 1.8 4.8 1.8ZM28.2 25.2C28.2 26.8542 26.8542 28.2 25.2 28.2H4.8C3.1458 28.2 1.8 26.8542 1.8 25.2V7.8C1.8 7.1382 2.3382 6.6 3 6.6H25.2C26.8542 6.6 28.2 7.9458 28.2 9.6V25.2V25.2Z" fill="#109AF9"/>
<path d="M4.51349 17.4004C4.51349 17.5974 4.55229 17.7924 4.62767 17.9744C4.70305 18.1564 4.81354 18.3218 4.95283 18.4611C5.09212 18.6003 5.25747 18.7108 5.43946 18.7862C5.62145 18.8616 5.81651 18.9004 6.01349 18.9004C6.21047 18.9004 6.40553 18.8616 6.58751 18.7862C6.7695 18.7108 6.93486 18.6003 7.07415 18.4611C7.21344 18.3218 7.32393 18.1564 7.39931 17.9744C7.47469 17.7924 7.51349 17.5974 7.51349 17.4004C7.51349 17.2034 7.47469 17.0084 7.39931 16.8264C7.32393 16.6444 7.21344 16.479 7.07415 16.3397C6.93486 16.2004 6.7695 16.09 6.58751 16.0146C6.40553 15.9392 6.21047 15.9004 6.01349 15.9004C5.81651 15.9004 5.62145 15.9392 5.43946 16.0146C5.25747 16.09 5.09212 16.2004 4.95283 16.3397C4.81354 16.479 4.70305 16.6444 4.62767 16.8264C4.55229 17.0084 4.51349 17.2034 4.51349 17.4004V17.4004Z" fill="#109AF9"/>
<path d="M10.4865 16.1992H25.4865V18.5992H10.4865V16.1992Z" fill="#109AF9"/>
<path d="M4.51349 22.8008C4.51349 22.9978 4.55229 23.1928 4.62767 23.3748C4.70305 23.5568 4.81354 23.7222 4.95283 23.8614C5.09212 24.0007 5.25747 24.1112 5.43946 24.1866C5.62145 24.262 5.81651 24.3008 6.01349 24.3008C6.21047 24.3008 6.40553 24.262 6.58751 24.1866C6.7695 24.1112 6.93486 24.0007 7.07415 23.8614C7.21344 23.7222 7.32393 23.5568 7.39931 23.3748C7.47469 23.1928 7.51349 22.9978 7.51349 22.8008C7.51349 22.6038 7.47469 22.4087 7.39931 22.2268C7.32393 22.0448 7.21344 21.8794 7.07415 21.7401C6.93486 21.6008 6.7695 21.4903 6.58751 21.415C6.40553 21.3396 6.21047 21.3008 6.01349 21.3008C5.81651 21.3008 5.62145 21.3396 5.43946 21.415C5.25747 21.4903 5.09212 21.6008 4.95283 21.7401C4.81354 21.8794 4.70305 22.0448 4.62767 22.2268C4.55229 22.4087 4.51349 22.6038 4.51349 22.8008V22.8008Z" fill="#109AF9"/>
<path d="M10.4865 21.5996H25.4865V23.9996H10.4865V21.5996Z" fill="#109AF9"/>
<path d="M4.51349 12C4.51349 12.197 4.55229 12.392 4.62767 12.574C4.70305 12.756 4.81354 12.9214 4.95283 13.0607C5.09212 13.1999 5.25747 13.3104 5.43946 13.3858C5.62145 13.4612 5.81651 13.5 6.01349 13.5C6.21047 13.5 6.40553 13.4612 6.58751 13.3858C6.7695 13.3104 6.93486 13.1999 7.07415 13.0607C7.21344 12.9214 7.32393 12.756 7.39931 12.574C7.47469 12.392 7.51349 12.197 7.51349 12C7.51349 11.803 7.47469 11.608 7.39931 11.426C7.32393 11.244 7.21344 11.0786 7.07415 10.9393C6.93486 10.8001 6.7695 10.6896 6.58751 10.6142C6.40553 10.5388 6.21047 10.5 6.01349 10.5C5.81651 10.5 5.62145 10.5388 5.43946 10.6142C5.25747 10.6896 5.09212 10.8001 4.95283 10.9393C4.81354 11.0786 4.70305 11.244 4.62767 11.426C4.55229 11.608 4.51349 11.803 4.51349 12V12Z" fill="#109AF9"/>
<path d="M10.4865 10.8008H25.4865V13.2008H10.4865V10.8008Z" fill="#109AF9"/>
</svg>
