<svg width="30" height="30" viewBox="0 0 30 30" fill="none" xmlns="http://www.w3.org/2000/svg">
<path d="M29.9076 22.5308L28.552 17.5321L25.2478 6.09433C25.0783 5.41654 24.3158 4.99292 23.638 5.16236L17.0296 7.02629C16.6907 7.11102 16.5212 7.44991 16.6059 7.78881C16.6907 8.12771 17.0296 8.29715 17.3685 8.21243L23.9769 6.3485C24.0617 6.3485 24.1464 6.3485 24.1464 6.43323L25.8409 12.3639L24.2311 12.7875C23.8922 12.8723 23.7228 13.2112 23.8075 13.55C23.8922 13.8042 24.1464 13.9737 24.4006 13.9737H24.57L26.1798 13.55L27.2812 17.2779L24.3158 18.1251C23.9769 18.2099 23.8075 18.5488 23.8922 18.8877C23.9769 19.1418 24.2311 19.3113 24.4853 19.3113H24.6547L27.6201 18.464L28.8909 22.8697V22.9544C28.8909 22.9544 28.8909 23.0391 28.8062 23.0391L22.9602 24.7336V11.6014C22.9602 10.8389 22.3672 10.3305 21.6894 10.3305H14.8267C14.4878 10.3305 14.2337 10.5847 14.2337 10.9236C14.2337 11.2625 14.4878 11.5167 14.8267 11.5167H21.6894C21.7741 11.5167 21.7741 11.6014 21.7741 11.6014V28.6309C21.7741 28.7157 21.6894 28.7157 21.6894 28.7157H5.76126V26.4281C5.76126 25.3267 4.8293 24.3947 3.72788 24.3947H1.60978V11.6014C1.60978 11.5167 1.69451 11.5167 1.69451 11.5167H3.21954C3.55844 11.5167 3.81261 11.2625 3.81261 10.9236C3.81261 10.5847 3.55844 10.3305 3.21954 10.3305H1.69451C0.931989 10.3305 0.423645 10.9236 0.423645 11.6014V25.242C0.423645 25.3267 0.508369 25.3267 0.508369 25.3267V25.4114L4.65985 29.7323C4.8293 29.9018 4.8293 29.9018 4.91402 29.9018C4.99874 29.9018 5.08347 29.9865 5.16819 29.9865H21.6047C22.3672 29.9865 22.8755 29.3934 22.8755 28.7157V25.9198L29.0604 24.1406C29.3993 24.0558 29.6534 23.8017 29.8229 23.5475C29.9923 23.2933 30.0771 22.8697 29.9076 22.5308V22.5308ZM4.57512 26.5128V27.9531L2.3723 25.6656H3.72788C4.1515 25.6656 4.57512 26.0045 4.57512 26.5128Z" fill="#109AF9"/>
<path d="M1.44031 7.61863C1.60976 7.78808 1.86393 7.87281 2.1181 7.70336L3.05007 7.36446L5.67651 9.90618C5.84596 10.0756 5.84596 10.2451 5.84596 10.4993L5.42234 11.8548C5.25289 12.4479 5.42234 13.1257 5.84596 13.634L6.77793 14.566C6.86265 14.6507 6.86265 14.6507 6.94737 14.6507C7.11682 14.8202 7.37099 14.9049 7.54044 14.9049C7.79461 14.9049 7.96406 14.8202 8.13351 14.7355C8.21823 14.7355 8.21823 14.6507 8.30296 14.6507L10.9294 12.0243L15.0809 16.1758C15.1656 16.2605 15.3351 16.3452 15.5045 16.3452C15.674 16.3452 15.8434 16.2605 15.9281 16.1758C16.1823 15.9216 16.1823 15.5827 15.9281 15.3285L11.7766 11.177L14.4031 8.5506C14.6573 8.29643 14.742 8.04225 14.742 7.70336C14.742 7.36446 14.6573 7.11029 14.4031 6.85612L13.4711 5.92415C13.0475 5.50053 12.3697 5.33108 11.6919 5.50053L10.3363 5.92415C10.1669 6.00888 9.91272 5.92415 9.74327 5.7547L7.20154 3.21298L7.62517 2.28102C7.70989 2.02685 7.70989 1.77267 7.54044 1.60322L6.60848 0.332364C6.18486 -0.0912567 5.50706 -0.0912567 4.99872 0.332364H4.914L2.62645 2.61991L0.338896 4.90746C0.0847241 5.16164 0 5.41581 0 5.7547C0 6.0936 0.0847241 6.34777 0.338896 6.60194L1.44031 7.61863ZM9.06547 6.4325C9.48909 6.85612 10.1669 7.02557 10.8447 6.85612L12.2003 6.51722C12.3697 6.4325 12.6239 6.51722 12.7933 6.68667L13.7253 7.61863L10.6752 10.6687L7.62517 13.7188L6.6932 12.7868C6.52375 12.5326 6.43903 12.3632 6.52375 12.109L6.94737 10.7534C7.11682 10.1604 6.94737 9.48256 6.52375 8.97422L3.55841 6.17832C3.38896 6.00888 3.13479 6.00888 2.88062 6.0936L1.94865 6.51722L1.18614 5.7547L3.47369 3.46715L5.76124 1.1796L6.52375 1.94212L6.10013 2.87409C6.01541 3.12826 6.01541 3.38243 6.18486 3.55188L9.06547 6.4325V6.4325ZM18.8087 18.6328H5.42234C5.08344 18.6328 4.82927 18.8869 4.82927 19.2258C4.82927 19.5647 5.08344 19.8189 5.42234 19.8189H18.8935C19.2324 19.8189 19.4865 19.5647 19.4865 19.2258C19.4865 18.8869 19.1476 18.6328 18.8087 18.6328ZM18.8087 23.2079H8.89603C8.55713 23.2079 8.30296 23.462 8.30296 23.8009C8.30296 24.1398 8.55713 24.394 8.89603 24.394H18.8087C19.1476 24.394 19.4018 24.1398 19.4018 23.8009C19.4018 23.462 19.1476 23.2079 18.8087 23.2079Z" fill="#109AF9"/>
</svg>
