<svg width="29" height="26" viewBox="0 0 29 26" fill="none" xmlns="http://www.w3.org/2000/svg">
<path d="M1.75647 23.2111V5.75143C1.75647 5.522 1.94344 5.33548 2.17287 5.33548H10.8515C11.0675 6.82046 12.3488 7.96504 13.8927 7.96504C15.4366 7.96504 16.7183 6.82046 16.9343 5.33548H25.8793C26.1083 5.33548 26.2952 5.522 26.2952 5.75143V16.0094H28.0517V5.75143C28.0517 4.55373 27.0774 3.57901 25.8793 3.57901H16.9665V1.37823C16.9665 0.893216 16.5738 0.5 16.0883 0.5H11.6975C11.2125 0.5 10.8193 0.893216 10.8193 1.37823V3.57897H2.17287C0.974725 3.57897 0 4.5537 0 5.75139V23.2111C0 24.4088 0.974725 25.3835 2.17287 25.3835H16.3061V23.627H2.17287C1.94344 23.627 1.75647 23.4405 1.75647 23.2111V23.2111ZM12.5758 2.25647H15.21V4.89117C15.21 5.61759 14.6191 6.20854 13.8927 6.20854C13.1662 6.20854 12.5758 5.61762 12.5758 4.89117V2.25647V2.25647Z" fill="white"/>
<path d="M22.0164 15.186C22.0164 15.671 21.6236 16.0643 21.1382 16.0643H17.5695C17.0841 16.0643 16.6913 15.671 16.6913 15.186C16.6913 14.701 17.0841 14.3078 17.5695 14.3078H21.1382C21.6236 14.3078 22.0164 14.701 22.0164 15.186Z" fill="white"/>
<path d="M16.6913 11.463C16.6913 10.978 17.0841 10.5847 17.5695 10.5847H23.158C23.6434 10.5847 24.0362 10.9779 24.0362 11.463C24.0362 11.9479 23.6434 12.3412 23.158 12.3412H17.5695C17.0841 12.3412 16.6913 11.9479 16.6913 11.463Z" fill="white"/>
<path d="M24.0422 16.5226C24.1257 16.5226 24.2075 16.5459 24.2784 16.5898C24.3494 16.6338 24.4067 16.6966 24.4439 16.7713L24.8533 17.5923C24.9162 17.6161 24.9776 17.6417 25.0391 17.6691L25.8866 17.3867C25.9657 17.3604 26.0505 17.3566 26.1316 17.3758C26.2127 17.395 26.2869 17.4364 26.3458 17.4953L27.0195 18.1691C27.0785 18.228 27.1199 18.3022 27.1391 18.3833C27.1582 18.4644 27.1545 18.5492 27.1282 18.6283L26.8611 19.4322C26.9046 19.5251 26.9446 19.6203 26.98 19.7163L27.8064 20.1311C27.8809 20.1684 27.9435 20.2257 27.9872 20.2966C28.031 20.3674 28.0542 20.4491 28.0542 20.5324V21.4885C28.0542 21.5717 28.031 21.6534 27.9872 21.7243C27.9435 21.7951 27.8809 21.8524 27.8064 21.8897L26.9859 22.3014C26.9477 22.4001 26.9051 22.4975 26.858 22.5931L27.1129 23.371C27.1385 23.4492 27.1421 23.5329 27.1234 23.613C27.1046 23.6932 27.0642 23.7666 27.0065 23.8253L26.3449 24.4981C26.2857 24.5583 26.2108 24.6006 26.1287 24.6201C26.0466 24.6396 25.9607 24.6356 25.8808 24.6085L25.0768 24.3361C24.9751 24.3835 24.8711 24.4262 24.7653 24.464L24.3793 25.2495C24.3423 25.3247 24.2849 25.388 24.2138 25.4323C24.1426 25.4765 24.0605 25.5 23.9767 25.5H23.043C22.9592 25.4999 22.877 25.4764 22.8059 25.4321C22.7347 25.3877 22.6774 25.3243 22.6404 25.2491L22.2283 24.4115C22.1744 24.39 22.121 24.3673 22.0681 24.3433L21.235 24.626C21.155 24.6531 21.0691 24.657 20.987 24.6374C20.9049 24.6178 20.83 24.5754 20.7709 24.5152L20.1155 23.8495C20.0579 23.7907 20.0175 23.7172 19.9988 23.637C19.9801 23.5568 19.9838 23.473 20.0096 23.3948L20.2731 22.5904C20.2266 22.4961 20.1842 22.3998 20.146 22.3018L19.3246 21.8897C19.2502 21.8524 19.1875 21.7951 19.1438 21.7243C19.1 21.6534 19.0768 21.5717 19.0768 21.4885V20.5324C19.0768 20.4491 19.1 20.3674 19.1438 20.2966C19.1875 20.2257 19.2502 20.1684 19.3246 20.1311L20.1505 19.7168C20.1864 19.6194 20.2264 19.5238 20.2704 19.43L20.0015 18.6224C19.9753 18.5434 19.9716 18.4587 19.9907 18.3777C20.0099 18.2967 20.0513 18.2226 20.1101 18.1637L20.7776 17.4967C20.8365 17.4377 20.9107 17.3964 20.9918 17.3772C21.0729 17.358 21.1577 17.3618 21.2368 17.3881L22.0874 17.6717C22.1502 17.6435 22.2135 17.617 22.2777 17.5923L22.6875 16.7709C22.7248 16.6962 22.7823 16.6334 22.8533 16.5895C22.9244 16.5457 23.0062 16.5225 23.0897 16.5226H24.0427H24.0422ZM23.8833 17.4204H23.2477L22.8105 18.2966L22.5807 18.385L22.5075 18.4146L22.4353 18.446L22.209 18.5479L21.2969 18.2436L20.8539 18.6871L21.1452 19.5628L21.0379 19.7917C21.0155 19.8398 20.9944 19.8882 20.9747 19.9376L20.9459 20.0117L20.8593 20.2469L19.9746 20.6908V21.33L20.8499 21.7686L20.9378 21.9961C20.9576 22.0464 20.9782 22.0958 21.0007 22.1447L21.0352 22.2174L21.1497 22.4495L20.8606 23.3297L21.2938 23.7705L22.1897 23.4666L22.4173 23.5699L22.4788 23.5968L22.5407 23.6224L22.7679 23.7121L23.2055 24.6022H23.8205L24.2397 23.7507L24.4812 23.6641C24.5351 23.6448 24.5889 23.6237 24.6414 23.6013L24.72 23.5663L24.9503 23.4585L25.8224 23.7539L26.2623 23.3068L25.9818 22.4517L26.0958 22.2201C26.12 22.1712 26.1425 22.1218 26.1631 22.072L26.1941 21.9966L26.2821 21.769L27.1564 21.33V20.6908L26.2722 20.2469L26.1851 20.013C26.1669 19.9637 26.1473 19.9149 26.1263 19.8667L26.0935 19.7949L25.9858 19.566L26.2762 18.692L25.8265 18.2423L24.9188 18.5448L24.6935 18.4442L24.6226 18.4137L24.5508 18.385L24.3205 18.297L23.8833 17.4204ZM23.5655 19.2158C24.0417 19.2158 24.4984 19.405 24.8351 19.7417C25.1718 20.0784 25.361 20.5351 25.361 21.0113C25.361 21.4875 25.1718 21.9442 24.8351 22.2809C24.4984 22.6176 24.0417 22.8068 23.5655 22.8068C23.0893 22.8068 22.6326 22.6176 22.2959 22.2809C21.9592 21.9442 21.77 21.4875 21.77 21.0113C21.77 20.5351 21.9592 20.0784 22.2959 19.7417C22.6326 19.405 23.0893 19.2158 23.5655 19.2158V19.2158ZM23.5655 20.1136C23.4476 20.1136 23.3309 20.1368 23.222 20.1819C23.113 20.227 23.0141 20.2932 22.9307 20.3765C22.8474 20.4599 22.7812 20.5588 22.7361 20.6678C22.691 20.7767 22.6678 20.8934 22.6678 21.0113C22.6678 21.1292 22.691 21.2459 22.7361 21.3549C22.7812 21.4638 22.8474 21.5627 22.9307 21.6461C23.0141 21.7295 23.113 21.7956 23.222 21.8407C23.3309 21.8858 23.4476 21.909 23.5655 21.909C23.8036 21.909 24.0319 21.8145 24.2003 21.6461C24.3687 21.4777 24.4632 21.2494 24.4632 21.0113C24.4632 20.7732 24.3687 20.5449 24.2003 20.3765C24.0319 20.2082 23.8036 20.1136 23.5655 20.1136V20.1136Z" fill="white"/>
<path d="M3.36652 18.3966V19.9951C3.36652 20.47 3.75365 20.8552 4.23109 20.8552H14.8458C15.3237 20.8552 15.7104 20.47 15.7104 19.9951V18.3966C15.7104 18.2368 15.6657 18.0802 15.5813 17.9443C15.4969 17.8084 15.3761 17.6986 15.2325 17.6272L12.0461 16.043L12.8701 14.8502C12.969 14.7068 13.022 14.537 13.0221 14.363V11.8452C13.0221 9.97585 11.5205 8.51135 9.60305 8.51135C7.68604 8.51135 6.18401 9.97585 6.18401 11.8452V14.363C6.18396 14.5417 6.23988 14.716 6.34399 14.8616L7.18365 16.0363L3.85749 17.6209C3.71044 17.6909 3.58631 17.8009 3.49944 17.9382C3.41256 18.0755 3.36648 18.2344 3.36652 18.3966ZM5.0957 18.9384L8.85711 17.1463C8.97076 17.0922 9.07114 17.014 9.15122 16.9172C9.23129 16.8204 9.28912 16.7074 9.32064 16.586C9.35212 16.4646 9.35657 16.3378 9.33367 16.2144C9.31078 16.0911 9.2611 15.9743 9.1881 15.872L7.91319 14.0883V11.8452C7.91319 10.9405 8.65534 10.2316 9.60308 10.2316C10.5508 10.2316 11.293 10.9405 11.293 11.8452V14.0959L10.0582 15.8834C9.98822 15.9848 9.94091 16.0999 9.91942 16.2211C9.89794 16.3422 9.90278 16.4665 9.93363 16.5856C9.96448 16.7047 10.0207 16.8158 10.0984 16.9114C10.1761 17.0071 10.2735 17.085 10.3841 17.14L13.9813 18.9283V19.135H5.0957V18.9384Z" fill="white"/>
</svg>
