<svg width="30" height="28" viewBox="0 0 30 28" fill="none" xmlns="http://www.w3.org/2000/svg">
<path d="M1.8783 24.9193V6.24866C1.8783 6.00332 2.07824 5.80386 2.32358 5.80386H11.6042C11.8351 7.39184 13.2053 8.61581 14.8563 8.61581C16.5073 8.61581 17.8779 7.39184 18.1089 5.80386H27.6742C27.9191 5.80386 28.119 6.00332 28.119 6.24866V17.2181H29.9973V6.24866C29.9973 4.96789 28.9554 3.92556 27.6742 3.92556H18.1433V1.57214C18.1433 1.05349 17.7233 0.632996 17.2042 0.632996H12.5089C11.9902 0.632996 11.5697 1.05349 11.5697 1.57214V3.92553H2.32358C1.04233 3.92553 0 4.96786 0 6.24862V24.9193C0 26.2 1.04233 27.2424 2.32358 27.2424H17.4371V25.3641H2.32358C2.07824 25.3641 1.8783 25.1646 1.8783 24.9193V24.9193ZM13.448 2.51129H16.265V5.32874C16.265 6.10554 15.6331 6.73748 14.8563 6.73748C14.0794 6.73748 13.448 6.10558 13.448 5.32874V2.51129V2.51129Z" fill="#109AF9"/>
<path d="M23.5435 16.3376C23.5435 16.8562 23.1235 17.2768 22.6044 17.2768H18.7881C18.269 17.2768 17.849 16.8562 17.849 16.3376C17.849 15.819 18.269 15.3985 18.7881 15.3985H22.6044C23.1235 15.3985 23.5435 15.819 23.5435 16.3376Z" fill="#109AF9"/>
<path d="M17.849 12.3563C17.849 11.8377 18.269 11.4172 18.7881 11.4172H24.7642C25.2833 11.4172 25.7034 11.8377 25.7034 12.3563C25.7034 12.8749 25.2833 13.2955 24.7642 13.2955H18.7881C18.269 13.2955 17.849 12.8749 17.849 12.3563Z" fill="#109AF9"/>
<path d="M25.7098 17.767C25.799 17.767 25.8865 17.7919 25.9624 17.8388C26.0383 17.8858 26.0996 17.953 26.1394 18.0329L26.5771 18.9108C26.6443 18.9362 26.7101 18.9636 26.7759 18.9929L27.6821 18.691C27.7667 18.6628 27.8574 18.6588 27.9441 18.6793C28.0308 18.6998 28.1101 18.7441 28.1731 18.8071L28.8936 19.5276C28.9567 19.5906 29.0009 19.6699 29.0214 19.7566C29.0419 19.8434 29.0379 19.9341 29.0098 20.0186L28.7242 20.8783C28.7707 20.9777 28.8135 21.0794 28.8514 21.1822L29.7351 21.6257C29.8147 21.6656 29.8816 21.7269 29.9284 21.8026C29.9752 21.8784 30 21.9657 30 22.0548V23.0772C30 23.1663 29.9752 23.2536 29.9284 23.3294C29.8816 23.4052 29.8147 23.4664 29.7351 23.5063L28.8576 23.9465C28.8168 24.0521 28.7712 24.1562 28.7208 24.2585L28.9935 25.0903C29.0208 25.1739 29.0247 25.2635 29.0047 25.3491C28.9846 25.4348 28.9414 25.5133 28.8797 25.5761L28.1722 26.2956C28.1089 26.36 28.0288 26.4052 27.941 26.426C27.8532 26.4469 27.7613 26.4426 27.6759 26.4137L26.8162 26.1223C26.7073 26.1731 26.5962 26.2187 26.4831 26.2591L26.0703 27.0991C26.0307 27.1795 25.9693 27.2472 25.8932 27.2945C25.8171 27.3419 25.7293 27.367 25.6397 27.367H24.6413C24.5516 27.3669 24.4638 27.3418 24.3877 27.2943C24.3116 27.2469 24.2503 27.1791 24.2107 27.0986L23.7701 26.203C23.7124 26.18 23.6553 26.1557 23.5987 26.13L22.7079 26.4324C22.6224 26.4613 22.5304 26.4655 22.4426 26.4445C22.3549 26.4236 22.2748 26.3783 22.2115 26.3138L21.5107 25.602C21.4491 25.5391 21.4059 25.4605 21.3859 25.3748C21.3659 25.289 21.3699 25.1994 21.3975 25.1158L21.6792 24.2556C21.6295 24.1547 21.5842 24.0518 21.5434 23.947L20.665 23.5063C20.5854 23.4664 20.5184 23.4052 20.4716 23.3294C20.4248 23.2536 20.4 23.1663 20.4 23.0772V22.0548C20.4 21.9657 20.4248 21.8784 20.4716 21.8026C20.5184 21.7269 20.5854 21.6656 20.665 21.6257L21.5482 21.1826C21.5866 21.0785 21.6293 20.9762 21.6763 20.8759L21.3888 20.0124C21.3608 19.9279 21.3568 19.8373 21.3773 19.7507C21.3978 19.664 21.442 19.5848 21.505 19.5218L22.2187 18.8086C22.2817 18.7455 22.361 18.7013 22.4478 18.6808C22.5345 18.6602 22.6252 18.6643 22.7098 18.6924L23.6194 18.9958C23.6866 18.9655 23.7543 18.9372 23.8229 18.9108L24.2611 18.0324C24.3011 17.9525 24.3624 17.8854 24.4384 17.8385C24.5144 17.7916 24.6019 17.7668 24.6912 17.767H25.7103H25.7098ZM25.5399 18.727H24.8602L24.3927 19.6639L24.1469 19.7585L24.0687 19.7902L23.9914 19.8238L23.7495 19.9327L22.7741 19.6073L22.3003 20.0815L22.6119 21.018L22.4971 21.2628C22.4731 21.3142 22.4506 21.366 22.4295 21.4188L22.3987 21.498L22.3061 21.7495L21.36 22.2242V22.9078L22.296 23.3767L22.3901 23.6201C22.4112 23.6738 22.4333 23.7266 22.4573 23.779L22.4943 23.8567L22.6167 24.1049L22.3075 25.0462L22.7707 25.5175L23.7288 25.1926L23.9722 25.303L24.0379 25.3318L24.1042 25.3591L24.3471 25.4551L24.8151 26.407H25.4727L25.921 25.4964L26.1792 25.4038C26.2368 25.3831 26.2944 25.3606 26.3506 25.3366L26.4346 25.2991L26.6808 25.1839L27.6135 25.4998L28.0839 25.0217L27.7839 24.1073L27.9058 23.8596C27.9317 23.8073 27.9557 23.7545 27.9778 23.7012L28.0109 23.6206L28.105 23.3772L29.04 22.9078V22.2242L28.0944 21.7495L28.0013 21.4994C27.9818 21.4467 27.9608 21.3945 27.9384 21.343L27.9034 21.2662L27.7882 21.0214L28.0987 20.0868L27.6178 19.6058L26.6472 19.9294L26.4063 19.8218L26.3304 19.7892L26.2536 19.7585L26.0074 19.6644L25.5399 18.727ZM25.2 20.647C25.7092 20.647 26.1976 20.8493 26.5577 21.2093C26.9177 21.5694 27.12 22.0578 27.12 22.567C27.12 23.0762 26.9177 23.5645 26.5577 23.9246C26.1976 24.2847 25.7092 24.487 25.2 24.487C24.6908 24.487 24.2024 24.2847 23.8424 23.9246C23.4823 23.5645 23.28 23.0762 23.28 22.567C23.28 22.0578 23.4823 21.5694 23.8424 21.2093C24.2024 20.8493 24.6908 20.647 25.2 20.647V20.647ZM25.2 21.607C25.074 21.607 24.9491 21.6318 24.8326 21.68C24.7162 21.7283 24.6103 21.799 24.5212 21.8881C24.4321 21.9773 24.3613 22.0831 24.3131 22.1996C24.2649 22.3161 24.24 22.4409 24.24 22.567C24.24 22.693 24.2649 22.8179 24.3131 22.9343C24.3613 23.0508 24.4321 23.1566 24.5212 23.2458C24.6103 23.3349 24.7162 23.4056 24.8326 23.4539C24.9491 23.5021 25.074 23.527 25.2 23.527C25.4546 23.527 25.6988 23.4258 25.8788 23.2458C26.0589 23.0658 26.16 22.8216 26.16 22.567C26.16 22.3124 26.0589 22.0682 25.8788 21.8881C25.6988 21.7081 25.4546 21.607 25.2 21.607V21.607Z" fill="#109AF9"/>
<path d="M3.60004 19.7709V21.4802C3.60004 21.9882 4.01402 22.4 4.52458 22.4H15.8755C16.3865 22.4 16.8 21.9882 16.8 21.4802V19.7709C16.8001 19.6001 16.7523 19.4326 16.662 19.2873C16.5717 19.1419 16.4426 19.0245 16.289 18.9481L12.8816 17.254L13.7628 15.9785C13.8686 15.8252 13.9252 15.6436 13.9253 15.4576V12.7651C13.9253 10.7661 12.3195 9.20001 10.2691 9.20001C8.21916 9.20001 6.61295 10.7661 6.61295 12.7651V15.4576C6.6129 15.6486 6.6727 15.835 6.78402 15.9907L7.68193 17.2468L4.12506 18.9413C3.96782 19.0163 3.83508 19.1339 3.74218 19.2807C3.64928 19.4275 3.6 19.5974 3.60004 19.7709ZM5.44915 20.3502L9.47145 18.4339C9.59299 18.376 9.70033 18.2924 9.78596 18.1889C9.87159 18.0854 9.93342 17.9645 9.96714 17.8347C10.0008 17.7049 10.0056 17.5693 9.98107 17.4374C9.95659 17.3055 9.90346 17.1806 9.8254 17.0712L8.46206 15.1638V12.7651C8.46206 11.7977 9.25569 11.0396 10.2692 11.0396C11.2826 11.0396 12.0763 11.7977 12.0763 12.7651V15.1719L10.7558 17.0834C10.681 17.1918 10.6304 17.3149 10.6074 17.4445C10.5845 17.574 10.5897 17.7069 10.6226 17.8343C10.6556 17.9616 10.7157 18.0804 10.7988 18.1827C10.8819 18.285 10.9861 18.3683 11.1043 18.4271L14.951 20.3395V20.5605H5.44915V20.3502Z" fill="#109AF9"/>
</svg>
