<svg width="30" height="30" viewBox="0 0 30 30" fill="none" xmlns="http://www.w3.org/2000/svg">
<path d="M21.9447 26.2161L22.287 29.9028L24.911 27.2886L28.9375 16.1613L25.9713 15.0888L21.9447 26.2161ZM26.3032 14.1735L27.0341 12.1565L30 13.229L29.269 15.2459L26.3032 14.1735ZM7.51288 5.35583C8.1068 5.35583 8.58663 4.87655 8.58663 4.28667V1.06915C8.58663 0.479276 8.1068 0 7.51288 0H7.50953C6.91897 0 6.43914 0.479276 6.43914 1.06915V4.28332C6.43914 4.87655 6.92232 5.35583 7.51288 5.35583ZM10.7308 4.28332H12.8816C13.4722 4.28332 13.952 3.80404 13.952 3.21417C13.952 2.62429 13.4722 2.14501 12.8816 2.14501H10.7308C10.1402 2.14501 9.65703 2.62429 9.65703 3.21417C9.66038 3.80404 10.1402 4.28332 10.7308 4.28332ZM16.0995 5.35583C16.6934 5.35583 17.1733 4.87655 17.1733 4.28667V1.06915C17.1733 0.479276 16.6934 0 16.0995 0H16.0962C15.5056 0 15.0258 0.479276 15.0258 1.06915V4.28332C15.0291 4.87655 15.509 5.35583 16.0995 5.35583ZM16.0962 27.855H3.21789C2.62397 27.855 2.14414 27.3757 2.14414 26.7825V5.35583C2.14414 4.7626 2.62397 4.28332 3.21789 4.28332H4.29164C4.8822 4.28332 5.36539 3.80404 5.36539 3.21417C5.36539 2.62429 4.88556 2.14501 4.29164 2.14501H3.21789C1.43949 2.14501 0 3.58284 0 5.35918V26.7858C0 28.5622 1.44285 30 3.21789 30H16.0928C16.6834 30 17.1666 29.5207 17.1666 28.9275C17.1666 28.3343 16.6867 27.855 16.0962 27.855ZM22.5387 14.9983C23.1292 14.9983 23.609 14.519 23.609 13.9292V5.35583C23.609 3.57949 22.1662 2.14166 20.3912 2.14166H19.3174C18.7268 2.14166 18.2437 2.62094 18.2437 3.21081C18.2437 3.80069 18.7235 4.27997 19.3174 4.27997H20.3912C20.9851 4.27997 21.4649 4.75924 21.4649 5.35247V13.9258C21.4649 14.519 21.9447 14.9983 22.5387 14.9983Z" fill="white"/>
<path d="M11.3985 14.2275C11.2609 13.8688 11.1468 13.584 11.0596 13.3728C10.9724 13.1583 10.8616 12.9606 10.7308 12.7729C10.5999 12.5885 10.4321 12.4344 10.2207 12.3171C10.0093 12.1998 9.74761 12.1394 9.4322 12.1394C9.1235 12.1394 8.86177 12.1998 8.65038 12.3171C8.43898 12.4344 8.26785 12.5885 8.14035 12.7796C8.00948 12.9706 7.88869 13.2119 7.7746 13.5002C7.66052 13.7884 7.56321 14.0364 7.48268 14.2442L4.62717 21.4267C4.50973 21.7149 4.42585 21.9361 4.37552 22.097C4.32518 22.2579 4.29834 22.4154 4.29834 22.5662C4.29834 22.8276 4.40907 23.0622 4.62717 23.2667C4.84528 23.4745 5.09694 23.575 5.38215 23.575C5.7177 23.575 5.95929 23.4778 6.10693 23.2834C6.25458 23.089 6.43241 22.717 6.64045 22.164L7.17397 20.7463H11.7106L12.2441 22.1338C12.3145 22.3048 12.4018 22.5025 12.4991 22.7271C12.5998 22.9516 12.6904 23.1159 12.7776 23.2265C12.8648 23.3337 12.9722 23.4209 13.0964 23.4845C13.2239 23.5482 13.3749 23.5784 13.5527 23.5784C13.8581 23.5784 14.1164 23.4711 14.3345 23.2566C14.5493 23.0421 14.6567 22.8075 14.6567 22.5528C14.6567 22.3081 14.5426 21.9126 14.3144 21.3697L11.3985 14.2275ZM7.76453 19.0604L9.41878 14.4956L11.1032 19.0604H7.76453ZM18.1866 11.5127H17.1129V10.4402C17.1129 9.84695 16.633 9.36768 16.0391 9.36768C15.4452 9.36768 14.9654 9.84695 14.9654 10.4402V11.5127H13.8916C13.2977 11.5127 12.8179 11.992 12.8179 12.5852C12.8179 13.1784 13.2977 13.6577 13.8916 13.6577H14.9654V14.7302C14.9654 15.3234 15.4452 15.8027 16.0391 15.8027C16.633 15.8027 17.1129 15.3234 17.1129 14.7302V13.6577H18.1866C18.7805 13.6577 19.2604 13.1784 19.2604 12.5852C19.2604 11.992 18.7805 11.5127 18.1866 11.5127Z" fill="white"/>
</svg>
