<svg width="30" height="30" viewBox="0 0 30 30" fill="none" xmlns="http://www.w3.org/2000/svg">
<path d="M26.4374 21.4438V18.536C26.4374 17.9443 25.9577 17.4646 25.3659 17.4646H19.8316V13.3573C21.579 11.9328 22.5954 9.79731 22.6003 7.54021C22.6003 3.3823 19.1916 0 15 0C10.8084 0 7.39969 3.3823 7.39969 7.54018C7.39969 9.79654 8.42451 11.9295 10.1706 13.3573V17.4646H4.63406C4.04233 17.4646 3.56263 17.9443 3.56263 18.536V21.4438H1.07143C0.479699 21.4438 0 21.9235 0 22.5152V28.9286C0 29.5203 0.479699 30 1.07143 30H28.9286C29.5203 30 30 29.5203 30 28.9286V22.5152C30 21.9235 29.5203 21.4438 28.9286 21.4438H26.4374ZM11.8821 11.9332C10.4429 10.9358 9.58168 9.29685 9.57589 7.54436C9.57589 4.58471 12.0098 2.17634 15.0011 2.17634C17.9923 2.17634 20.4241 4.58471 20.4241 7.54436C20.4178 9.29729 19.5557 10.9363 18.1157 11.9332L17.6531 12.2574V17.2098C17.6531 17.2809 17.6249 17.349 17.5747 17.3992C17.5244 17.4495 17.4563 17.4777 17.3853 17.4777H12.6125C12.5415 17.4777 12.4734 17.4495 12.4231 17.3992C12.3729 17.349 12.3447 17.2809 12.3447 17.2098V12.2574L11.8821 11.9332V11.9332ZM5.95982 19.5536H24.0067C24.0777 19.5536 24.1459 19.5818 24.1961 19.632C24.2463 19.6823 24.2746 19.7504 24.2746 19.8214V21.0937C24.2746 21.1648 24.2463 21.2329 24.1961 21.2832C24.1459 21.3334 24.0777 21.3616 24.0067 21.3616H5.95982C5.88878 21.3616 5.82065 21.3334 5.77042 21.2832C5.72018 21.2329 5.69196 21.1648 5.69196 21.0937V19.8214C5.69196 19.7504 5.72018 19.6823 5.77042 19.632C5.82065 19.5818 5.88878 19.5536 5.95982 19.5536ZM27.8556 27.8571H2.41071C2.33967 27.8571 2.27154 27.8289 2.22131 27.7787C2.17108 27.7285 2.14286 27.6603 2.14286 27.5893V23.9062C2.14286 23.8352 2.17108 23.7671 2.22131 23.7168C2.27154 23.6666 2.33967 23.6384 2.41071 23.6384H27.5893C27.6603 23.6384 27.7285 23.6666 27.7787 23.7168C27.8289 23.7671 27.8571 23.8352 27.8571 23.9062V27.8556C27.8571 27.8564 27.8565 27.8571 27.8556 27.8571Z" fill="white"/>
</svg>
