<svg width="30" height="30" viewBox="0 0 30 30" fill="none" xmlns="http://www.w3.org/2000/svg">
<path d="M23.4666 29.9999H6.41411C5.50697 29.9999 4.63459 29.4794 4.02066 28.572C3.45878 27.7415 3.14935 26.6579 3.14935 25.521V15.8914H5.29279V25.521C5.29279 26.7021 5.88375 27.5252 6.41411 27.5252H23.4666C23.997 27.5252 24.5879 26.7021 24.5879 25.521V15.6934H26.7313V25.521C26.7313 26.6579 26.4219 27.7415 25.86 28.572C25.2461 29.4794 24.3738 29.9999 23.4666 29.9999V29.9999Z" fill="#109AF9"/>
<path d="M4.22205 16.9356C3.88861 16.9356 3.56006 16.7565 3.3507 16.42C3.00541 15.865 3.11519 15.0919 3.59593 14.6932L14.3152 5.80403C14.796 5.4053 15.4656 5.53213 15.8109 6.08715C16.1563 6.64216 16.0464 7.4153 15.5657 7.81395L4.84639 16.7031C4.66458 16.8544 4.44614 16.9357 4.22205 16.9356V16.9356Z" fill="#109AF9"/>
<path d="M25.6901 16.8969C25.4661 16.897 25.2476 16.8157 25.0658 16.6644L14.3465 7.77521C13.8658 7.37656 13.756 6.60342 14.1013 6.0484C14.4466 5.49339 15.1163 5.36668 15.597 5.76529L26.3163 14.6545C26.797 15.0531 26.9068 15.8263 26.5615 16.3813C26.3521 16.7178 26.0235 16.8969 25.6901 16.8969ZM1.07261 14.5114C0.746404 14.5114 0.424318 14.3401 0.213792 14.0155C-0.14088 13.4684 -0.0442911 12.693 0.429543 12.2834L14.3577 0.246823C14.8315 -0.162616 15.5032 -0.051179 15.8579 0.495912C16.2126 1.04296 16.116 1.81842 15.6422 2.22793L1.714 14.2645C1.52903 14.4249 1.30393 14.5116 1.07261 14.5114V14.5114Z" fill="#109AF9"/>
<path d="M28.9275 14.5114C28.6961 14.5116 28.471 14.425 28.2861 14.2646L14.3579 2.22795C13.8841 1.81843 13.7875 1.04298 14.1422 0.495928C14.4969 -0.0511624 15.1685 -0.162638 15.6424 0.246839L29.5705 12.2835C30.0444 12.693 30.141 13.4684 29.7863 14.0155C29.5758 14.3402 29.2536 14.5114 28.9275 14.5114ZM14.9404 25.9014C14.3485 25.9014 13.8687 25.3474 13.8687 24.6641V19.4428C13.8687 18.7594 14.3485 18.2054 14.9404 18.2054C15.5323 18.2054 16.0122 18.7594 16.0122 19.4428V24.6641C16.0122 25.3474 15.5323 25.9014 14.9404 25.9014Z" fill="#109AF9"/>
<path d="M18.1187 19.5408H11.7888C11.3727 19.5408 11.0353 19.1513 11.0353 18.6708C11.0353 18.1903 11.3727 17.8008 11.7888 17.8008H18.1187C18.5349 17.8008 18.8722 18.1903 18.8722 18.6708C18.8722 19.1513 18.5349 19.5408 18.1187 19.5408ZM18.1522 22.7114H11.8223C11.4062 22.7114 11.0688 22.3219 11.0688 21.8414C11.0688 21.3609 11.4062 20.9714 11.8223 20.9714H18.1522C18.5684 20.9714 18.9057 21.3609 18.9057 21.8414C18.9057 22.3219 18.5684 22.7114 18.1522 22.7114Z" fill="#109AF9"/>
<path d="M14.9413 19.9486C14.6004 19.9486 14.2652 19.7612 14.0574 19.4124L11.9135 15.8146C11.578 15.2517 11.7014 14.4813 12.1891 14.094C12.6767 13.7067 13.344 13.8491 13.6795 14.4121L15.8233 18.0099C16.1588 18.5729 16.0354 19.3432 15.5478 19.7305C15.3695 19.8726 15.1579 19.9487 14.9413 19.9486V19.9486Z" fill="#109AF9"/>
<path d="M15.1398 20.026C14.9232 20.0262 14.7116 19.9501 14.5333 19.8079C14.0457 19.4206 13.9224 18.6503 14.2578 18.0873L16.4017 14.4895C16.7372 13.9265 17.4045 13.7841 17.8921 14.1714C18.3797 14.5587 18.5031 15.3291 18.1676 15.8921L16.0237 19.4898C15.8159 19.8386 15.4807 20.026 15.1398 20.026Z" fill="#109AF9"/>
</svg>
