<svg width="30" height="30" viewBox="0 0 30 30" fill="none" xmlns="http://www.w3.org/2000/svg">
<g clip-path="url(#clip0_1080_3683)">
<path d="M14.325 0.722047C14.2033 0.558714 14.1383 0.722047 14.1383 0.722047L10.5833 29.9204L14.4217 30.0004L14.325 0.722047ZM8.005 23.902L7.735 22.1404L6.79333 23.5837L4.88667 23.527L6.09833 24.802L5.33667 26.482L7.04167 25.6154L8.31667 26.8287L8.22833 25.0037L9.88667 24.2537L8.00333 23.9037L8.005 23.902ZM11.32 13.042L9.39167 13.6487L8.49667 11.9437L7.91333 14.3754L5.85 15.4454L7.48667 15.822L7.10667 18.2854L8.69833 16.227L10.5817 16.8104L9.90833 14.8954L11.32 13.042ZM2.46333 17.1254L1.39 18.5737L0 18.8037L0.85 19.732L0.0666667 21.3254L1.45667 20.2254L2.44 21.182L2.50833 19.6487L3.72 18.6637L2.44333 18.6037L2.46333 17.1254ZM5.02167 12.117L5.64833 11.3337L4.84167 11.537L4.415 10.7837L4.03167 11.942L2.98167 12.4637L3.69833 12.6387L3.52 13.6804L4.37 12.7254L5.22167 13.042L5.02167 12.117ZM8.69667 8.00538L9.10167 8.23871L9.28167 7.65538L9.90667 7.16371L9.415 7.07705V6.61371L8.89833 7.22371L8.20333 7.34038L8.44833 7.80038L8.02333 8.40871L8.69667 8.00538ZM26.1667 3.69371C26.1667 3.69371 23.175 1.78205 17.5133 3.12371C17.5133 3.12371 24.7483 2.43371 26.5733 7.96371C26.5733 7.96371 27.8333 13.5737 23.5233 17.8854C23.5233 17.8854 20.4067 21.3437 18.3283 22.1954L15.5617 0.117047C15.5617 0.117047 15.3417 -0.247953 15.3417 0.322047V29.6787C15.3417 29.6787 18.7083 28.5004 19.0217 27.9287L18.5817 24.2704C18.5817 24.2704 27.8333 19.6337 29.72 11.9504C29.72 11.9504 31.4817 6.29705 26.1667 3.69538V3.69371Z" fill="white"/>
</g>
<defs>
<clipPath id="clip0_1080_3683">
<rect width="30" height="30" fill="white"/>
</clipPath>
</defs>
</svg>
