<svg width="49" height="40" viewBox="0 0 49 40" fill="none" xmlns="http://www.w3.org/2000/svg">
<path d="M46.2222 0H2.88886C2.1524 0.000827121 1.44635 0.29375 0.92559 0.814505C0.404835 1.33526 0.111911 2.04132 0.111084 2.77778V37.2222C0.111911 37.9587 0.404835 38.6647 0.92559 39.1855C1.44635 39.7062 2.1524 39.9992 2.88886 40H46.2222C46.9587 39.9992 47.6647 39.7062 48.1855 39.1855C48.7062 38.6647 48.9991 37.9587 49 37.2222V2.77778C48.9991 2.04132 48.7062 1.33526 48.1855 0.814505C47.6647 0.29375 46.9587 0.000827121 46.2222 0ZM46.7778 37.2222C46.7778 37.3696 46.7192 37.5109 46.615 37.6151C46.5108 37.7192 46.3695 37.7778 46.2222 37.7778H2.88886C2.74152 37.7778 2.60021 37.7192 2.49602 37.6151C2.39184 37.5109 2.33331 37.3696 2.33331 37.2222V2.77778C2.33331 2.63043 2.39184 2.48913 2.49602 2.38494C2.60021 2.28075 2.74152 2.22222 2.88886 2.22222H46.2222C46.3695 2.22222 46.5108 2.28075 46.615 2.38494C46.7192 2.48913 46.7778 2.63043 46.7778 2.77778V37.2222ZM17.5635 22.5476C17.6667 22.6507 17.7486 22.7732 17.8044 22.9081C17.8603 23.0429 17.889 23.1874 17.889 23.3333C17.889 23.4793 17.8603 23.6238 17.8044 23.7586C17.7486 23.8934 17.6667 24.0159 17.5635 24.1191L8.34893 33.3333H14.5555C14.8502 33.3333 15.1328 33.4504 15.3412 33.6588C15.5496 33.8671 15.6666 34.1498 15.6666 34.4444C15.6666 34.7391 15.5496 35.0217 15.3412 35.2301C15.1328 35.4385 14.8502 35.5556 14.5555 35.5556H5.66004C5.36764 35.5538 5.08771 35.4369 4.88095 35.2301C4.67418 35.0234 4.55726 34.7434 4.55553 34.451V25.5556C4.55553 25.2609 4.67259 24.9783 4.88096 24.7699C5.08934 24.5615 5.37195 24.4444 5.66664 24.4444C5.96132 24.4444 6.24394 24.5615 6.45231 24.7699C6.66069 24.9783 6.77775 25.2609 6.77775 25.5556V31.7622L15.992 22.5476C16.0952 22.4444 16.2177 22.3625 16.3525 22.3066C16.4873 22.2508 16.6318 22.222 16.7778 22.222C16.9237 22.222 17.0682 22.2508 17.203 22.3066C17.3378 22.3625 17.4603 22.4444 17.5635 22.5476ZM44.5555 5.54896V14.4444C44.5555 14.7391 44.4385 15.0217 44.2301 15.2301C44.0217 15.4385 43.7391 15.5556 43.4444 15.5556C43.1497 15.5556 42.8671 15.4385 42.6587 15.2301C42.4504 15.0217 42.3333 14.7391 42.3333 14.4444V8.23785L33.1191 17.4524C32.9107 17.6608 32.628 17.7779 32.3333 17.7779C32.0386 17.7779 31.7559 17.6608 31.5475 17.4524C31.3391 17.244 31.2221 16.9614 31.2221 16.6667C31.2221 16.3719 31.3391 16.0893 31.5475 15.8809L40.7621 6.66667H34.5555C34.2608 6.66667 33.9782 6.5496 33.7699 6.34123C33.5615 6.13286 33.4444 5.85024 33.4444 5.55556C33.4444 5.26087 33.5615 4.97826 33.7699 4.76988C33.9782 4.56151 34.2608 4.44444 34.5555 4.44444H43.451C43.7434 4.44618 44.0234 4.5631 44.2301 4.76986C44.4369 4.97662 44.5538 5.25656 44.5555 5.54896V5.54896Z" fill="white"/>
<path d="M46.2222 39.9999H2.88886C2.1524 39.9991 1.44635 39.7062 0.92559 39.1854C0.404835 38.6647 0.111911 37.9586 0.111084 37.2222V2.77772C0.111911 2.04126 0.404835 1.3352 0.92559 0.814445C1.44635 0.293689 2.1524 0.000767039 2.88886 -6.00815e-05H46.2222C46.9587 0.000767039 47.6647 0.293689 48.1855 0.814445C48.7062 1.3352 48.9991 2.04126 49 2.77772V37.2222C48.9991 37.9586 48.7062 38.6647 48.1855 39.1854C47.6647 39.7062 46.9587 39.9991 46.2222 39.9999ZM46.7778 2.77772C46.7778 2.63037 46.7192 2.48907 46.615 2.38488C46.5108 2.28069 46.3695 2.22216 46.2222 2.22216H2.88886C2.74152 2.22216 2.60021 2.28069 2.49602 2.38488C2.39184 2.48907 2.33331 2.63037 2.33331 2.77772V37.2222C2.33331 37.3695 2.39184 37.5108 2.49602 37.615C2.60021 37.7192 2.74152 37.7777 2.88886 37.7777H46.2222C46.3695 37.7777 46.5108 37.7192 46.615 37.615C46.7192 37.5108 46.7778 37.3695 46.7778 37.2222V2.77772ZM17.5635 17.4524C17.6667 17.3492 17.7486 17.2267 17.8044 17.0919C17.8603 16.957 17.889 16.8125 17.889 16.6666C17.889 16.5207 17.8603 16.3762 17.8044 16.2413C17.7486 16.1065 17.6667 15.984 17.5635 15.8808L8.34893 6.66661H14.5555C14.8502 6.66661 15.1328 6.54954 15.3412 6.34117C15.5496 6.13279 15.6666 5.85018 15.6666 5.5555C15.6666 5.26081 15.5496 4.9782 15.3412 4.76982C15.1328 4.56145 14.8502 4.44438 14.5555 4.44438H5.66004C5.36764 4.44611 5.08771 4.56304 4.88095 4.7698C4.67418 4.97656 4.55726 5.2565 4.55553 5.5489V14.4444C4.55553 14.7391 4.67259 15.0217 4.88096 15.2301C5.08934 15.4384 5.37195 15.5555 5.66664 15.5555C5.96132 15.5555 6.24394 15.4384 6.45231 15.2301C6.66069 15.0217 6.77775 14.7391 6.77775 14.4444V8.23779L15.992 17.4524C16.0952 17.5556 16.2177 17.6374 16.3525 17.6933C16.4873 17.7491 16.6318 17.7779 16.7778 17.7779C16.9237 17.7779 17.0682 17.7491 17.203 17.6933C17.3378 17.6374 17.4603 17.5556 17.5635 17.4524ZM44.5555 34.451V25.5555C44.5555 25.2608 44.4385 24.9782 44.2301 24.7698C44.0217 24.5614 43.7391 24.4444 43.4444 24.4444C43.1497 24.4444 42.8671 24.5614 42.6587 24.7698C42.4504 24.9782 42.3333 25.2608 42.3333 25.5555V31.7621L33.1191 22.5475C32.9107 22.3391 32.628 22.222 32.3333 22.222C32.0386 22.222 31.7559 22.3391 31.5475 22.5475C31.3391 22.7559 31.2221 23.0386 31.2221 23.3333C31.2221 23.628 31.3391 23.9106 31.5475 24.119L40.7621 33.3333H34.5555C34.2608 33.3333 33.9782 33.4503 33.7699 33.6587C33.5615 33.8671 33.4444 34.1497 33.4444 34.4444C33.4444 34.7391 33.5615 35.0217 33.7699 35.2301C33.9782 35.4384 34.2608 35.5555 34.5555 35.5555H43.451C43.7434 35.5538 44.0234 35.4368 44.2301 35.2301C44.4369 35.0233 44.5538 34.7434 44.5555 34.451V34.451Z" fill="white"/>
</svg>
