<?xml version="1.0" encoding="UTF-8"?>
<svg width="30px" height="31px" viewBox="0 0 30 31" version="1.1" xmlns="http://www.w3.org/2000/svg" xmlns:xlink="http://www.w3.org/1999/xlink">
    <title>编组 17</title>
    <g id="Admin-Light-#1" stroke="none" stroke-width="1" fill="none" fill-rule="evenodd">
        <g id="画板备份-13" transform="translate(-1353.000000, -430.000000)">
            <g id="编组-3备份" transform="translate(1292.000000, 49.954000)">
                <g id="编组-17" transform="translate(61.000000, 381.000000)">
                    <rect id="矩形" stroke="#979797" fill="#D8D8D8" opacity="0" x="0.5" y="0.5" width="29" height="29"></rect>
                    <g id="用户-(1)" transform="translate(1.000000, 1.000000)" fill="#1990FF" fill-rule="nonzero">
                        <path d="M14.1874067,15.5961132 C9.75059078,15.5961132 6.14088929,12.1048196 6.14088929,7.81253108 C6.14088929,6.24884948 6.61800373,4.73914798 7.52347638,3.44884952 C9.02098881,1.30705847 11.5145212,0.027207725 14.1874067,0.027207725 C16.8568097,0.027207725 19.3486007,1.3035759 20.8478545,3.44362564 C21.1647699,3.89636194 21.4294465,4.37695896 21.640143,4.87496892 C21.8276725,5.31830794 21.620298,5.82972794 21.176959,6.01725746 C20.7336199,6.20478699 20.2221999,5.99741242 20.0346704,5.5540734 C19.870124,5.16317147 19.6646679,4.79078231 19.4217351,4.4431281 C18.2481032,2.76800373 16.2908893,1.76850123 14.1874067,1.76850123 C12.0804415,1.76850123 10.1232276,2.769745 8.94611317,4.44661071 C8.25392952,5.43190077 7.88240704,6.6066658 7.88218284,7.81078981 C7.88218284,11.1436256 10.7100435,13.8548197 14.1856654,13.8548197 C16.7732276,13.8548197 19.0717351,12.367755 20.0364117,10.0675062 C20.2262343,9.63019948 20.7324525,9.42687569 21.1720282,9.61138308 C21.611604,9.79589047 21.8210494,10.2996067 21.6418843,10.7413868 C20.4020833,13.6911381 17.4784515,15.5961132 14.1874067,15.5961132" id="路径"></path>
                        <path d="M5.46178481,18.6694963 C3.42447138,18.6694963 1.77024116,20.3463619 1.77024116,22.4080535 C1.76850123,24.469745 3.42273011,26.1466107 5.46004355,26.1466107 L22.4515858,26.1466107 C24.4923818,26.1466107 26.1466107,24.469745 26.1466107,22.4080535 C26.1466107,20.3463619 24.4923819,18.6694963 22.4550684,18.6694963 L5.46004355,18.6694963 L5.46178481,18.6694963 Z M22.4550684,27.8879042 L5.46178481,27.8879042 C2.46675996,27.8879042 0.0289480591,25.4291978 0.0289480591,22.4080535 C0.027207725,19.3869092 2.46501866,16.9282027 5.46004355,16.9282027 L22.4515858,16.9282027 C25.4500933,16.9282027 27.8879042,19.3869092 27.8879042,22.4080535 C27.8879042,25.4291978 25.4500933,27.8879042 22.4550684,27.8879042 Z" id="形状"></path>
                    </g>
                </g>
            </g>
        </g>
    </g>
</svg>
