<svg width="30" height="30" viewBox="0 0 30 30" fill="none" xmlns="http://www.w3.org/2000/svg">
<path d="M20.4054 18.9281C20.8334 19.3619 20.8334 20.0655 20.4054 20.4993C19.9775 20.9332 19.2886 20.9332 18.8635 20.4993L14.9999 16.5683L11.1422 20.4964C10.7142 20.9302 10.0253 20.9302 9.60029 20.4964C9.17523 20.0625 9.1723 19.359 9.60029 18.9251L13.458 14.9971L9.59736 11.069C9.16937 10.6351 9.16937 9.9316 9.59736 9.49775C10.0195 9.0639 10.7142 9.0639 11.1393 9.49775L14.9999 13.4288L18.8577 9.49775C19.2856 9.0639 19.9745 9.0639 20.3996 9.49775C20.8276 9.9316 20.8276 10.6351 20.3996 11.069L16.5419 15L20.4054 18.9281Z" fill="white"/>
<path d="M15 29.9971C6.73051 29.9971 0 23.2695 0 14.9971C0 6.72464 6.73051 0 15 0C23.2695 0 30 6.72757 30 15C30 16.1022 29.8798 17.2073 29.6394 18.2861C29.528 18.7903 29.0356 19.1098 28.5196 18.9984C28.0154 18.8841 27.6959 18.3858 27.8073 17.8786C28.0184 16.9347 28.1239 15.9644 28.1239 14.9971C28.1239 7.76236 22.2376 1.8761 15 1.8761C7.76236 1.8761 1.8761 7.76236 1.8761 15C1.8761 22.2376 7.76236 28.1239 15 28.1239C16.2429 28.1239 17.4682 27.9509 18.6467 27.608C19.145 27.4614 19.6639 27.7516 19.8075 28.247C19.9511 28.7454 19.6668 29.2642 19.1685 29.4108C17.8229 29.8007 16.4217 29.9971 15 29.9971Z" fill="white"/>
<path d="M24.0171 24.7147C24.0171 24.9609 24.1168 25.2042 24.2926 25.3772C24.4656 25.5501 24.7089 25.6527 24.9551 25.6527C25.2014 25.6527 25.4447 25.553 25.6176 25.3772C25.7906 25.2042 25.8932 24.9609 25.8932 24.7147C25.8932 24.4684 25.7935 24.2251 25.6176 24.0522C25.4447 23.8792 25.2014 23.7766 24.9551 23.7766C24.7089 23.7766 24.4656 23.8763 24.2926 24.0522C24.1197 24.2251 24.0171 24.4684 24.0171 24.7147Z" fill="white"/>
</svg>
