<svg width="50" height="50" viewBox="0 0 50 50" fill="none" xmlns="http://www.w3.org/2000/svg">
<path d="M15.2777 48.6112C14.4444 48.6112 13.8888 48.3334 13.3333 47.7778C12.2221 46.6667 12.4999 45.0001 13.611 43.8889L31.3888 27.7778C31.9444 27.2223 32.2221 26.6667 32.2221 26.1112C32.2221 25.5556 31.9444 25.0001 31.3888 24.4445L13.3333 9.16672C12.2221 8.05561 11.9444 6.38895 13.0555 5.27784C14.1666 4.16672 15.8333 3.88895 16.9444 5.00006L34.7221 20.2778C36.3888 21.6667 37.4999 23.8889 37.4999 26.1112C37.4999 28.3334 36.6666 30.2778 34.9999 31.9445L17.2221 48.0556C16.6666 48.3334 15.8333 48.6112 15.2777 48.6112V48.6112Z" fill="#D8D8D8"/>
</svg>
