<svg width="30" height="30" viewBox="0 0 30 30" fill="none" xmlns="http://www.w3.org/2000/svg">
<path d="M25.2285 4.02947C25.8343 4.5944 25.8675 5.54352 25.3025 6.14937C24.7376 6.75522 23.7884 6.78833 23.1826 6.2234C18.3359 1.70378 10.743 1.96888 6.22344 6.81557C1.70382 11.6623 1.96891 19.2552 6.81561 23.7748C11.6623 28.2944 19.2552 28.0293 23.7748 23.1826C26.987 19.738 27.8582 14.7895 26.1256 10.4978C25.8155 9.72967 26.1868 8.85557 26.9549 8.54544C27.7231 8.23538 28.5972 8.60668 28.9073 9.37479C31.0723 14.7376 29.9832 20.9235 25.9688 25.2285C20.3193 31.2868 10.8281 31.6183 4.76978 25.9688C-1.28857 20.3193 -1.62001 10.8281 4.02951 4.76978C9.67902 -1.28857 19.1701 -1.62001 25.2285 4.02951V4.02947ZM22.0874 17.3154C22.833 17.6763 23.1448 18.5734 22.7838 19.3189C22.4229 20.0646 21.5258 20.3764 20.7802 20.0154L14.6927 17.0683C14.439 16.9455 14.2251 16.7537 14.0754 16.5149C13.9258 16.2762 13.8464 16.0001 13.8464 15.7182V7.99025C13.8464 7.16188 14.5179 6.49033 15.3463 6.49033C16.1747 6.49033 16.8462 7.16188 16.8462 7.99025V14.778L22.0874 17.3154Z" fill="white"/>
</svg>
