<svg width="30" height="30" viewBox="0 0 30 30" fill="none" xmlns="http://www.w3.org/2000/svg">
<path d="M18.3186 30H11.7561C10.8186 30 10.3499 29.5324 10.3499 28.5973C10.3499 27.6621 10.8186 27.1946 11.7561 27.1946H18.3186C19.2561 27.1946 19.7248 27.6621 19.7248 28.5973C19.7248 29.5324 19.2561 30 18.3186 30Z" fill="white"/>
<path d="M16.4065 9.1466V21.3033C16.4065 22.2385 15.9377 22.706 15.0002 22.706C14.0627 22.706 13.594 22.2385 13.594 21.3033V9.1466C13.594 8.21146 14.0627 7.7439 15.0002 7.7439C15.9377 7.7439 16.4065 8.21146 16.4065 9.1466Z" fill="white"/>
<path d="M9.38586 12.7855L14.0262 8.15682C14.6892 7.49558 15.3521 7.49558 16.015 8.15682C16.6779 8.81806 16.6779 9.4793 16.015 10.1405L11.3746 14.7692C10.7117 15.4304 10.0488 15.4304 9.38586 14.7692C8.72294 14.108 8.72294 13.4467 9.38586 12.7855Z" fill="white"/>
<path d="M15.9947 8.15902L20.6351 12.7877C21.298 13.4489 21.298 14.1102 20.6351 14.7714C19.9722 15.4326 19.3093 15.4326 18.6464 14.7714L14.006 10.1427C13.3431 9.48149 13.3431 8.82025 14.006 8.15902C14.6689 7.49778 15.3318 7.49778 15.9947 8.15902Z" fill="white"/>
<path d="M24.8437 25.7919C24.568 25.7917 24.2984 25.7107 24.0684 25.5589C23.8385 25.4071 23.6584 25.1912 23.5505 24.9381C23.4426 24.6849 23.4117 24.4058 23.4616 24.1353C23.5115 23.8648 23.6401 23.6149 23.8312 23.4167C25.4745 21.6932 26.5748 19.5268 26.9959 17.1858C27.417 14.8448 27.1404 12.432 26.2004 10.2462C25.2604 8.06039 23.6982 6.19767 21.7073 4.88871C19.7165 3.57976 17.3844 2.88208 15 2.88208C12.6156 2.88208 10.2835 3.57976 8.29266 4.88871C6.30181 6.19767 4.73962 8.06039 3.79959 10.2462C2.85956 12.432 2.58297 14.8448 3.00408 17.1858C3.4252 19.5268 4.52551 21.6932 6.16876 23.4167C6.33994 23.6933 6.40947 24.0207 6.36546 24.3428C6.32146 24.6649 6.16665 24.9618 5.92751 25.1826C5.68836 25.4035 5.37973 25.5347 5.05437 25.5537C4.72901 25.5727 4.40713 25.4784 4.14376 25.2869C2.11753 23.1671 0.759591 20.5008 0.238293 17.6184C-0.283004 14.7361 0.0552682 11.7645 1.21117 9.07212C2.36707 6.37973 4.28977 4.08495 6.74088 2.47229C9.19199 0.859621 12.0637 0 15 0C17.9363 0 20.808 0.859621 23.2591 2.47229C25.7102 4.08495 27.6329 6.37973 28.7888 9.07212C29.9447 11.7645 30.283 14.7361 29.7617 17.6184C29.2404 20.5008 27.8825 23.1671 25.8562 25.2869C25.7325 25.4374 25.5784 25.5601 25.404 25.6471C25.2295 25.7341 25.0386 25.7834 24.8437 25.7919Z" fill="white"/>
</svg>
