<svg width="30" height="30" viewBox="0 0 30 30" fill="none" xmlns="http://www.w3.org/2000/svg">
<path d="M27.87 22.7089C27.7164 22.9647 27.4675 23.1491 27.178 23.2214C26.8885 23.2937 26.5821 23.2481 26.3263 23.0945C26.0704 22.941 25.8861 22.6921 25.8137 22.4026C25.7414 22.1131 25.787 21.8067 25.9406 21.5509C27.1284 19.5725 27.754 17.3075 27.75 15C27.75 7.95824 22.0417 2.25 15 2.25C7.95824 2.25 2.25 7.95824 2.25 15C2.25 22.0417 7.95824 27.75 15 27.75C17.3072 27.7541 19.5719 27.1288 21.5501 25.9414C21.6768 25.8653 21.8172 25.815 21.9633 25.7933C22.1095 25.7715 22.2585 25.7788 22.4018 25.8146C22.5451 25.8505 22.68 25.9142 22.7987 26.0021C22.9174 26.0901 23.0176 26.2005 23.0936 26.3272C23.1696 26.4539 23.2199 26.5943 23.2417 26.7405C23.2634 26.8866 23.2562 27.0356 23.2203 27.1789C23.1845 27.3222 23.1208 27.4571 23.0328 27.5758C22.9449 27.6945 22.8344 27.7947 22.7077 27.8707C20.3798 29.2679 17.715 30.0041 15 30C6.71587 30 0 23.2841 0 15C0 6.71587 6.71587 0 15 0C23.2841 0 30 6.71587 30 15C30 17.7525 29.2564 20.3989 27.87 22.7089V22.7089ZM10.1689 14.2072L13.134 17.16L19.8289 10.455C20.0397 10.2438 20.3258 10.1251 20.6242 10.1249C20.9226 10.1247 21.2088 10.243 21.42 10.4539C21.6311 10.6647 21.7499 10.9508 21.7501 11.2492C21.7503 11.5476 21.632 11.8338 21.4211 12.045L13.9324 19.545C13.7217 19.756 13.436 19.8747 13.1378 19.8751C12.8397 19.8755 12.5536 19.7576 12.3424 19.5472L8.58112 15.8014C8.47509 15.6974 8.39069 15.5735 8.33278 15.4368C8.27487 15.3 8.24461 15.1532 8.24372 15.0047C8.24284 14.8562 8.27136 14.7091 8.32763 14.5717C8.38391 14.4342 8.46683 14.3093 8.57161 14.2041C8.6764 14.0989 8.80097 14.0155 8.93815 13.9587C9.07533 13.9019 9.2224 13.8727 9.37089 13.873C9.51937 13.8733 9.66633 13.903 9.80329 13.9604C9.94025 14.0177 10.0645 14.1016 10.1689 14.2072V14.2072Z" fill="white"/>
</svg>
