<?xml version="1.0" encoding="UTF-8"?>
<svg width="30px" height="31px" viewBox="0 0 30 31" version="1.1" xmlns="http://www.w3.org/2000/svg" xmlns:xlink="http://www.w3.org/1999/xlink">
    <title>编组 18</title>
    <g id="Admin-Light-#1" stroke="none" stroke-width="1" fill="none" fill-rule="evenodd">
        <g id="画板备份-13" transform="translate(-1735.000000, -524.000000)">
            <g id="编组-3备份" transform="translate(1292.000000, 49.954000)">
                <g id="编组-18" transform="translate(443.000000, 475.000000)">
                    <rect id="矩形备份-21" fill="#D8D8D8" opacity="0" x="0" y="0" width="30" height="30"></rect>
                    <g id="编组-19" transform="translate(1.000000, 5.500000)" fill="#BFBFBF" fill-rule="nonzero">
                        <path d="M6.86118425,1.80009683 L7.88668658,2.82602635 C5.26827066,4.21010407 3.01550106,6.4779876 1.48274684,9.35910456 C4.12603042,14.3357215 8.86931401,17.4108459 13.9329956,17.4108459 C16.2836871,17.4108459 18.5653311,16.7481394 20.5998904,15.5401404 L21.6141983,16.5534818 C19.2941944,18.0038943 16.6585693,18.8038807 13.9329956,18.8038807 C8.23200057,18.8038807 2.92453789,15.3038807 0.0757816669,9.6725374 C-0.0252605556,9.47579715 -0.0252605556,9.24241197 0.0757816669,9.04567173 C1.66934554,5.89415435 4.05658884,3.38412339 6.86118425,1.80009683 Z M15.5245379,0.0048757054 C20.6334931,0.579502571 25.2165777,3.96109461 27.7902095,9.04567173 C27.8912046,9.24417919 27.8912046,9.47751252 27.7902095,9.6725374 C27.1273617,10.9828369 26.3313998,12.1777457 25.4283394,13.2400227 C25.2996197,13.3672401 25.1232923,13.4474881 24.928222,13.4474881 C24.5438187,13.4474881 24.2321982,13.1358676 24.2321982,12.7514643 C24.2321982,12.5558652 24.3128819,12.3791107 24.4427832,12.252667 C25.1711132,11.3792807 25.8241537,10.4117272 26.3832444,9.35910456 C23.9976722,4.86656725 19.9021498,1.89592048 15.3678215,1.38746277 C15.184064,1.36763925 15.0158729,1.2751294 14.9007339,1.13055143 C14.7855948,0.985973462 14.7330773,0.801343467 14.7548861,0.617811029 C14.7966772,0.234726452 15.1449359,-0.0403979264 15.5245379,0.0048757054 Z" id="形状"></path>
                        <path d="M10.8596426,5.96267287 L11.8440485,6.94795391 C11.2318579,7.54804731 10.8474235,8.40721199 10.8474235,9.35910456 C10.8474235,11.1665672 12.2300105,12.6397016 13.9329956,12.6397016 C14.8976175,12.6397016 15.7594419,12.1670568 16.3254318,11.4287282 L17.3162205,12.4181756 C16.4943694,13.4066459 15.2823236,14.0327364 13.9329956,14.0327364 C11.4638414,14.0327364 9.45438863,11.936219 9.45438863,9.35910456 C9.45438863,8.0225597 9.99486595,6.81527978 10.8596426,5.96267287 Z" id="路径"></path>
                    </g>
                    <path d="M2.27594092,0.525728593 C2.66646521,0.135204301 3.29963019,0.135204301 3.69015448,0.525728593 L29.462462,26.2980361 C29.8529863,26.6885604 29.8529863,27.3217254 29.462462,27.7122497 C29.0719377,28.102774 28.4387727,28.102774 28.0482484,27.7122497 L2.27594092,1.93994216 C1.88541663,1.54941786 1.88541663,0.916252885 2.27594092,0.525728593 Z" id="矩形备份-22" fill="#BFBFBF"></path>
                </g>
            </g>
        </g>
    </g>
</svg>