<?xml version="1.0" encoding="UTF-8"?>
<svg width="31px" height="31px" viewBox="0 0 31 31" version="1.1" xmlns="http://www.w3.org/2000/svg" xmlns:xlink="http://www.w3.org/1999/xlink">
    <title>编组 21</title>
    <g id="Admin-Light-#1" stroke="none" stroke-width="1" fill="none" fill-rule="evenodd">
        <g id="画板备份-13" transform="translate(-1770.000000, -525.000000)">
            <g id="编组-3备份" transform="translate(1292.000000, 49.954000)">
                <g id="编组-21" transform="translate(478.000000, 476.000000)">
                    <rect id="矩形" fill="#D8D8D8" opacity="0" x="0.313346872" y="0" width="30" height="30"></rect>
                    <path d="M15.2463425,24.3038807 C9.54534744,24.3038807 4.23788476,20.8038807 1.38912854,15.1725374 C1.28808632,14.9757971 1.28808632,14.742412 1.38912854,14.5456717 C3.88266088,9.61432844 8.3194768,6.25363192 13.2577853,5.55363192 C13.6373872,5.50139312 13.9926111,5.76606974 14.0448499,6.14567173 C14.0970887,6.52527372 13.8324121,6.8804976 13.4528101,6.9327364 C9.0717156,7.5526369 5.11201411,10.5058707 2.79609371,14.8591046 C5.43937729,19.8357215 10.1826609,22.9108459 15.2463425,22.9108459 C20.3100241,22.9108459 25.0533076,19.8357215 27.6965912,14.8591046 C25.3110191,10.3665672 21.2154967,7.39592048 16.6811683,6.88746277 C16.4974109,6.86763925 16.3292197,6.7751294 16.2140807,6.63055143 C16.0989417,6.48597346 16.0464242,6.30134347 16.068233,6.11781103 C16.1100241,5.73472645 16.4582828,5.45960207 16.8378848,5.50487571 C21.94684,6.07950257 26.5299246,9.46109461 29.1035564,14.5456717 C29.2045514,14.7441792 29.2045514,14.9775125 29.1035564,15.1725374 C26.2548002,20.8038807 20.9473375,24.3038807 15.2463425,24.3038807 Z" id="路径" fill="#1990FF" fill-rule="nonzero"></path>
                    <path d="M15.2463425,19.5327364 C12.7771882,19.5327364 10.7677355,17.436219 10.7677355,14.8591046 C10.7677355,12.2819901 12.7771882,10.1854727 15.2463425,10.1854727 C17.7154967,10.1854727 19.7249494,12.2819901 19.7249494,14.8591046 C19.7249494,17.436219 17.7154967,19.5327364 15.2463425,19.5327364 Z M15.2463425,11.5785075 C13.54684,11.5785075 12.1607703,13.0516419 12.1607703,14.8591046 C12.1607703,16.6665672 13.5433574,18.1397016 15.2463425,18.1397016 C16.9493275,18.1397016 18.3319146,16.6665672 18.3319146,14.8591046 C18.3319146,13.0481593 16.945845,11.5785075 15.2463425,11.5785075 Z" id="形状" fill="#1990FF" fill-rule="nonzero"></path>
                </g>
            </g>
        </g>
    </g>
</svg>