<?xml version="1.0" encoding="UTF-8"?>
<svg width="30px" height="31px" viewBox="0 0 30 31" version="1.1" xmlns="http://www.w3.org/2000/svg" xmlns:xlink="http://www.w3.org/1999/xlink">
    <title>编组 16</title>
    <g id="Admin-Light-#1" stroke="none" stroke-width="1" fill="none" fill-rule="evenodd">
        <g id="画板备份-13" transform="translate(-1353.000000, -522.000000)">
            <g id="编组-3备份" transform="translate(1292.000000, 49.954000)">
                <g id="编组-16" transform="translate(61.000000, 473.000000)">
                    <rect id="矩形" stroke="#979797" fill="#D8D8D8" opacity="0" x="0.5" y="0.5" width="29" height="29"></rect>
                    <g id="锁" transform="translate(3.464789, 1.000000)" fill="#000000" fill-opacity="0.25" fill-rule="nonzero">
                        <path d="M11.5556485,1.6431925 C14.8502494,1.6431925 17.5319395,4.01924884 17.5319395,6.93920187 L17.5319395,10.5032864 L5.57935739,10.5032864 L5.57935739,6.93920187 C5.57935739,4.01924884 8.26269074,1.6431925 11.5556485,1.6431925 M22.196963,17.355399 C22.6507181,17.355399 23.0185593,16.9875579 23.0185593,16.5338028 L23.0185593,14.2941314 C23.0185593,12.2910798 21.3145687,10.6626761 19.175132,10.5279343 L19.175132,6.93920187 C19.175132,3.11220659 15.7572917,0 11.5556485,0 C7.35400528,0 3.93616489,3.11220659 3.93616489,6.93920187 L3.93616489,10.5213615 C1.75729165,10.6166667 0.0138644366,12.2647887 0.0138644366,14.2941314 L0.0138644366,24.1417841 C0.0138644366,26.2335681 1.86081278,27.9342723 4.13006162,27.9342723 L18.8990757,27.9342723 C21.1699677,27.9342723 23.0185593,26.2335681 23.0185593,24.1417841 L23.0185593,21.4633803 C23.0185593,21.0096252 22.6507181,20.6417841 22.196963,20.6417841 C21.743208,20.6417841 21.3753668,21.0096252 21.3753668,21.4633803 L21.3753668,24.1417841 C21.3753668,25.328169 20.2645687,26.2910798 18.8990757,26.2910798 L4.13006162,26.2910798 C2.76621187,26.2910798 1.65705694,25.328169 1.65705694,24.1417841 L1.65705694,14.2941314 C1.65705694,13.1093896 2.76621187,12.1464789 4.13006162,12.1464789 L18.8990757,12.1464789 C20.2645687,12.1464789 21.3753668,13.1093897 21.3753668,14.2941314 L21.3753668,16.5338028 C21.3753668,16.9875579 21.743208,17.355399 22.196963,17.355399" id="形状"></path>
                    </g>
                </g>
            </g>
        </g>
    </g>
</svg>