<svg width="70" height="56" viewBox="0 0 70 56" fill="none" xmlns="http://www.w3.org/2000/svg">
<path d="M49.0821 2.76769H40.7865L42.8604 0.00250244H50.4646L49.0821 2.76769Z" fill="#F05C27"/>
<path d="M26.2693 28.3457H34.5648L32.4909 31.1108H24.8867L26.2693 28.3457Z" fill="#1C3A89"/>
<path d="M31.7996 4.15027H47.6994L45.6256 8.29805H32.4909L27.6519 13.8284V15.9023H41.4778L39.4039 21.4327H23.5041L17.2824 14.5197V12.4458L19.3563 8.98934H24.8867L31.7996 4.15027Z" fill="#F05C27"/>
<path d="M42.1691 26.9631H26.2693L28.3432 22.8153H41.4778L46.3169 17.2849V15.211H32.491L34.5649 9.68066H50.4647L56.6863 16.5936V18.6675L54.6125 22.124H49.0821L42.1691 26.9631Z" fill="#083975"/>
<path d="M14.5336 41.804L14.6956 38.978C13.6276 38.762 12.6736 38.654 11.8336 38.654C10.3096 38.654 9.10963 38.948 8.23363 39.536C7.35763 40.124 6.86563 40.664 6.75763 41.156C6.64963 41.648 6.58963 41.966 6.57763 42.11C6.56563 42.254 6.55963 42.386 6.55963 42.506C6.55963 43.502 7.12363 44.474 8.25163 45.422C9.39163 46.358 9.96163 46.982 9.96163 47.294C9.96163 47.378 9.93763 47.522 9.88963 47.726C9.85363 47.918 9.67963 48.098 9.36763 48.266C9.05563 48.434 8.64763 48.518 8.14363 48.518C7.67563 48.518 7.16563 48.452 6.61363 48.32C6.06163 48.176 5.54563 47.99 5.06563 47.762L4.86763 50.732C6.11563 50.984 7.21363 51.11 8.16163 51.11C9.76963 51.11 11.0176 50.822 11.9056 50.246C12.8056 49.67 13.3156 49.124 13.4356 48.608C13.5556 48.092 13.6216 47.768 13.6336 47.636C13.6456 47.504 13.6516 47.36 13.6516 47.204C13.6516 46.208 13.0876 45.266 11.9596 44.378C10.8436 43.478 10.2856 42.836 10.2856 42.452C10.2856 42.344 10.3036 42.212 10.3396 42.056C10.3756 41.888 10.5436 41.72 10.8436 41.552C11.1436 41.384 11.5516 41.3 12.0676 41.3C12.4396 41.3 12.8176 41.342 13.2016 41.426C13.5856 41.498 14.0296 41.624 14.5336 41.804ZM21.5576 38.834L13.4756 50.876H17.4356L19.6136 47.33H23.9876L24.5096 50.876H28.4696L26.0756 38.834H21.5576ZM20.9636 44.918L23.2496 41.516L23.7716 44.918H20.9636ZM35.3903 43.082L34.0223 38.834H29.9183L32.6363 46.052L31.6103 50.876H35.4083L36.4343 46.052L42.5003 38.834H38.5403L35.3903 43.082ZM43.3559 38.834L40.7999 50.876H50.4119L50.9519 48.32H45.0299L45.4799 46.196H50.4119L50.9519 43.64H46.0199L46.4879 41.516H52.4099L52.9679 38.834H43.3559ZM55.3793 38.834L52.8233 50.876H59.4653C61.2053 50.876 62.6753 50.288 63.8753 49.112C65.0753 47.936 65.7893 46.808 66.0173 45.728C66.2453 44.648 66.3593 43.85 66.3593 43.334C66.3593 42.038 66.0173 40.964 65.3333 40.112C64.6493 39.26 63.6413 38.834 62.3093 38.834H55.3793ZM60.3473 41.516C61.1033 41.516 61.6613 41.732 62.0213 42.164C62.3933 42.596 62.5793 43.154 62.5793 43.838C62.5793 44.102 62.5133 44.558 62.3813 45.206C62.2493 45.842 61.8413 46.52 61.1573 47.24C60.4733 47.96 59.6693 48.32 58.7453 48.32H56.9093L58.3673 41.516H60.3473Z" fill="#083975"/>
</svg>
